# https://github.com/mikedh/trimesh
v 4963.19000000 5955.77000000 3185.29000000
v 4938.01000000 5961.83000000 3186.76000000
v 4985.27000000 5999.41000000 3193.03000000
v 4925.14000000 5997.37000000 3197.46000000
v 4931.68000000 5947.19000000 3195.62000000
v 4922.96000000 5926.53000000 3221.55000000
v 4992.16000000 5954.72000000 3218.98000000
v 4884.84000000 5955.90000000 3211.81000000
v 4874.37000000 5993.62000000 3209.48000000
v 5014.62000000 5991.46000000 3222.06000000
v 4921.48000000 6075.48000000 3220.05000000
v 5016.58000000 6050.44000000 3229.92000000
v 4962.97000000 6058.47000000 3209.08000000
v 4995.18000000 6086.36000000 3224.20000000
v 4976.31000000 5920.57000000 3251.97000000
v 4821.67000000 5982.53000000 3229.39000000
v 4866.38000000 6094.75000000 3246.77000000
v 5014.64000000 6121.18000000 3245.58000000
v 4977.28000000 6155.76000000 3241.73000000
v 5004.26000000 6157.62000000 3249.81000000
v 4816.25000000 5916.84000000 3252.75000000
v 4838.57000000 5889.41000000 3287.58000000
v 4932.06000000 5903.67000000 3268.49000000
v 4775.42000000 5928.21000000 3254.82000000
v 4811.90000000 5949.91000000 3239.59000000
v 4762.47000000 5966.10000000 3258.75000000
v 5024.79000000 5957.27000000 3309.19000000
v 4761.17000000 6065.07000000 3281.70000000
v 5029.75000000 6023.53000000 3302.59000000
v 4927.34000000 6193.95000000 3262.82000000
v 5026.67000000 6120.12000000 3279.14000000
v 4760.24000000 5911.35000000 3274.19000000
v 4970.95000000 5897.82000000 3319.73000000
v 4724.37000000 5925.64000000 3287.74000000
v 5003.72000000 5918.91000000 3338.02000000
v 4806.09000000 6215.31000000 3314.96000000
v 5018.36000000 6201.18000000 3278.33000000
v 5003.40000000 6230.17000000 3275.05000000
v 4971.46000000 6239.35000000 3273.62000000
v 4731.70000000 5894.99000000 3304.69000000
v 4905.11000000 5882.64000000 3333.06000000
v 4661.97000000 5928.82000000 3311.38000000
v 4695.93000000 5978.63000000 3297.69000000
v 4651.30000000 6035.25000000 3324.45000000
v 5031.32000000 6232.08000000 3325.45000000
v 4928.30000000 6279.78000000 3299.71000000
v 5013.27000000 6285.60000000 3312.27000000
v 4979.87000000 6294.30000000 3303.05000000
v 4840.84000000 5869.71000000 3362.41000000
v 4669.74000000 5906.32000000 3318.11000000
v 4621.09000000 5907.20000000 3336.94000000
v 4603.56000000 5962.84000000 3342.53000000
v 4671.84000000 6143.92000000 3345.07000000
v 4864.38000000 6320.88000000 3340.88000000
v 4941.26000000 6359.13000000 3345.89000000
v 4991.52000000 6353.97000000 3345.96000000
v 4740.90000000 5872.67000000 3347.46000000
v 4634.16000000 5881.56000000 3358.77000000
v 4578.66000000 5901.30000000 3366.00000000
v 4930.45000000 5872.51000000 3432.84000000
v 4986.13000000 5890.62000000 3403.57000000
v 5025.22000000 5920.54000000 3444.30000000
v 4582.45000000 6079.99000000 3371.46000000
v 5039.32000000 6148.74000000 3477.12000000
v 4980.79000000 6400.13000000 3387.52000000
v 4555.01000000 5873.16000000 3398.73000000
v 4535.31000000 5924.04000000 3379.44000000
v 4535.88000000 5993.15000000 3382.32000000
v 5034.04000000 5977.81000000 3532.34000000
v 4603.34000000 6203.76000000 3394.16000000
v 4677.70000000 6239.43000000 3375.62000000
v 5036.80000000 6295.27000000 3416.02000000
v 4740.77000000 6327.29000000 3392.00000000
v 5012.04000000 6356.32000000 3387.92000000
v 4852.61000000 6366.37000000 3378.50000000
v 4991.57000000 6371.05000000 3372.15000000
v 4876.09000000 6418.70000000 3431.09000000
v 4686.22000000 5861.94000000 3391.84000000
v 4802.05000000 5863.97000000 3431.07000000
v 4516.96000000 5888.37000000 3405.64000000
v 4476.86000000 5906.13000000 3420.63000000
v 5008.71000000 5894.26000000 3483.16000000
v 4480.37000000 5958.56000000 3415.55000000
v 4482.13000000 6070.35000000 3432.49000000
v 4483.05000000 5866.65000000 3451.97000000
v 4558.82000000 5860.97000000 3454.61000000
v 4449.38000000 5885.60000000 3456.62000000
v 4983.39000000 5877.74000000 3509.90000000
v 4530.51000000 6196.88000000 3431.36000000
v 4592.69000000 6286.74000000 3430.23000000
v 5040.95000000 6287.75000000 3556.06000000
v 5030.62000000 6353.57000000 3511.04000000
v 4791.19000000 6388.36000000 3424.12000000
v 4993.77000000 6416.85000000 3437.05000000
v 4946.65000000 6444.13000000 3484.94000000
v 4677.99000000 5856.73000000 3576.66000000
v 4412.57000000 5917.62000000 3474.20000000
v 4423.28000000 5992.65000000 3464.73000000
v 4449.30000000 6194.08000000 3481.39000000
v 4614.97000000 6363.11000000 3456.90000000
v 4687.20000000 6415.31000000 3477.06000000
v 4770.43000000 6440.18000000 3483.73000000
v 4427.43000000 5857.19000000 3522.38000000
v 4376.29000000 6112.25000000 3520.10000000
v 4483.52000000 6282.13000000 3483.69000000
v 4522.59000000 6350.12000000 3490.08000000
v 4542.19000000 6410.65000000 3518.42000000
v 4587.98000000 6439.13000000 3526.22000000
v 5010.51000000 6400.30000000 3480.25000000
v 4808.50000000 6469.31000000 3514.36000000
v 4864.44000000 6472.98000000 3525.63000000
v 4422.00000000 5849.52000000 3583.34000000
v 4510.77000000 5854.20000000 3617.38000000
v 4846.15000000 5858.35000000 3594.08000000
v 4370.17000000 5973.44000000 3509.21000000
v 4304.09000000 5920.16000000 3565.13000000
v 4410.70000000 6256.53000000 3525.19000000
v 4697.90000000 6464.73000000 3524.13000000
v 4992.39000000 6431.02000000 3528.89000000
v 4371.46000000 5879.49000000 3535.47000000
v 4425.44000000 6338.93000000 3542.96000000
v 5036.75000000 6323.16000000 3666.80000000
v 4638.27000000 6474.37000000 3547.79000000
v 4906.62000000 6480.70000000 3568.04000000
v 4357.39000000 5856.53000000 3581.49000000
v 4310.78000000 6014.33000000 3560.47000000
v 5042.13000000 6033.00000000 3731.18000000
v 5041.18000000 6148.92000000 3749.80000000
v 4455.41000000 6420.85000000 3574.12000000
v 5015.08000000 6394.69000000 3601.80000000
v 4992.20000000 6435.45000000 3605.73000000
v 4701.53000000 6492.88000000 3558.07000000
v 4947.50000000 6463.99000000 3628.49000000
v 4770.63000000 6512.92000000 3601.70000000
v 4861.34000000 6497.43000000 3598.49000000
v 4542.15000000 5851.07000000 3725.43000000
v 4955.48000000 5863.56000000 3592.70000000
v 5001.89000000 5874.88000000 3618.67000000
v 5026.21000000 5899.00000000 3674.21000000
v 4231.15000000 5987.37000000 3625.29000000
v 5037.92000000 5924.04000000 3823.27000000
v 4263.01000000 6110.73000000 3614.08000000
v 4291.89000000 6266.71000000 3627.85000000
v 4372.29000000 6373.73000000 3603.04000000
v 4536.86000000 6475.44000000 3582.08000000
v 4583.06000000 6514.33000000 3608.70000000
v 4292.48000000 5841.63000000 3647.86000000
v 4301.39000000 5863.48000000 3605.82000000
v 4437.80000000 5847.42000000 3674.84000000
v 4287.08000000 5883.34000000 3597.05000000
v 4221.95000000 5898.24000000 3643.57000000
v 4175.15000000 6177.30000000 3706.61000000
v 4632.85000000 6532.97000000 3631.25000000
v 4285.58000000 6381.14000000 3678.51000000
v 4377.51000000 6430.95000000 3637.53000000
v 4418.57000000 6480.47000000 3652.32000000
v 4879.51000000 6499.40000000 3665.73000000
v 4248.32000000 5858.92000000 3648.73000000
v 4364.63000000 5842.94000000 3674.51000000
v 4139.38000000 5936.98000000 3711.42000000
v 4485.62000000 6512.48000000 3650.76000000
v 4821.94000000 6515.70000000 3669.36000000
v 4688.16000000 6545.66000000 3668.67000000
v 4208.32000000 5824.81000000 3702.62000000
v 4190.59000000 5850.48000000 3689.79000000
v 4306.22000000 5831.66000000 3728.66000000
v 4123.70000000 6069.81000000 3739.97000000
v 4279.84000000 6442.38000000 3732.37000000
v 4983.37000000 6429.10000000 3687.27000000
v 4762.59000000 6533.78000000 3693.19000000
v 4506.62000000 6547.29000000 3703.63000000
v 4601.23000000 6553.55000000 3688.24000000
v 4255.09000000 5827.60000000 3702.26000000
v 4724.87000000 5848.93000000 3741.98000000
v 4906.04000000 5847.63000000 3726.92000000
v 4980.37000000 5858.72000000 3694.08000000
v 5010.43000000 5856.22000000 3778.58000000
v 4138.98000000 5859.99000000 3724.32000000
v 4194.72000000 6336.92000000 3738.52000000
v 4321.02000000 6484.81000000 3740.40000000
v 4378.03000000 6516.01000000 3743.07000000
v 4635.92000000 6562.54000000 3729.72000000
v 4138.66000000 5809.61000000 3740.81000000
v 4201.69000000 6388.36000000 3763.82000000
v 5013.70000000 6357.22000000 3759.25000000
v 4912.32000000 6469.66000000 3782.89000000
v 4872.40000000 6497.52000000 3746.17000000
v 4709.14000000 6554.19000000 3766.17000000
v 4559.40000000 6571.01000000 3774.13000000
v 4159.68000000 5795.85000000 3745.99000000
v 4232.47000000 5813.74000000 3745.83000000
v 4103.92000000 5822.68000000 3760.43000000
v 4416.32000000 5840.97000000 3751.92000000
v 4975.44000000 5841.27000000 3795.96000000
v 5036.84000000 5857.02000000 3970.27000000
v 4064.30000000 5947.50000000 3793.11000000
v 4098.18000000 6165.94000000 3780.52000000
v 4119.83000000 6237.43000000 3783.09000000
v 4790.23000000 6529.61000000 3764.11000000
v 4380.75000000 6564.58000000 3842.47000000
v 4105.75000000 5763.63000000 3781.05000000
v 4184.01000000 5775.77000000 3816.52000000
v 4085.86000000 5789.51000000 3782.17000000
v 4929.62000000 5829.46000000 3868.09000000
v 5026.02000000 5853.52000000 3878.10000000
v 4080.07000000 5847.80000000 3779.83000000
v 4971.90000000 6411.78000000 3787.41000000
v 4139.12000000 6412.36000000 3859.19000000
v 4216.36000000 6478.80000000 3864.99000000
v 4725.74000000 6552.94000000 3835.89000000
v 4616.05000000 6575.46000000 3826.43000000
v 4061.80000000 5732.22000000 3812.55000000
v 4074.39000000 5757.72000000 3798.61000000
v 4047.94000000 5766.49000000 3817.73000000
v 4323.28000000 5817.94000000 3806.71000000
v 4827.85000000 5837.74000000 3837.30000000
v 4986.05000000 6364.01000000 3860.42000000
v 4457.58000000 6583.16000000 3855.45000000
v 4036.06000000 5719.17000000 3832.45000000
v 4039.00000000 5709.69000000 3835.27000000
v 4091.34000000 5729.78000000 3837.67000000
v 4278.66000000 5793.62000000 3860.84000000
v 3994.98000000 5851.94000000 3874.35000000
v 4018.33000000 6009.34000000 3847.14000000
v 5033.42000000 6107.81000000 3982.80000000
v 4099.41000000 6329.72000000 3849.22000000
v 4913.49000000 6432.24000000 3874.31000000
v 4805.66000000 6516.27000000 3856.31000000
v 4295.11000000 6536.22000000 3873.77000000
v 4526.06000000 6592.50000000 3888.60000000
v 4040.80000000 5694.26000000 3865.58000000
v 4015.91000000 5700.24000000 3858.48000000
v 4006.18000000 5725.27000000 3867.44000000
v 4148.17000000 5742.23000000 3860.84000000
v 4993.33000000 5829.10000000 3902.28000000
v 4510.91000000 5835.18000000 3819.86000000
v 3991.64000000 6119.95000000 3891.60000000
v 3974.35000000 6226.48000000 3946.82000000
v 5012.42000000 6233.62000000 3941.68000000
v 3987.58000000 5676.20000000 3895.14000000
v 4213.38000000 5758.13000000 3881.55000000
v 4397.60000000 5810.35000000 3885.69000000
v 5018.49000000 5835.35000000 3926.95000000
v 5037.92000000 5907.42000000 4037.87000000
v 4824.00000000 6489.49000000 3918.01000000
v 4731.08000000 6548.39000000 3886.35000000
v 4355.06000000 6594.61000000 3964.12000000
v 4593.56000000 6589.30000000 3932.72000000
v 4671.57000000 6566.19000000 3873.20000000
v 4039.23000000 5668.80000000 3906.01000000
v 4005.20000000 5669.70000000 3896.39000000
v 4126.69000000 5708.32000000 3898.29000000
v 4690.59000000 5830.11000000 3879.07000000
v 4840.47000000 5817.06000000 3944.75000000
v 3948.80000000 5990.11000000 3926.29000000
v 3984.05000000 6302.33000000 3972.35000000
v 3989.96000000 6353.67000000 4011.81000000
v 4927.67000000 6369.03000000 3958.19000000
v 4192.18000000 6529.78000000 3998.76000000
v 4282.01000000 6568.15000000 3972.27000000
v 4002.72000000 5631.57000000 3939.99000000
v 3977.86000000 5646.90000000 3928.40000000
v 3954.95000000 5677.39000000 3940.97000000
v 4258.09000000 5728.60000000 3948.07000000
v 4328.61000000 5774.09000000 3924.41000000
v 4560.61000000 5813.69000000 3927.40000000
v 3906.36000000 5848.55000000 3985.80000000
v 4036.91000000 6415.64000000 4023.95000000
v 4432.31000000 6603.78000000 3967.32000000
v 3979.32000000 5587.95000000 3966.06000000
v 3951.18000000 5584.33000000 3963.46000000
v 4076.44000000 5647.76000000 3947.62000000
v 3918.77000000 5736.01000000 3982.08000000
v 4481.84000000 5778.65000000 3987.19000000
v 4956.99000000 5804.16000000 4008.37000000
v 3855.63000000 6048.27000000 4034.05000000
v 4984.81000000 6204.89000000 4054.76000000
v 4077.55000000 6476.42000000 4071.52000000
v 4716.07000000 6540.09000000 4010.62000000
v 4634.86000000 6576.67000000 4010.05000000
v 4507.39000000 6606.28000000 4078.58000000
v 3873.28000000 5348.64000000 3981.13000000
v 3900.87000000 5424.70000000 3978.81000000
v 3907.31000000 5370.53000000 3992.66000000
v 3874.55000000 5405.99000000 3983.93000000
v 3899.24000000 5462.06000000 3981.18000000
v 3924.88000000 5501.13000000 3978.12000000
v 3914.46000000 5514.72000000 3979.56000000
v 3971.74000000 5523.40000000 3989.80000000
v 3907.96000000 5560.74000000 3990.28000000
v 4170.81000000 5655.73000000 3969.77000000
v 4103.10000000 5613.49000000 3984.85000000
v 4250.91000000 5668.12000000 3991.30000000
v 4387.64000000 5739.67000000 3998.38000000
v 4308.51000000 5679.08000000 4007.99000000
v 4750.99000000 5799.06000000 4014.60000000
v 3862.68000000 5958.00000000 4027.07000000
v 3828.67000000 6131.03000000 4091.79000000
v 3892.96000000 6242.67000000 4057.44000000
v 3911.49000000 6299.99000000 4072.23000000
v 4844.06000000 6446.39000000 3976.87000000
v 3870.92000000 5261.72000000 4008.57000000
v 3834.86000000 5201.42000000 4016.05000000
v 3837.36000000 5268.43000000 4002.35000000
v 3834.34000000 5319.81000000 4000.25000000
v 3801.16000000 5236.60000000 4016.97000000
v 3917.18000000 5315.46000000 4023.44000000
v 3966.98000000 5417.42000000 4020.68000000
v 3830.94000000 5381.37000000 4018.24000000
v 3931.40000000 5447.02000000 3991.43000000
v 3883.76000000 5472.14000000 3995.95000000
v 4030.49000000 5583.57000000 3980.47000000
v 4016.82000000 5503.69000000 4013.05000000
v 4142.65000000 5582.67000000 4010.98000000
v 4477.55000000 5714.75000000 4067.36000000
v 4633.58000000 5780.63000000 4032.50000000
v 5009.28000000 5809.92000000 4021.14000000
v 5027.16000000 5823.20000000 4024.06000000
v 4926.93000000 6268.30000000 4086.43000000
v 4759.54000000 6497.64000000 4045.64000000
v 4574.65000000 6594.18000000 4044.38000000
v 3812.76000000 5150.79000000 4033.80000000
v 3811.15000000 5203.62000000 4021.34000000
v 3847.17000000 5159.87000000 4040.75000000
v 3778.36000000 5172.51000000 4043.93000000
v 3783.73000000 5260.47000000 4041.37000000
v 3855.63000000 5496.62000000 4040.76000000
v 4080.21000000 5537.53000000 4015.56000000
v 3889.49000000 5619.55000000 4020.71000000
v 4251.46000000 5586.04000000 4040.73000000
v 4595.41000000 5740.21000000 4089.42000000
v 3857.23000000 5724.58000000 4062.59000000
v 4884.73000000 5793.34000000 4043.63000000
v 3818.84000000 5879.94000000 4089.11000000
v 5011.73000000 6087.03000000 4120.47000000
v 4867.52000000 6366.68000000 4058.37000000
v 4805.15000000 6435.42000000 4070.74000000
v 4190.38000000 6561.52000000 4085.90000000
v 4333.78000000 6609.62000000 4076.28000000
v 4387.88000000 6613.72000000 4181.46000000
v 3790.45000000 5096.34000000 4058.71000000
v 3821.41000000 5098.20000000 4058.21000000
v 3890.12000000 5181.21000000 4071.35000000
v 3782.60000000 5314.21000000 4057.01000000
v 3956.75000000 5296.65000000 4077.68000000
v 4001.29000000 5370.35000000 4066.52000000
v 3807.91000000 5392.71000000 4065.60000000
v 4059.93000000 5441.73000000 4052.51000000
v 4141.07000000 5518.73000000 4039.77000000
v 4366.29000000 5658.93000000 4048.71000000
v 4879.38000000 5765.23000000 4122.41000000
v 5001.34000000 5782.80000000 4099.52000000
v 3777.25000000 5978.73000000 4133.24000000
v 5031.90000000 5892.56000000 4204.87000000
v 4239.20000000 6591.82000000 4138.74000000
v 3789.01000000 5025.50000000 4087.34000000
v 3750.93000000 5048.29000000 4097.32000000
v 3813.15000000 5052.27000000 4078.08000000
v 3832.81000000 5053.53000000 4089.02000000
v 3749.55000000 5106.40000000 4083.52000000
v 3719.29000000 5160.74000000 4132.79000000
v 3749.64000000 5250.11000000 4092.01000000
v 3945.28000000 5195.84000000 4138.25000000
v 4033.87000000 5370.91000000 4083.03000000
v 4201.54000000 5438.55000000 4098.16000000
v 3823.60000000 5460.49000000 4099.99000000
v 4347.40000000 5585.19000000 4080.22000000
v 3845.17000000 5574.64000000 4086.64000000
v 4735.70000000 5757.92000000 4103.96000000
v 4992.90000000 6085.47000000 4183.03000000
v 3828.64000000 6260.70000000 4160.88000000
v 3870.78000000 6309.95000000 4147.09000000
v 3899.60000000 6366.50000000 4181.02000000
v 4073.93000000 6524.13000000 4212.35000000
v 4554.77000000 6597.43000000 4162.26000000
v 3806.00000000 5025.72000000 4090.54000000
v 3860.73000000 5050.56000000 4123.37000000
v 3767.73000000 5312.75000000 4094.50000000
v 3991.26000000 5245.84000000 4145.10000000
v 4018.82000000 5312.93000000 4112.57000000
v 3790.60000000 5372.66000000 4106.25000000
v 4107.19000000 5346.08000000 4125.60000000
v 4331.73000000 5513.35000000 4110.18000000
v 4445.85000000 5608.88000000 4129.19000000
v 3777.83000000 5779.32000000 4167.57000000
v 4964.19000000 5766.26000000 4127.40000000
v 5023.10000000 5789.18000000 4124.68000000
v 3792.67000000 6051.41000000 4119.73000000
v 3969.17000000 6430.84000000 4169.91000000
v 4814.69000000 6365.00000000 4163.16000000
v 3796.46000000 4993.54000000 4114.52000000
v 3765.03000000 4994.97000000 4119.16000000
v 3724.40000000 4987.16000000 4151.76000000
v 3693.80000000 5036.60000000 4188.65000000
v 3896.69000000 5075.57000000 4182.38000000
v 3730.36000000 5234.47000000 4142.32000000
v 4236.01000000 5331.69000000 4171.00000000
v 4302.42000000 5395.70000000 4155.71000000
v 3801.15000000 5645.39000000 4170.34000000
v 4566.94000000 5676.65000000 4150.05000000
v 5030.26000000 5801.30000000 4117.51000000
v 3757.09000000 5875.65000000 4174.92000000
v 5020.02000000 5966.26000000 4206.58000000
v 3784.36000000 6192.70000000 4185.83000000
v 4883.40000000 6252.45000000 4181.57000000
v 4729.47000000 6463.21000000 4196.06000000
v 3953.97000000 6469.36000000 4306.32000000
v 4653.37000000 6533.18000000 4225.43000000
v 4605.90000000 6571.39000000 4189.42000000
v 4277.36000000 6615.05000000 4320.33000000
v 3786.63000000 4947.94000000 4153.40000000
v 3746.06000000 4940.96000000 4172.21000000
v 3825.81000000 4987.57000000 4140.48000000
v 3944.36000000 5128.56000000 4210.81000000
v 3759.27000000 5301.90000000 4151.68000000
v 4067.62000000 5246.97000000 4186.74000000
v 4177.22000000 5270.90000000 4198.64000000
v 3805.40000000 5401.93000000 4136.35000000
v 3825.19000000 5464.48000000 4132.65000000
v 3827.44000000 5529.40000000 4134.80000000
v 4425.71000000 5500.40000000 4168.67000000
v 4383.13000000 5415.63000000 4181.51000000
v 4578.73000000 5610.46000000 4211.58000000
v 4139.73000000 6564.38000000 4224.08000000
v 4261.47000000 6607.43000000 4221.24000000
v 4433.57000000 6613.84000000 4309.95000000
v 3713.90000000 4929.81000000 4202.94000000
v 3856.76000000 4974.31000000 4207.83000000
v 3679.40000000 4935.33000000 4252.19000000
v 3694.10000000 5179.83000000 4213.13000000
v 3818.72000000 5568.03000000 4182.85000000
v 4508.29000000 5511.17000000 4213.71000000
v 4726.08000000 5715.79000000 4169.07000000
v 4870.54000000 5728.21000000 4189.41000000
v 5008.59000000 5765.61000000 4160.96000000
v 4947.10000000 6133.56000000 4213.08000000
v 3729.12000000 4896.92000000 4223.12000000
v 3766.43000000 4888.99000000 4224.30000000
v 3814.33000000 4916.89000000 4217.35000000
v 3664.30000000 5089.10000000 4239.45000000
v 4002.01000000 5183.21000000 4206.41000000
v 3714.25000000 5224.66000000 4211.86000000
v 3744.13000000 5259.43000000 4224.77000000
v 4356.17000000 5310.26000000 4227.11000000
v 3801.23000000 5346.21000000 4189.38000000
v 3830.96000000 5471.83000000 4169.21000000
v 4455.36000000 5435.54000000 4212.20000000
v 3806.78000000 5593.89000000 4226.40000000
v 3798.69000000 5614.37000000 4211.81000000
v 4704.49000000 5657.81000000 4225.19000000
v 3739.90000000 5720.27000000 4253.00000000
v 4943.83000000 5736.01000000 4188.52000000
v 4995.44000000 5734.30000000 4214.39000000
v 5018.35000000 5745.21000000 4208.48000000
v 3744.18000000 6030.83000000 4188.70000000
v 4825.34000000 6259.90000000 4290.55000000
v 4740.93000000 6403.55000000 4284.54000000
v 4139.38000000 6578.78000000 4309.19000000
v 4498.43000000 6605.22000000 4269.83000000
v 3791.81000000 4858.54000000 4272.25000000
v 3629.41000000 5036.82000000 4298.57000000
v 3915.92000000 5040.53000000 4278.77000000
v 3947.55000000 5084.82000000 4278.03000000
v 3654.10000000 5139.60000000 4279.15000000
v 4234.72000000 5187.49000000 4282.75000000
v 4279.39000000 5255.99000000 4240.13000000
v 3710.27000000 5217.74000000 4287.94000000
v 4450.97000000 5347.82000000 4250.94000000
v 3840.57000000 5360.96000000 4203.76000000
v 3854.23000000 5409.22000000 4191.78000000
v 3862.58000000 5459.92000000 4188.53000000
v 3872.01000000 5503.81000000 4207.00000000
v 3834.17000000 5561.21000000 4229.82000000
v 3779.62000000 5641.18000000 4238.95000000
v 3758.54000000 5665.81000000 4261.73000000
v 4826.88000000 5678.04000000 4244.62000000
v 3718.91000000 5797.68000000 4256.09000000
v 3709.94000000 5892.17000000 4255.79000000
v 3731.29000000 6100.02000000 4232.46000000
v 3759.08000000 6233.21000000 4259.94000000
v 3807.93000000 6294.84000000 4248.91000000
v 4762.37000000 6355.52000000 4310.74000000
v 4347.93000000 6616.11000000 4361.46000000
v 3731.17000000 4848.56000000 4286.48000000
v 3703.39000000 4880.18000000 4273.86000000
v 3844.35000000 4890.06000000 4317.21000000
v 3627.52000000 4971.55000000 4321.07000000
v 3991.18000000 5114.97000000 4278.05000000
v 3680.05000000 5188.85000000 4285.39000000
v 4092.95000000 5136.93000000 4298.08000000
v 3790.50000000 5279.11000000 4256.82000000
v 4467.69000000 5261.50000000 4308.89000000
v 3853.20000000 5325.80000000 4236.65000000
v 3903.37000000 5443.46000000 4207.62000000
v 3936.57000000 5479.23000000 4219.24000000
v 3940.76000000 5519.18000000 4234.13000000
v 4939.75000000 5682.72000000 4269.22000000
v 3868.65000000 6411.51000000 4344.06000000
v 4644.13000000 6495.94000000 4349.55000000
v 3768.01000000 4833.48000000 4304.35000000
v 3813.37000000 4862.44000000 4295.37000000
v 3881.77000000 4952.77000000 4330.09000000
v 3757.47000000 5247.34000000 4291.13000000
v 4569.42000000 5316.40000000 4335.35000000
v 3913.73000000 5377.01000000 4229.19000000
v 4541.50000000 5421.07000000 4273.78000000
v 3992.39000000 5434.18000000 4237.10000000
v 4002.13000000 5490.42000000 4240.45000000
v 4630.88000000 5516.15000000 4283.63000000
v 3938.08000000 5554.89000000 4262.20000000
v 3790.34000000 5619.87000000 4268.28000000
v 4683.76000000 5592.99000000 4269.24000000
v 3761.23000000 5644.34000000 4303.14000000
v 4997.96000000 5701.45000000 4269.54000000
v 3688.08000000 5989.80000000 4294.62000000
v 4984.89000000 5959.43000000 4325.30000000
v 3717.18000000 6172.75000000 4299.15000000
v 4886.35000000 6140.46000000 4320.72000000
v 4178.04000000 6593.34000000 4360.72000000
v 3654.64000000 4856.42000000 4370.07000000
v 3938.03000000 5011.77000000 4357.47000000
v 3971.76000000 5054.75000000 4339.28000000
v 3622.80000000 5087.45000000 4314.47000000
v 4044.46000000 5056.06000000 4373.47000000
v 4380.06000000 5212.12000000 4308.21000000
v 3867.04000000 5290.44000000 4285.10000000
v 4009.51000000 5327.78000000 4289.68000000
v 4029.62000000 5383.47000000 4261.34000000
v 4096.78000000 5421.09000000 4266.92000000
v 4101.07000000 5476.55000000 4267.03000000
v 4035.11000000 5523.42000000 4265.37000000
v 3874.79000000 5589.82000000 4304.79000000
v 4753.57000000 5556.15000000 4325.74000000
v 3819.54000000 5597.44000000 4273.47000000
v 4794.23000000 5619.84000000 4291.10000000
v 4882.43000000 5626.09000000 4315.18000000
v 3722.87000000 5677.30000000 4320.42000000
v 3701.74000000 5721.52000000 4317.68000000
v 3666.76000000 6078.97000000 4375.15000000
v 4672.56000000 6442.74000000 4387.39000000
v 4070.36000000 6550.36000000 4342.25000000
v 4530.56000000 6588.98000000 4324.13000000
v 3798.16000000 4837.37000000 4317.37000000
v 3696.75000000 4812.72000000 4376.79000000
v 3617.97000000 4911.10000000 4379.15000000
v 3911.80000000 4967.93000000 4373.83000000
v 4338.73000000 5132.43000000 4366.68000000
v 3688.09000000 5209.90000000 4343.75000000
v 4669.54000000 5412.43000000 4347.32000000
v 4165.79000000 5375.81000000 4304.74000000
v 4211.57000000 5429.14000000 4302.34000000
v 4231.47000000 5477.17000000 4308.05000000
v 4157.68000000 5516.44000000 4300.80000000
v 4086.66000000 5550.42000000 4308.16000000
v 4737.89000000 5497.15000000 4346.56000000
v 4000.09000000 5575.12000000 4324.15000000
v 3795.24000000 5615.35000000 4325.54000000
v 4985.72000000 5642.37000000 4344.44000000
v 5013.83000000 5720.09000000 4270.32000000
v 3666.67000000 5758.67000000 4356.69000000
v 5012.82000000 5840.66000000 4342.22000000
v 3648.58000000 5862.60000000 4381.54000000
v 3731.93000000 6259.45000000 4368.16000000
v 4580.38000000 6524.12000000 4430.79000000
v 3746.37000000 4797.67000000 4372.32000000
v 3819.36000000 4835.98000000 4371.72000000
v 3561.75000000 5017.51000000 4408.86000000
v 3556.61000000 5088.67000000 4409.49000000
v 3590.96000000 5127.74000000 4377.84000000
v 4221.28000000 5111.63000000 4360.90000000
v 4513.95000000 5208.04000000 4377.61000000
v 4464.88000000 5151.07000000 4408.95000000
v 3750.39000000 5241.81000000 4352.72000000
v 4608.13000000 5244.64000000 4403.82000000
v 3829.58000000 5267.09000000 4321.16000000
v 4688.83000000 5310.43000000 4403.67000000
v 3959.11000000 5288.04000000 4327.27000000
v 4104.39000000 5301.29000000 4347.78000000
v 4256.22000000 5388.21000000 4326.40000000
v 4299.17000000 5499.52000000 4341.33000000
v 4247.89000000 5539.76000000 4356.52000000
v 3935.05000000 5586.44000000 4352.12000000
v 4852.37000000 5561.61000000 4366.44000000
v 3736.69000000 5641.67000000 4349.83000000
v 4931.68000000 5599.91000000 4367.73000000
v 5020.12000000 5786.37000000 4295.21000000
v 3645.41000000 5966.12000000 4403.97000000
v 4909.98000000 6046.39000000 4382.01000000
v 3665.73000000 6183.46000000 4471.46000000
v 3797.14000000 6340.33000000 4359.19000000
v 4711.66000000 6375.32000000 4402.42000000
v 4573.96000000 6558.94000000 4332.39000000
v 3786.71000000 4812.21000000 4369.99000000
v 3661.95000000 4804.35000000 4434.59000000
v 3854.42000000 4844.68000000 4463.90000000
v 3641.60000000 5182.85000000 4366.80000000
v 3931.88000000 5274.97000000 4367.49000000
v 4091.67000000 5280.41000000 4397.72000000
v 4246.80000000 5332.53000000 4358.48000000
v 4255.33000000 5372.53000000 4335.18000000
v 4332.57000000 5387.93000000 4356.51000000
v 4337.42000000 5446.54000000 4349.14000000
v 4781.75000000 5449.78000000 4391.66000000
v 4795.90000000 5510.50000000 4372.40000000
v 4031.63000000 5574.79000000 4376.21000000
v 4137.47000000 5563.27000000 4375.40000000
v 3852.75000000 5593.57000000 4365.30000000
v 4972.39000000 5603.65000000 4389.62000000
v 4986.63000000 5618.77000000 4405.03000000
v 3680.23000000 5662.13000000 4386.92000000
v 4861.29000000 6090.98000000 4419.83000000
v 4768.64000000 6282.90000000 4389.33000000
v 4035.39000000 6549.31000000 4462.00000000
v 4164.33000000 6593.34000000 4501.51000000
v 3717.37000000 4758.94000000 4459.03000000
v 3776.83000000 4776.41000000 4434.62000000
v 3585.67000000 4867.68000000 4489.79000000
v 3555.07000000 4955.28000000 4457.94000000
v 4001.24000000 5002.12000000 4414.53000000
v 4163.79000000 5072.18000000 4390.77000000
v 4413.22000000 5094.85000000 4441.99000000
v 4595.82000000 5177.85000000 4461.03000000
v 3687.93000000 5240.86000000 4403.02000000
v 3754.74000000 5268.30000000 4408.33000000
v 3857.54000000 5272.82000000 4390.08000000
v 4236.39000000 5291.47000000 4400.19000000
v 4756.37000000 5366.56000000 4412.29000000
v 4380.08000000 5514.70000000 4383.42000000
v 4835.38000000 5479.60000000 4420.48000000
v 3956.70000000 5570.06000000 4404.13000000
v 3844.90000000 5570.25000000 4411.49000000
v 3762.26000000 5606.49000000 4388.41000000
v 5000.06000000 5678.06000000 4411.23000000
v 4812.60000000 6186.11000000 4410.29000000
v 3976.16000000 6510.68000000 4424.02000000
v 3750.45000000 4761.91000000 4449.85000000
v 3805.54000000 4792.17000000 4453.55000000
v 3633.11000000 4815.76000000 4472.43000000
v 3908.94000000 4906.44000000 4470.82000000
v 3953.11000000 4960.81000000 4438.60000000
v 4280.68000000 5065.30000000 4435.71000000
v 3578.77000000 5165.98000000 4423.07000000
v 3604.31000000 5216.99000000 4439.95000000
v 3994.61000000 5283.11000000 4418.32000000
v 4241.21000000 5274.95000000 4439.06000000
v 4402.51000000 5345.31000000 4401.67000000
v 4438.38000000 5374.61000000 4399.74000000
v 4467.89000000 5413.40000000 4403.90000000
v 4807.94000000 5399.23000000 4437.34000000
v 4445.79000000 5473.53000000 4397.67000000
v 4291.81000000 5556.81000000 4414.10000000
v 4233.00000000 5559.57000000 4438.34000000
v 4401.26000000 5536.73000000 4417.48000000
v 4890.34000000 5531.08000000 4425.38000000
v 4119.99000000 5551.84000000 4442.52000000
v 3694.00000000 5591.04000000 4430.55000000
v 3627.63000000 5669.18000000 4431.22000000
v 3601.96000000 5696.69000000 4461.66000000
v 4982.45000000 5819.28000000 4454.55000000
v 3795.64000000 6387.00000000 4457.92000000
v 4284.04000000 6609.42000000 4484.45000000
v 4373.23000000 6611.13000000 4447.88000000
v 4452.75000000 6598.22000000 4419.41000000
v 3772.53000000 4745.40000000 4503.84000000
v 4125.34000000 5010.25000000 4461.27000000
v 4521.13000000 5099.47000000 4507.19000000
v 3542.64000000 5144.16000000 4444.81000000
v 4662.36000000 5219.56000000 4456.65000000
v 4703.81000000 5248.84000000 4459.35000000
v 4754.37000000 5300.48000000 4448.98000000
v 3717.61000000 5293.14000000 4439.07000000
v 3811.98000000 5306.79000000 4437.44000000
v 3922.95000000 5298.85000000 4436.29000000
v 4109.98000000 5285.82000000 4457.09000000
v 4361.31000000 5267.11000000 4475.38000000
v 4025.33000000 5313.07000000 4468.43000000
v 4445.13000000 5301.83000000 4456.85000000
v 4790.49000000 5343.88000000 4450.32000000
v 4557.06000000 5449.51000000 4440.43000000
v 4478.32000000 5508.12000000 4425.56000000
v 3887.54000000 5542.96000000 4432.99000000
v 3773.32000000 5543.70000000 4437.84000000
v 3981.76000000 5529.54000000 4449.46000000
v 4935.67000000 5565.16000000 4435.60000000
v 3629.85000000 5594.65000000 4457.01000000
v 3607.22000000 5900.60000000 4526.91000000
v 4911.23000000 5975.17000000 4453.87000000
v 3623.07000000 6011.23000000 4504.76000000
v 3683.00000000 6260.04000000 4521.05000000
v 3740.37000000 6323.83000000 4478.96000000
v 3849.71000000 6442.20000000 4526.32000000
v 4509.61000000 6557.35000000 4464.37000000
v 3788.93000000 4761.52000000 4492.37000000
v 3658.39000000 4769.11000000 4530.57000000
v 4026.86000000 4971.13000000 4473.94000000
v 3504.25000000 5023.86000000 4501.27000000
v 4279.79000000 5007.88000000 4522.42000000
v 3511.01000000 5074.89000000 4479.79000000
v 4429.64000000 5042.44000000 4542.22000000
v 3501.69000000 5170.64000000 4511.02000000
v 3550.11000000 5220.18000000 4481.00000000
v 3588.66000000 5258.99000000 4476.06000000
v 3642.62000000 5281.22000000 4457.96000000
v 4218.62000000 5276.32000000 4474.13000000
v 4293.62000000 5268.44000000 4475.60000000
v 3815.16000000 5355.54000000 4462.31000000
v 3906.31000000 5335.01000000 4461.47000000
v 4162.06000000 5304.65000000 4502.99000000
v 3712.96000000 5353.40000000 4468.52000000
v 4523.76000000 5359.32000000 4446.68000000
v 4788.69000000 5303.95000000 4478.28000000
v 4811.69000000 5355.10000000 4478.23000000
v 3805.36000000 5415.32000000 4465.87000000
v 3889.97000000 5388.68000000 4473.15000000
v 4607.08000000 5407.89000000 4466.07000000
v 4832.15000000 5426.58000000 4471.33000000
v 3896.24000000 5441.31000000 4472.23000000
v 3863.61000000 5490.22000000 4457.93000000
v 3723.84000000 5462.67000000 4469.66000000
v 4866.07000000 5488.81000000 4468.87000000
v 4565.87000000 5486.89000000 4453.94000000
v 3986.32000000 5482.96000000 4475.66000000
v 3671.50000000 5534.06000000 4465.26000000
v 4077.64000000 5514.34000000 4477.78000000
v 4896.97000000 5525.86000000 4458.39000000
v 4279.90000000 5544.24000000 4497.60000000
v 4386.60000000 5553.55000000 4497.57000000
v 4457.79000000 5547.73000000 4472.52000000
v 4954.43000000 5576.86000000 4471.07000000
v 4974.78000000 5615.86000000 4468.77000000
v 4994.39000000 5747.10000000 4431.74000000
v 3590.30000000 5768.49000000 4514.71000000
v 4938.15000000 5907.05000000 4465.31000000
v 3622.58000000 6087.60000000 4561.61000000
v 4611.57000000 6464.60000000 4483.88000000
v 3743.12000000 4730.45000000 4525.64000000
v 3992.28000000 4921.13000000 4543.67000000
v 3497.51000000 4988.54000000 4536.43000000
v 4670.33000000 5206.54000000 4483.55000000
v 4751.69000000 5268.00000000 4481.91000000
v 3592.11000000 5316.18000000 4497.74000000
v 4795.42000000 5303.87000000 4501.29000000
v 3991.10000000 5370.39000000 4486.98000000
v 3623.55000000 5407.14000000 4500.53000000
v 4000.64000000 5436.56000000 4490.12000000
v 3630.96000000 5472.22000000 4493.50000000
v 4068.51000000 5481.18000000 4494.27000000
v 4671.61000000 5451.60000000 4492.45000000
v 4555.42000000 5520.86000000 4474.45000000
v 3610.27000000 5521.70000000 4491.33000000
v 4185.25000000 5504.70000000 4510.56000000
v 4894.42000000 5523.99000000 4494.07000000
v 3574.18000000 5549.76000000 4505.03000000
v 3562.11000000 5670.16000000 4536.02000000
v 4822.30000000 6088.77000000 4497.52000000
v 4719.00000000 6262.43000000 4519.72000000
v 4658.23000000 6386.46000000 4501.53000000
v 3700.91000000 4723.09000000 4579.39000000
v 3769.07000000 4728.48000000 4550.07000000
v 3895.40000000 4857.77000000 4544.89000000
v 4072.54000000 4953.48000000 4538.52000000
v 4596.82000000 5123.26000000 4534.26000000
v 4648.80000000 5166.38000000 4534.23000000
v 4708.76000000 5224.36000000 4509.72000000
v 4758.97000000 5268.00000000 4506.60000000
v 4335.00000000 5265.75000000 4514.05000000
v 4464.21000000 5251.09000000 4567.01000000
v 4517.93000000 5260.56000000 4536.17000000
v 4126.95000000 5357.69000000 4519.84000000
v 4598.65000000 5318.28000000 4497.57000000
v 4806.90000000 5331.31000000 4504.67000000
v 4660.89000000 5369.39000000 4498.96000000
v 4821.83000000 5385.65000000 4500.61000000
v 4097.14000000 5415.27000000 4517.56000000
v 4680.48000000 5412.44000000 4496.20000000
v 4843.19000000 5448.64000000 4496.37000000
v 4109.74000000 5457.41000000 4512.35000000
v 3590.48000000 5469.45000000 4509.22000000
v 4308.95000000 5523.33000000 4536.75000000
v 4541.04000000 5548.88000000 4540.59000000
v 4587.19000000 5536.97000000 4517.78000000
v 3539.70000000 5596.88000000 4555.10000000
v 4962.70000000 5658.88000000 4513.10000000
v 3633.70000000 6170.57000000 4582.66000000
v 4062.61000000 6561.48000000 4529.00000000
v 4421.31000000 6572.47000000 4559.29000000
v 4338.62000000 6607.56000000 4517.71000000
v 4367.27000000 6595.93000000 4531.91000000
v 3728.58000000 4705.60000000 4602.93000000
v 3804.05000000 4759.96000000 4547.14000000
v 3606.21000000 4806.31000000 4560.30000000
v 3524.45000000 4927.76000000 4555.32000000
v 3938.56000000 4867.51000000 4594.99000000
v 4176.32000000 4959.99000000 4579.36000000
v 3474.11000000 5036.13000000 4558.05000000
v 3481.54000000 5092.64000000 4537.85000000
v 4581.47000000 5077.38000000 4589.41000000
v 3485.98000000 5328.73000000 4574.53000000
v 3529.19000000 5285.22000000 4524.39000000
v 4767.82000000 5284.34000000 4522.90000000
v 4286.05000000 5286.11000000 4536.23000000
v 4592.63000000 5276.35000000 4528.50000000
v 3554.66000000 5407.10000000 4529.73000000
v 4243.96000000 5323.67000000 4552.13000000
v 4248.96000000 5366.76000000 4568.63000000
v 4800.10000000 5343.12000000 4517.05000000
v 4224.78000000 5407.44000000 4560.94000000
v 4816.91000000 5404.96000000 4515.29000000
v 4212.53000000 5456.98000000 4544.57000000
v 4327.45000000 5498.24000000 4564.34000000
v 4655.52000000 5493.34000000 4500.00000000
v 4674.72000000 5527.67000000 4538.57000000
v 4382.26000000 5530.18000000 4550.31000000
v 4499.00000000 5534.20000000 4584.01000000
v 4934.40000000 5583.99000000 4507.80000000
v 4955.33000000 5756.93000000 4517.51000000
v 3554.66000000 5712.01000000 4595.87000000
v 4917.81000000 5858.39000000 4524.18000000
v 4861.68000000 5958.11000000 4534.00000000
v 3651.18000000 6231.89000000 4643.58000000
v 3761.28000000 6369.83000000 4550.77000000
v 4531.22000000 6485.64000000 4577.79000000
v 3763.84000000 4717.95000000 4592.79000000
v 4286.50000000 4952.03000000 4644.58000000
v 4542.19000000 5039.47000000 4623.00000000
v 4492.71000000 4997.54000000 4669.99000000
v 4383.12000000 4978.78000000 4641.89000000
v 4614.63000000 5096.73000000 4608.16000000
v 3469.59000000 5196.63000000 4580.04000000
v 4680.98000000 5198.58000000 4555.19000000
v 4723.72000000 5243.42000000 4530.05000000
v 4403.63000000 5268.79000000 4579.12000000
v 4683.97000000 5310.71000000 4531.33000000
v 4732.26000000 5389.35000000 4520.35000000
v 4786.00000000 5372.67000000 4524.60000000
v 4792.69000000 5432.93000000 4527.16000000
v 4839.30000000 5471.80000000 4519.54000000
v 3518.75000000 5487.62000000 4573.45000000
v 4340.06000000 5455.13000000 4592.39000000
v 4732.11000000 5475.50000000 4527.53000000
v 4891.00000000 5547.36000000 4533.97000000
v 4642.26000000 5547.63000000 4575.31000000
v 4924.97000000 5608.69000000 4543.20000000
v 3575.33000000 5792.47000000 4595.56000000
v 3602.24000000 5972.95000000 4595.36000000
v 3709.27000000 6316.19000000 4608.55000000
v 3953.77000000 6514.84000000 4593.22000000
v 4457.13000000 6526.51000000 4603.56000000
v 3676.01000000 4705.59000000 4694.52000000
v 3560.90000000 4847.07000000 4604.64000000
v 4005.52000000 4876.06000000 4650.66000000
v 4093.63000000 4911.43000000 4636.43000000
v 3480.81000000 5000.21000000 4588.16000000
v 4642.17000000 5139.11000000 4615.88000000
v 4710.91000000 5245.86000000 4549.12000000
v 4485.61000000 5256.79000000 4616.69000000
v 4566.22000000 5238.95000000 4604.81000000
v 4593.56000000 5244.94000000 4570.45000000
v 4653.88000000 5243.58000000 4565.30000000
v 4704.12000000 5272.00000000 4546.97000000
v 4742.02000000 5315.09000000 4528.16000000
v 4386.67000000 5301.71000000 4607.99000000
v 4331.05000000 5345.99000000 4598.82000000
v 4357.53000000 5392.41000000 4613.34000000
v 4817.08000000 5521.70000000 4550.19000000
v 4749.87000000 5541.96000000 4571.01000000
v 4614.98000000 5539.85000000 4628.76000000
v 3533.81000000 5641.71000000 4597.60000000
v 4865.67000000 5875.93000000 4573.12000000
v 4781.38000000 6017.54000000 4612.63000000
v 4721.64000000 6041.71000000 4702.44000000
v 4640.82000000 6336.36000000 4597.64000000
v 4666.88000000 6177.16000000 4691.17000000
v 4579.14000000 6403.71000000 4618.18000000
v 4047.87000000 6554.75000000 4637.14000000
v 4291.44000000 6592.42000000 4586.58000000
v 3754.97000000 4685.50000000 4680.84000000
v 3716.34000000 4696.04000000 4660.71000000
v 3611.27000000 4774.90000000 4657.30000000
v 3880.56000000 4794.13000000 4627.82000000
v 3463.98000000 5090.13000000 4600.49000000
v 3457.70000000 5201.96000000 4646.45000000
v 4659.82000000 5197.00000000 4587.94000000
v 4615.99000000 5220.85000000 4615.95000000
v 3465.91000000 5325.41000000 4631.29000000
v 4471.07000000 5273.86000000 4631.63000000
v 4528.87000000 5257.64000000 4644.45000000
v 4429.92000000 5497.83000000 4601.26000000
v 4705.70000000 5560.17000000 4599.51000000
v 4809.13000000 5578.95000000 4586.01000000
v 3506.24000000 5570.49000000 4630.20000000
v 3483.41000000 5450.05000000 4630.35000000
v 4675.31000000 5556.96000000 4630.52000000
v 4864.85000000 5589.42000000 4566.32000000
v 4893.06000000 5658.81000000 4568.17000000
v 4915.27000000 5728.24000000 4555.93000000
v 4889.67000000 5803.76000000 4563.98000000
v 4170.30000000 6571.94000000 4647.67000000
v 4333.82000000 6566.54000000 4642.92000000
v 3810.18000000 4720.39000000 4658.06000000
v 3506.55000000 4929.55000000 4637.42000000
v 4202.71000000 4922.55000000 4670.23000000
v 3472.35000000 5023.28000000 4651.81000000
v 4641.76000000 5160.79000000 4653.39000000
v 4639.38000000 5200.65000000 4617.32000000
v 4431.20000000 5342.14000000 4646.59000000
v 4490.94000000 5296.93000000 4661.36000000
v 4465.71000000 5447.15000000 4647.64000000
v 4535.94000000 5500.93000000 4642.87000000
v 4757.16000000 5598.74000000 4615.32000000
v 4824.70000000 5641.91000000 4594.86000000
v 3528.75000000 5660.14000000 4678.41000000
v 3556.67000000 5750.64000000 4661.65000000
v 4846.81000000 5733.27000000 4593.51000000
v 4840.05000000 5832.23000000 4596.09000000
v 3578.64000000 5885.64000000 4706.34000000
v 4809.66000000 5901.93000000 4610.62000000
v 3619.41000000 6147.73000000 4694.49000000
v 3757.60000000 6385.35000000 4670.06000000
v 4071.68000000 6550.09000000 4728.24000000
v 4238.72000000 6549.53000000 4725.43000000
v 3549.97000000 4850.06000000 4678.72000000
v 3979.87000000 4818.34000000 4715.89000000
v 4381.96000000 4927.62000000 4756.14000000
v 3486.91000000 4979.88000000 4689.58000000
v 4586.59000000 5044.21000000 4671.79000000
v 3462.47000000 5116.97000000 4680.61000000
v 4635.85000000 5112.03000000 4702.89000000
v 4629.42000000 5193.66000000 4685.92000000
v 4593.64000000 5233.13000000 4669.09000000
v 3458.87000000 5333.60000000 4686.20000000
v 4482.90000000 5384.44000000 4674.52000000
v 4563.28000000 5418.22000000 4710.81000000
v 3466.28000000 5417.06000000 4675.04000000
v 4569.33000000 5467.85000000 4687.92000000
v 3479.42000000 5505.13000000 4690.21000000
v 4621.27000000 5504.30000000 4688.15000000
v 4676.35000000 5545.77000000 4690.18000000
v 4708.53000000 5582.68000000 4655.34000000
v 4786.46000000 5711.38000000 4629.22000000
v 4808.99000000 5805.99000000 4619.46000000
v 4755.84000000 5940.64000000 4679.63000000
v 4745.69000000 5990.64000000 4684.78000000
v 3602.05000000 6054.25000000 4711.51000000
v 3828.14000000 6448.99000000 4723.36000000
v 4378.12000000 6526.79000000 4687.55000000
v 4107.85000000 6548.66000000 4754.58000000
v 3513.54000000 4923.64000000 4698.18000000
v 4446.78000000 4962.93000000 4719.22000000
v 4551.51000000 5011.40000000 4710.06000000
v 4617.20000000 5077.99000000 4696.74000000
v 4536.28000000 5328.00000000 4701.73000000
v 4739.18000000 5685.29000000 4675.90000000
v 3502.32000000 5587.51000000 4708.97000000
v 4765.94000000 5824.66000000 4667.79000000
v 4592.83000000 6240.19000000 4752.11000000
v 4429.53000000 6473.80000000 4719.34000000
v 3929.72000000 6505.93000000 4742.24000000
v 3774.86000000 4661.59000000 4759.93000000
v 3825.31000000 4683.77000000 4760.02000000
v 3739.27000000 4675.99000000 4734.35000000
v 3871.34000000 4739.19000000 4719.08000000
v 3929.31000000 4762.49000000 4744.14000000
v 4061.66000000 4857.38000000 4714.73000000
v 3538.63000000 4891.53000000 4743.13000000
v 4169.67000000 4869.26000000 4749.65000000
v 4259.67000000 4908.12000000 4723.98000000
v 3474.41000000 5058.26000000 4713.48000000
v 4647.27000000 5156.31000000 4767.34000000
v 3459.97000000 5257.18000000 4712.62000000
v 4623.35000000 5246.57000000 4729.60000000
v 4645.62000000 5232.59000000 4760.11000000
v 4565.99000000 5277.36000000 4695.05000000
v 4572.50000000 5365.25000000 4724.10000000
v 4627.45000000 5457.16000000 4728.92000000
v 4706.77000000 5566.53000000 4727.32000000
v 4719.57000000 5633.43000000 4785.06000000
v 3551.28000000 5756.69000000 4763.99000000
v 4732.00000000 5844.03000000 4773.53000000
v 4735.17000000 5758.36000000 4740.12000000
v 4683.60000000 6032.52000000 4785.85000000
v 3692.41000000 6314.53000000 4756.51000000
v 4505.87000000 6342.37000000 4780.73000000
v 4498.84000000 6422.10000000 4699.99000000
v 4120.72000000 6528.80000000 4816.05000000
v 3583.77000000 4810.33000000 4736.71000000
v 3507.40000000 4995.84000000 4752.19000000
v 4483.40000000 4967.29000000 4741.61000000
v 4629.21000000 5076.97000000 4785.99000000
v 3469.14000000 5170.50000000 4737.90000000
v 3469.70000000 5415.09000000 4739.55000000
v 4601.60000000 5314.98000000 4735.59000000
v 4626.00000000 5386.55000000 4753.90000000
v 4661.47000000 5497.00000000 4729.98000000
v 3495.30000000 5549.41000000 4759.23000000
v 4683.84000000 5484.75000000 4765.11000000
v 4731.81000000 5925.31000000 4749.02000000
v 3605.06000000 6124.97000000 4817.91000000
v 3752.23000000 6387.89000000 4765.60000000
v 3989.64000000 6526.37000000 4781.56000000
v 4289.83000000 6525.32000000 4756.74000000
v 3633.33000000 4746.38000000 4745.80000000
v 3976.91000000 4751.70000000 4820.68000000
v 4475.58000000 4951.89000000 4774.81000000
v 4525.95000000 4973.33000000 4776.86000000
v 4587.43000000 5018.50000000 4787.08000000
v 4643.52000000 5313.65000000 4771.60000000
v 4657.43000000 5449.64000000 4758.67000000
v 3524.62000000 5648.25000000 4764.78000000
v 4724.43000000 5708.05000000 4819.54000000
v 3636.97000000 6209.27000000 4817.70000000
v 4318.68000000 6484.10000000 4806.58000000
v 3831.75000000 4668.99000000 4818.05000000
v 3678.68000000 4704.93000000 4777.89000000
v 3725.35000000 4684.46000000 4788.06000000
v 3899.64000000 4715.71000000 4789.19000000
v 3611.49000000 4785.60000000 4782.37000000
v 3581.01000000 4855.10000000 4791.07000000
v 4088.44000000 4811.36000000 4811.15000000
v 4284.99000000 4878.85000000 4796.18000000
v 3554.31000000 4937.57000000 4801.10000000
v 3493.48000000 5160.45000000 4796.24000000
v 3478.81000000 5294.68000000 4785.82000000
v 4666.80000000 5285.74000000 4815.20000000
v 4662.58000000 5391.48000000 4786.62000000
v 3507.96000000 5522.32000000 4833.79000000
v 4692.23000000 5453.60000000 4814.67000000
v 4632.11000000 6056.12000000 4852.55000000
v 4424.20000000 6405.07000000 4809.48000000
v 4038.68000000 6528.06000000 4814.22000000
v 3782.64000000 4671.54000000 4805.75000000
v 3876.61000000 4688.44000000 4824.07000000
v 3657.48000000 4743.73000000 4805.79000000
v 4219.49000000 4844.98000000 4831.34000000
v 3496.76000000 5279.02000000 4835.69000000
v 3500.39000000 5428.20000000 4834.37000000
v 3549.49000000 5731.37000000 4862.21000000
v 4717.27000000 5719.51000000 4871.64000000
v 3589.19000000 5992.95000000 4861.03000000
v 4494.25000000 6234.16000000 4892.40000000
v 3718.23000000 6350.59000000 4847.12000000
v 4357.03000000 6437.37000000 4838.42000000
v 3770.88000000 6397.81000000 4852.46000000
v 3916.98000000 6496.96000000 4842.02000000
v 3708.11000000 4707.37000000 4821.24000000
v 3925.81000000 4712.04000000 4842.08000000
v 3639.42000000 4799.76000000 4833.44000000
v 4316.90000000 4865.77000000 4853.21000000
v 4391.04000000 4895.13000000 4844.61000000
v 4472.27000000 4930.62000000 4835.83000000
v 4541.66000000 4961.68000000 4870.02000000
v 4621.93000000 5042.15000000 4856.67000000
v 4644.50000000 5102.65000000 4853.32000000
v 3554.76000000 5094.98000000 4868.11000000
v 4662.01000000 5196.71000000 4854.22000000
v 4708.11000000 5526.10000000 4844.65000000
v 3526.09000000 5612.54000000 4838.48000000
v 4711.06000000 5600.71000000 4878.71000000
v 3569.11000000 5839.62000000 4836.08000000
v 4709.10000000 5825.90000000 4855.99000000
v 4677.32000000 5927.83000000 4863.43000000
v 4565.10000000 6118.55000000 4902.28000000
v 3850.19000000 6452.66000000 4838.90000000
v 4207.58000000 6488.85000000 4866.92000000
v 3957.67000000 6500.64000000 4869.81000000
v 3772.15000000 4699.38000000 4857.48000000
v 3897.78000000 4696.49000000 4869.58000000
v 3705.10000000 4746.70000000 4853.20000000
v 4034.76000000 4767.73000000 4868.92000000
v 4191.22000000 4824.83000000 4870.73000000
v 4350.44000000 4870.39000000 4892.22000000
v 3609.91000000 4954.07000000 4876.83000000
v 3539.50000000 5280.32000000 4902.65000000
v 3521.34000000 5378.56000000 4880.29000000
v 4699.93000000 5480.19000000 4880.86000000
v 3540.80000000 5581.92000000 4909.71000000
v 3844.31000000 4688.99000000 4863.81000000
v 3967.51000000 4735.32000000 4874.74000000
v 3697.91000000 4863.77000000 4916.84000000
v 4121.09000000 4802.53000000 4897.18000000
v 4265.15000000 4847.73000000 4871.99000000
v 4433.43000000 4905.27000000 4897.51000000
v 4594.24000000 5007.26000000 4888.61000000
v 4678.74000000 5329.70000000 4898.76000000
v 3545.15000000 5502.11000000 4929.24000000
v 3558.08000000 5692.84000000 4937.40000000
v 3606.59000000 6106.37000000 4905.43000000
v 3674.77000000 6278.89000000 4890.55000000
v 4351.17000000 6368.42000000 4925.84000000
v 4430.17000000 6321.62000000 4886.22000000
v 3723.06000000 6324.11000000 4950.80000000
v 4100.68000000 6485.59000000 4919.98000000
v 3888.51000000 4701.34000000 4895.62000000
v 4022.66000000 4764.41000000 4913.33000000
v 4249.55000000 4842.96000000 4910.40000000
v 4495.30000000 4934.59000000 4899.78000000
v 4560.60000000 4987.21000000 4946.11000000
v 4630.57000000 5069.98000000 4922.13000000
v 4655.07000000 5171.82000000 4922.16000000
v 3590.41000000 5249.92000000 4972.55000000
v 3795.70000000 6391.50000000 4937.17000000
v 4278.19000000 6416.20000000 4927.70000000
v 3867.77000000 6435.21000000 4931.51000000
v 4026.38000000 6490.55000000 4908.54000000
v 3863.27000000 4731.62000000 4922.94000000
v 3778.08000000 4778.01000000 4917.76000000
v 3936.76000000 4735.00000000 4912.68000000
v 4160.95000000 4825.16000000 4942.61000000
v 4360.17000000 4883.83000000 4931.90000000
v 3686.21000000 5022.71000000 4989.34000000
v 4523.13000000 4954.40000000 4918.71000000
v 4603.78000000 5038.49000000 4951.54000000
v 3630.37000000 5137.39000000 4975.45000000
v 3563.12000000 5409.51000000 4959.16000000
v 4687.47000000 5444.54000000 4954.25000000
v 3571.67000000 5843.67000000 4914.04000000
v 4632.90000000 5921.55000000 4950.30000000
v 4575.73000000 6012.86000000 4974.94000000
v 3635.39000000 6169.85000000 4972.79000000
v 4015.99000000 4777.26000000 4948.11000000
v 4083.89000000 4799.96000000 4937.58000000
v 4254.37000000 4865.11000000 4961.03000000
v 3733.81000000 4947.39000000 4993.94000000
v 4469.87000000 4940.77000000 4946.87000000
v 4642.58000000 5160.21000000 5003.25000000
v 4684.45000000 5586.84000000 4978.42000000
v 3590.69000000 5967.06000000 4960.34000000
v 4493.57000000 6111.51000000 5002.08000000
v 4402.03000000 6237.39000000 4994.44000000
v 4197.12000000 6423.09000000 4977.28000000
v 3925.76000000 6434.38000000 4975.67000000
v 3842.34000000 4808.90000000 4975.29000000
v 4002.45000000 4817.65000000 4987.66000000
v 3785.68000000 4903.62000000 5002.15000000
v 4359.64000000 4908.59000000 4972.38000000
v 4622.05000000 5097.16000000 4990.37000000
v 4662.94000000 5290.44000000 4989.79000000
v 3603.07000000 5374.88000000 5014.54000000
v 3579.94000000 5653.21000000 5008.17000000
v 3584.02000000 5822.96000000 4995.79000000
v 4635.43000000 5787.81000000 5007.02000000
v 3609.92000000 6065.66000000 4995.56000000
v 3678.06000000 6239.02000000 4997.15000000
v 4040.70000000 6438.97000000 4998.83000000
v 4126.59000000 6438.51000000 4979.85000000
v 3961.18000000 6413.27000000 5018.27000000
v 3901.96000000 4821.87000000 4995.40000000
v 4125.03000000 4836.39000000 4973.97000000
v 4431.39000000 4960.61000000 5002.48000000
v 4525.13000000 5011.00000000 5004.16000000
v 4587.94000000 5065.31000000 5002.37000000
v 4577.00000000 5901.58000000 5041.06000000
v 4297.62000000 6316.19000000 5020.64000000
v 3774.40000000 6321.84000000 5044.81000000
v 4224.65000000 6362.84000000 5025.93000000
v 3816.28000000 6375.97000000 4995.33000000
v 3848.20000000 6369.69000000 5030.03000000
v 3897.36000000 6354.69000000 5078.42000000
v 3861.11000000 4919.29000000 5050.06000000
v 4142.31000000 4877.07000000 5014.33000000
v 4299.22000000 4939.47000000 5022.15000000
v 3750.18000000 5028.71000000 5046.83000000
v 4615.54000000 5152.04000000 5049.45000000
v 3652.19000000 5285.88000000 5050.61000000
v 4664.15000000 5394.73000000 5029.78000000
v 3608.79000000 5533.76000000 5048.52000000
v 3605.32000000 5965.24000000 5041.38000000
v 3627.55000000 6080.05000000 5062.67000000
v 3708.35000000 6238.38000000 5064.83000000
v 4149.63000000 6355.10000000 5071.57000000
v 3977.50000000 4927.09000000 5065.88000000
v 4186.89000000 4994.55000000 5089.31000000
v 3809.63000000 5011.10000000 5076.90000000
v 4472.67000000 5058.96000000 5070.35000000
v 4558.31000000 5097.80000000 5056.02000000
v 3707.24000000 5173.93000000 5065.92000000
v 4636.65000000 5271.86000000 5067.89000000
v 4623.08000000 5591.53000000 5103.97000000
v 3610.50000000 5820.81000000 5076.54000000
v 3661.52000000 6158.64000000 5067.46000000
v 4059.41000000 6355.90000000 5088.31000000
v 3680.77000000 5497.42000000 5140.31000000
v 4577.84000000 5691.72000000 5140.21000000
v 4499.97000000 5959.44000000 5106.52000000
v 4328.41000000 6191.00000000 5106.22000000
v 3975.79000000 6348.12000000 5096.16000000
v 4120.20000000 5060.90000000 5143.28000000
v 3865.46000000 5022.99000000 5109.64000000
v 4367.38000000 5064.49000000 5103.22000000
v 4548.44000000 5141.58000000 5103.26000000
v 4587.34000000 5165.16000000 5089.98000000
v 4605.89000000 5216.76000000 5101.36000000
v 3709.83000000 5340.87000000 5122.62000000
v 4629.22000000 5435.59000000 5102.93000000
v 3623.36000000 5691.22000000 5098.62000000
v 4541.67000000 5818.29000000 5125.99000000
v 3630.28000000 5960.58000000 5110.17000000
v 4420.12000000 6089.50000000 5097.59000000
v 3748.67000000 6215.35000000 5145.00000000
v 4221.73000000 6269.37000000 5112.92000000
v 3915.91000000 4992.60000000 5102.88000000
v 4026.93000000 5076.60000000 5153.54000000
v 3784.36000000 5145.00000000 5115.15000000
v 4572.13000000 5209.11000000 5131.59000000
v 3660.85000000 5661.30000000 5154.77000000
v 4571.37000000 5597.45000000 5178.77000000
v 3653.32000000 6072.97000000 5128.91000000
v 3820.76000000 6270.20000000 5134.02000000
v 4117.99000000 6264.97000000 5167.23000000
v 4084.34000000 6304.73000000 5136.50000000
v 4274.51000000 5190.52000000 5204.94000000
v 3852.28000000 5115.39000000 5141.55000000
v 4363.96000000 5136.71000000 5154.22000000
v 4480.41000000 5159.59000000 5136.45000000
v 3771.96000000 5301.43000000 5159.21000000
v 4593.50000000 5304.06000000 5141.33000000
v 3764.37000000 5471.36000000 5209.50000000
v 4589.10000000 5513.38000000 5166.60000000
v 3649.86000000 5852.59000000 5151.09000000
v 3660.63000000 6003.17000000 5163.06000000
v 4423.18000000 5985.80000000 5173.69000000
v 3696.12000000 6148.50000000 5139.07000000
v 4343.99000000 6075.41000000 5178.56000000
v 4264.14000000 6161.85000000 5173.09000000
v 3901.25000000 6251.62000000 5180.63000000
v 4014.09000000 6249.42000000 5189.54000000
v 3932.26000000 5108.94000000 5161.51000000
v 3840.46000000 5241.78000000 5182.69000000
v 3684.92000000 6075.98000000 5176.77000000
v 3775.01000000 6173.44000000 5207.44000000
v 4083.75000000 5212.02000000 5225.10000000
v 4154.05000000 5171.37000000 5202.02000000
v 3895.69000000 5188.46000000 5187.49000000
v 4422.50000000 5249.74000000 5210.02000000
v 4526.86000000 5256.95000000 5172.93000000
v 4570.06000000 5411.35000000 5191.09000000
v 4460.15000000 5868.32000000 5196.67000000
v 3982.71000000 5240.95000000 5228.45000000
v 4500.60000000 5316.19000000 5223.29000000
v 4544.92000000 5327.63000000 5192.66000000
v 4530.97000000 5543.04000000 5225.60000000
v 4507.51000000 5715.49000000 5202.43000000
v 3692.96000000 5813.45000000 5212.22000000
v 3710.60000000 5975.46000000 5223.37000000
v 3729.52000000 6114.37000000 5193.91000000
v 4252.59000000 6070.69000000 5243.43000000
v 4173.88000000 6184.93000000 5202.31000000
v 3828.40000000 6170.02000000 5233.57000000
v 4086.73000000 6181.43000000 5238.80000000
v 3908.31000000 5298.82000000 5231.96000000
v 4531.49000000 5372.29000000 5221.69000000
v 3846.83000000 5404.31000000 5240.41000000
v 4525.23000000 5438.10000000 5234.44000000
v 3709.57000000 5693.10000000 5214.68000000
v 4358.33000000 5937.42000000 5246.05000000
v 3917.41000000 6166.97000000 5255.90000000
v 4191.75000000 5262.34000000 5248.80000000
v 4004.64000000 5342.01000000 5273.94000000
v 4116.62000000 5326.76000000 5276.44000000
v 4287.93000000 5337.50000000 5272.70000000
v 4431.75000000 5348.46000000 5257.65000000
v 4488.44000000 5393.60000000 5249.53000000
v 3822.46000000 5575.35000000 5286.44000000
v 3759.15000000 5628.94000000 5245.71000000
v 3750.30000000 5815.50000000 5264.00000000
v 4430.22000000 5796.96000000 5245.93000000
v 3773.04000000 6085.48000000 5250.75000000
v 4155.65000000 6118.66000000 5257.92000000
v 3951.27000000 5411.59000000 5285.46000000
v 4452.96000000 5413.89000000 5273.24000000
v 4463.55000000 5497.80000000 5272.39000000
v 4452.88000000 5663.69000000 5259.71000000
v 3764.63000000 5963.25000000 5275.24000000
v 4260.30000000 5986.64000000 5285.33000000
v 4165.76000000 6055.11000000 5290.78000000
v 3843.33000000 6091.01000000 5290.71000000
v 4070.28000000 6107.37000000 5290.83000000
v 4004.09000000 6158.85000000 5261.25000000
v 4047.44000000 5450.52000000 5317.74000000
v 3964.36000000 5519.37000000 5328.45000000
v 4386.09000000 5431.16000000 5290.86000000
v 3895.58000000 5531.80000000 5306.49000000
v 4393.45000000 5521.66000000 5305.35000000
v 4401.17000000 5619.20000000 5299.56000000
v 3806.84000000 5738.10000000 5304.31000000
v 4373.23000000 5773.78000000 5287.80000000
v 4295.34000000 5901.55000000 5295.21000000
v 3795.88000000 5907.61000000 5305.46000000
v 3800.20000000 6013.27000000 5290.42000000
v 4170.23000000 5426.78000000 5312.14000000
v 4258.29000000 5471.39000000 5320.31000000
v 4333.35000000 5517.44000000 5319.59000000
v 4350.62000000 5581.72000000 5320.64000000
v 3870.26000000 5671.18000000 5329.27000000
v 4323.18000000 5682.40000000 5324.39000000
v 4268.84000000 5822.46000000 5322.82000000
v 4186.87000000 5962.18000000 5315.60000000
v 3829.29000000 5985.51000000 5314.99000000
v 4084.78000000 6044.95000000 5313.86000000
v 3875.71000000 5993.06000000 5332.57000000
v 3974.47000000 6075.76000000 5303.73000000
v 3991.45000000 5588.75000000 5350.27000000
v 4126.86000000 5549.05000000 5341.93000000
v 3927.37000000 5605.93000000 5336.32000000
v 4261.48000000 5592.76000000 5335.87000000
v 4223.79000000 5735.78000000 5344.43000000
v 3919.34000000 5740.14000000 5352.87000000
v 3853.15000000 5847.75000000 5328.36000000
v 4153.56000000 5866.26000000 5343.23000000
v 4062.95000000 5981.76000000 5330.82000000
v 4039.02000000 5897.13000000 5354.51000000
v 3903.65000000 5904.02000000 5345.05000000
v 3964.97000000 5957.79000000 5339.03000000
v 4123.57000000 5691.28000000 5355.41000000
v 4018.40000000 5715.49000000 5356.62000000
v 4050.42000000 5794.37000000 5360.72000000
v 4117.48000000 5797.11000000 5351.62000000
v 3982.96000000 5834.91000000 5351.34000000
f 1 2 3
f 3 2 4
f 5 1 6
f 6 1 7
f 8 2 5
f 1 5 2
f 2 8 4
f 4 8 9
f 3 7 1
f 3 10 7
f 9 11 4
f 12 10 3
f 3 4 13
f 14 3 13
f 12 3 14
f 13 4 11
f 6 8 5
f 6 7 15
f 9 8 16
f 9 16 17
f 17 11 9
f 12 14 18
f 11 19 13
f 14 13 19
f 18 14 20
f 21 6 22
f 6 15 23
f 21 24 25
f 8 21 25
f 6 21 8
f 25 24 26
f 8 25 16
f 10 27 7
f 25 26 16
f 16 26 28
f 27 10 29
f 16 28 17
f 10 12 29
f 17 30 11
f 31 12 18
f 19 11 30
f 19 20 14
f 24 21 32
f 6 23 22
f 15 33 23
f 32 34 24
f 15 7 35
f 24 34 26
f 7 27 35
f 29 12 31
f 28 36 17
f 17 36 30
f 18 37 31
f 18 20 37
f 19 38 20
f 20 38 37
f 38 19 39
f 39 19 30
f 32 21 40
f 40 21 22
f 23 41 22
f 23 33 41
f 35 33 15
f 34 42 43
f 34 43 26
f 26 43 28
f 43 44 28
f 45 31 37
f 30 36 46
f 37 38 47
f 38 39 48
f 48 47 38
f 39 30 46
f 48 39 46
f 49 22 41
f 50 51 42
f 34 50 42
f 40 50 34
f 32 40 34
f 42 51 52
f 42 52 43
f 28 44 53
f 28 53 36
f 47 45 37
f 46 36 54
f 46 54 55
f 46 55 48
f 55 56 48
f 56 47 48
f 40 22 57
f 57 22 49
f 51 58 59
f 51 50 58
f 33 60 41
f 51 59 52
f 61 33 35
f 62 35 27
f 44 52 63
f 43 52 44
f 29 31 64
f 31 45 64
f 56 55 65
f 58 40 57
f 58 66 59
f 40 58 50
f 60 49 41
f 33 61 60
f 59 67 52
f 52 67 68
f 62 27 69
f 27 29 69
f 52 68 63
f 53 44 63
f 53 63 70
f 53 71 36
f 53 70 71
f 64 45 72
f 71 73 36
f 36 73 54
f 47 74 45
f 45 74 72
f 47 56 74
f 54 73 75
f 54 75 55
f 56 76 74
f 76 56 65
f 77 55 75
f 65 55 77
f 57 78 58
f 49 79 57
f 57 79 78
f 66 80 59
f 80 81 67
f 80 67 59
f 61 35 82
f 83 67 81
f 35 62 82
f 68 67 83
f 84 68 83
f 68 84 63
f 85 80 66
f 58 86 66
f 58 78 86
f 49 60 79
f 81 80 87
f 88 60 61
f 82 88 61
f 84 89 63
f 63 89 70
f 89 90 70
f 64 72 91
f 71 70 90
f 73 71 90
f 72 74 92
f 73 93 75
f 94 74 65
f 74 76 65
f 65 77 95
f 80 85 87
f 86 85 66
f 86 78 96
f 79 96 78
f 87 97 81
f 81 97 83
f 83 98 84
f 84 99 89
f 90 100 73
f 73 101 93
f 100 101 73
f 72 92 91
f 93 102 77
f 75 93 77
f 65 95 94
f 86 103 85
f 97 98 83
f 69 29 64
f 98 104 84
f 105 89 99
f 89 105 90
f 90 105 106
f 90 106 100
f 106 107 100
f 101 100 108
f 74 109 92
f 93 101 102
f 94 109 74
f 77 102 110
f 95 77 111
f 112 103 86
f 96 113 86
f 79 114 96
f 60 114 79
f 115 97 116
f 97 115 98
f 105 99 117
f 100 107 108
f 101 118 102
f 94 95 119
f 77 110 111
f 87 85 120
f 120 85 103
f 97 120 116
f 87 120 97
f 115 104 98
f 84 104 99
f 104 117 99
f 121 105 117
f 105 121 106
f 91 92 122
f 101 108 123
f 119 109 94
f 95 111 124
f 125 120 103
f 116 126 115
f 69 64 127
f 64 91 128
f 121 129 106
f 106 129 107
f 92 109 130
f 130 109 119
f 131 130 119
f 102 118 132
f 110 102 132
f 95 124 133
f 119 95 133
f 134 110 132
f 111 110 134
f 124 111 135
f 125 103 112
f 96 136 113
f 88 137 60
f 138 137 88
f 82 138 88
f 139 138 82
f 139 82 62
f 116 140 126
f 62 69 139
f 139 69 141
f 141 69 127
f 115 126 104
f 126 142 104
f 143 121 117
f 121 144 129
f 107 129 145
f 108 107 145
f 123 108 145
f 101 123 118
f 123 132 118
f 132 123 146
f 111 134 135
f 147 125 112
f 113 112 86
f 148 120 125
f 113 149 112
f 60 137 114
f 120 150 116
f 150 151 116
f 116 151 140
f 104 142 143
f 143 142 152
f 104 143 117
f 143 144 121
f 131 119 133
f 132 146 153
f 134 132 153
f 120 148 150
f 91 122 128
f 144 154 155
f 144 155 129
f 129 155 156
f 156 145 129
f 124 135 157
f 124 157 133
f 146 123 145
f 148 147 158
f 148 125 147
f 147 112 159
f 151 150 158
f 148 158 150
f 140 151 160
f 126 140 142
f 92 130 122
f 145 156 161
f 161 146 145
f 135 134 162
f 135 162 157
f 134 153 163
f 158 164 165
f 164 158 147
f 147 159 166
f 113 136 149
f 165 151 158
f 142 140 167
f 167 152 142
f 143 154 144
f 155 154 168
f 168 156 155
f 169 131 133
f 170 162 134
f 146 161 171
f 171 153 146
f 170 134 163
f 153 171 172
f 163 153 172
f 147 173 164
f 147 166 173
f 96 174 136
f 96 114 174
f 137 175 114
f 137 176 175
f 138 176 137
f 177 176 138
f 165 178 151
f 138 139 177
f 178 160 151
f 167 140 160
f 143 179 154
f 131 169 130
f 168 180 156
f 161 156 181
f 163 172 182
f 164 183 165
f 159 112 149
f 165 183 178
f 154 179 184
f 130 185 122
f 130 169 185
f 154 184 168
f 186 169 133
f 157 187 133
f 156 180 181
f 161 181 171
f 163 188 170
f 172 171 189
f 163 182 188
f 190 183 164
f 173 191 164
f 166 191 173
f 183 192 178
f 159 193 166
f 175 176 194
f 114 175 174
f 139 141 195
f 167 160 196
f 167 197 152
f 152 198 143
f 198 179 143
f 133 187 186
f 162 199 157
f 200 171 181
f 182 172 189
f 201 190 202
f 190 201 183
f 183 201 203
f 183 203 192
f 190 164 191
f 193 159 149
f 175 194 204
f 149 136 193
f 194 176 177
f 205 177 139
f 178 206 160
f 192 206 178
f 139 195 205
f 206 196 160
f 197 198 152
f 185 169 207
f 168 184 208
f 180 168 209
f 207 169 186
f 157 199 187
f 170 188 199
f 188 210 199
f 199 162 170
f 182 189 211
f 182 211 188
f 212 213 201
f 203 213 214
f 201 213 203
f 191 202 190
f 206 203 214
f 191 215 202
f 215 191 166
f 203 206 192
f 166 193 215
f 216 174 175
f 207 217 185
f 168 208 209
f 180 209 181
f 171 200 218
f 171 218 189
f 219 212 220
f 220 212 221
f 212 201 221
f 201 202 221
f 213 212 214
f 212 219 214
f 202 215 222
f 175 204 216
f 223 196 206
f 224 196 223
f 196 224 167
f 64 128 127
f 128 122 225
f 225 122 185
f 184 179 226
f 208 184 226
f 207 186 227
f 187 228 186
f 181 209 229
f 211 189 230
f 220 231 232
f 231 220 221
f 219 232 233
f 220 232 219
f 202 234 221
f 214 219 233
f 223 214 233
f 214 223 206
f 194 235 204
f 136 236 193
f 224 237 167
f 167 237 197
f 197 237 198
f 198 238 226
f 198 226 179
f 185 217 239
f 187 199 228
f 181 229 200
f 189 218 230
f 232 240 233
f 241 234 202
f 222 241 202
f 215 242 222
f 193 236 215
f 235 194 177
f 243 235 177
f 136 174 236
f 177 205 243
f 127 128 244
f 238 198 237
f 225 185 239
f 207 227 217
f 186 228 245
f 210 246 199
f 199 246 228
f 200 247 218
f 211 248 249
f 188 211 249
f 188 249 210
f 250 251 231
f 232 251 240
f 231 251 232
f 221 252 231
f 221 234 252
f 215 236 242
f 253 216 254
f 253 236 174
f 216 253 174
f 224 223 255
f 237 224 255
f 226 238 256
f 208 226 257
f 258 217 227
f 245 227 186
f 229 209 259
f 247 200 260
f 200 229 260
f 246 210 249
f 211 230 248
f 251 261 262
f 251 262 240
f 250 261 251
f 250 231 252
f 240 263 233
f 234 241 252
f 252 241 264
f 223 233 263
f 222 265 241
f 222 242 265
f 236 266 242
f 204 254 216
f 255 223 267
f 256 257 226
f 208 257 268
f 208 268 209
f 230 218 269
f 261 270 271
f 261 271 262
f 261 250 272
f 262 263 240
f 250 252 272
f 263 273 223
f 265 264 241
f 273 267 223
f 242 274 265
f 274 242 266
f 204 235 275
f 236 253 266
f 237 255 276
f 277 239 217
f 209 278 259
f 279 245 228
f 228 246 279
f 229 259 260
f 249 280 246
f 269 218 247
f 280 249 248
f 230 269 281
f 282 283 284
f 283 282 285
f 283 285 286
f 271 287 288
f 289 287 271
f 290 271 288
f 270 289 271
f 263 271 290
f 262 271 263
f 272 291 292
f 291 272 252
f 264 291 252
f 293 291 264
f 264 294 295
f 264 265 294
f 253 296 266
f 255 267 297
f 276 255 297
f 238 237 298
f 256 238 299
f 300 257 256
f 217 258 277
f 209 268 278
f 245 301 227
f 258 227 301
f 302 303 304
f 305 304 306
f 302 304 282
f 282 304 305
f 284 302 282
f 307 302 284
f 305 285 282
f 308 307 284
f 309 285 305
f 310 308 284
f 311 285 309
f 285 311 286
f 284 283 310
f 310 283 287
f 283 286 287
f 289 310 287
f 290 288 311
f 311 288 286
f 286 288 287
f 312 313 289
f 270 312 289
f 270 261 312
f 272 312 261
f 272 292 312
f 291 314 292
f 295 293 264
f 265 274 294
f 274 315 294
f 266 316 274
f 266 296 316
f 253 254 296
f 317 235 243
f 318 243 205
f 195 141 244
f 244 141 127
f 298 237 276
f 258 319 277
f 320 245 279
f 248 321 280
f 230 281 248
f 303 322 323
f 324 303 302
f 306 323 325
f 326 306 325
f 304 303 323
f 323 306 304
f 305 306 326
f 309 305 326
f 308 310 289
f 313 308 289
f 327 290 311
f 328 313 312
f 329 290 327
f 292 328 312
f 314 328 292
f 291 330 314
f 263 290 329
f 330 291 293
f 330 293 295
f 315 274 331
f 332 267 273
f 254 275 333
f 254 204 275
f 235 317 275
f 334 267 332
f 243 318 317
f 318 205 195
f 297 267 334
f 244 128 225
f 238 298 299
f 239 335 225
f 299 300 256
f 258 301 336
f 337 301 320
f 320 301 245
f 260 259 338
f 269 247 339
f 281 269 340
f 248 281 321
f 322 341 325
f 324 342 322
f 322 325 323
f 303 324 322
f 324 302 343
f 302 307 343
f 309 326 344
f 345 343 307
f 307 308 345
f 346 345 308
f 347 309 344
f 327 309 347
f 346 308 348
f 348 308 313
f 309 327 311
f 328 348 313
f 349 348 328
f 314 349 328
f 314 330 349
f 329 273 263
f 330 295 350
f 295 294 350
f 274 316 331
f 254 333 296
f 296 333 351
f 275 317 352
f 353 297 334
f 276 297 353
f 244 225 354
f 239 277 335
f 319 258 336
f 301 337 336
f 260 338 355
f 247 260 355
f 247 355 339
f 269 339 340
f 356 357 341
f 358 356 341
f 342 358 341
f 359 358 342
f 360 341 357
f 342 341 322
f 359 342 324
f 341 360 325
f 343 359 324
f 325 360 361
f 326 325 361
f 362 326 361
f 344 326 362
f 363 343 345
f 364 346 348
f 365 348 349
f 327 347 366
f 330 365 349
f 330 350 367
f 332 329 368
f 329 332 273
f 315 350 294
f 316 296 369
f 277 370 335
f 299 371 300
f 257 300 372
f 373 268 257
f 259 374 338
f 279 246 280
f 321 375 280
f 358 376 356
f 359 376 358
f 377 359 343
f 378 344 362
f 379 363 345
f 345 346 380
f 345 380 379
f 378 347 344
f 364 380 346
f 381 347 378
f 348 382 364
f 348 365 382
f 381 366 347
f 383 365 330
f 367 383 330
f 368 327 366
f 327 368 329
f 384 367 350
f 334 332 385
f 369 331 316
f 296 351 369
f 333 275 386
f 352 386 275
f 352 317 387
f 353 388 276
f 298 276 388
f 371 372 300
f 268 373 389
f 390 336 337
f 268 389 278
f 259 278 374
f 321 281 375
f 391 392 356
f 376 391 356
f 391 376 359
f 356 392 357
f 392 393 357
f 393 394 357
f 357 394 360
f 394 361 360
f 395 377 343
f 343 363 395
f 361 396 362
f 396 378 362
f 365 397 382
f 398 365 383
f 384 383 367
f 332 368 399
f 315 384 350
f 315 400 384
f 318 195 401
f 402 334 385
f 195 244 401
f 354 225 403
f 403 225 335
f 404 299 298
f 336 390 405
f 257 372 373
f 337 320 406
f 278 407 374
f 408 320 279
f 280 375 409
f 339 410 340
f 411 412 392
f 411 392 391
f 391 413 411
f 393 392 412
f 359 413 391
f 413 359 377
f 395 363 414
f 396 415 378
f 379 380 416
f 416 380 382
f 382 380 364
f 417 416 382
f 415 381 378
f 397 417 382
f 397 365 398
f 381 415 418
f 381 418 366
f 418 419 366
f 419 420 366
f 421 422 383
f 366 420 368
f 384 421 383
f 420 399 368
f 384 400 423
f 385 332 399
f 331 400 315
f 386 351 333
f 387 317 318
f 387 318 401
f 402 353 334
f 319 336 405
f 278 389 407
f 337 406 390
f 408 406 320
f 338 374 424
f 280 409 279
f 338 424 355
f 339 355 425
f 340 426 281
f 412 427 393
f 428 413 377
f 393 427 429
f 393 429 394
f 428 377 395
f 430 396 361
f 383 422 398
f 399 420 431
f 421 384 432
f 432 384 423
f 400 331 433
f 331 369 433
f 434 369 351
f 352 435 386
f 435 352 387
f 277 319 436
f 404 371 299
f 408 279 409
f 339 425 410
f 412 437 427
f 412 411 438
f 437 412 438
f 411 439 438
f 411 413 439
f 413 428 439
f 394 440 361
f 414 363 441
f 363 379 441
f 415 396 442
f 443 415 442
f 397 398 444
f 415 443 445
f 422 444 398
f 445 418 415
f 445 446 418
f 418 446 419
f 422 421 447
f 419 446 420
f 446 431 420
f 421 432 447
f 431 448 449
f 431 449 399
f 433 450 400
f 399 451 385
f 433 369 434
f 452 386 453
f 386 452 351
f 386 435 453
f 387 401 454
f 388 353 455
f 298 388 455
f 277 436 370
f 405 390 456
f 457 390 406
f 355 424 458
f 281 459 375
f 438 439 460
f 440 394 461
f 462 395 414
f 462 414 463
f 464 361 440
f 361 464 430
f 442 396 430
f 416 441 379
f 416 417 465
f 417 397 466
f 442 467 443
f 444 466 397
f 422 468 444
f 469 470 445
f 422 447 468
f 446 445 470
f 470 471 446
f 472 446 471
f 446 473 431
f 472 473 446
f 431 473 448
f 399 449 474
f 400 450 423
f 474 475 399
f 399 475 451
f 433 434 476
f 452 434 351
f 454 435 387
f 385 451 477
f 402 385 477
f 478 353 402
f 455 353 478
f 404 298 479
f 404 480 371
f 371 481 372
f 457 482 390
f 340 410 483
f 340 483 426
f 281 426 459
f 484 437 438
f 437 485 427
f 428 486 439
f 487 394 429
f 441 488 414
f 464 489 430
f 441 416 490
f 489 442 430
f 466 465 417
f 443 491 445
f 444 468 492
f 445 491 493
f 445 493 469
f 494 471 470
f 494 472 471
f 495 472 494
f 495 496 472
f 476 450 433
f 497 452 453
f 497 434 452
f 455 479 298
f 436 319 405
f 481 371 480
f 389 373 498
f 389 498 407
f 408 499 406
f 437 484 485
f 460 500 438
f 460 439 501
f 427 485 429
f 501 439 486
f 486 428 502
f 502 428 395
f 463 414 488
f 488 441 490
f 416 465 490
f 503 443 467
f 468 504 492
f 505 469 493
f 504 468 506
f 505 470 469
f 506 468 447
f 470 505 494
f 507 494 505
f 507 495 494
f 508 495 507
f 432 506 447
f 508 496 495
f 509 506 432
f 472 510 473
f 472 496 510
f 509 432 423
f 449 448 511
f 512 509 423
f 449 511 474
f 450 512 423
f 474 513 475
f 513 474 511
f 497 453 514
f 497 476 434
f 453 435 454
f 453 454 514
f 477 478 402
f 478 515 455
f 335 516 403
f 335 370 516
f 479 455 515
f 479 517 404
f 517 480 404
f 405 518 436
f 405 456 518
f 390 482 456
f 481 373 372
f 355 458 519
f 425 355 519
f 500 484 438
f 429 485 520
f 395 462 502
f 394 487 461
f 521 462 463
f 463 488 522
f 463 522 521
f 464 440 523
f 490 524 488
f 465 466 525
f 442 489 467
f 444 525 466
f 525 444 492
f 443 503 491
f 493 491 526
f 526 527 493
f 505 493 527
f 505 527 528
f 507 505 528
f 529 507 528
f 529 530 507
f 530 508 507
f 496 508 531
f 530 531 508
f 496 531 510
f 532 473 510
f 533 509 512
f 448 534 511
f 473 534 448
f 533 512 535
f 450 535 512
f 535 450 476
f 536 535 476
f 475 537 451
f 497 536 476
f 477 451 538
f 370 436 516
f 515 539 479
f 406 540 457
f 424 541 458
f 375 542 409
f 542 375 459
f 500 460 543
f 460 501 543
f 544 485 484
f 545 487 429
f 502 462 546
f 525 547 465
f 489 548 467
f 506 549 504
f 550 529 528
f 551 529 550
f 551 530 529
f 552 530 551
f 553 531 530
f 552 553 530
f 531 554 510
f 553 554 531
f 509 533 555
f 554 556 510
f 556 532 510
f 532 534 473
f 534 557 511
f 557 513 511
f 475 513 537
f 497 514 558
f 559 514 454
f 454 401 559
f 559 401 244
f 560 477 538
f 477 560 478
f 354 403 561
f 562 515 478
f 517 479 539
f 563 480 517
f 481 480 563
f 499 540 406
f 499 408 564
f 425 519 410
f 544 484 565
f 484 500 565
f 566 543 501
f 544 520 485
f 501 486 566
f 545 429 520
f 567 461 487
f 568 461 567
f 546 462 521
f 523 461 568
f 461 523 440
f 522 488 524
f 523 569 464
f 465 570 490
f 547 570 465
f 525 571 572
f 525 492 571
f 467 548 573
f 503 467 573
f 504 574 492
f 491 503 575
f 576 574 504
f 491 575 526
f 526 575 577
f 527 526 577
f 527 577 578
f 528 527 550
f 551 550 579
f 509 549 506
f 555 549 509
f 553 552 580
f 581 554 553
f 556 582 532
f 533 535 583
f 534 532 557
f 513 584 537
f 497 585 536
f 558 585 497
f 514 559 558
f 451 537 538
f 559 244 586
f 244 354 586
f 586 354 561
f 560 562 478
f 515 587 539
f 436 588 516
f 589 517 539
f 373 481 590
f 373 590 498
f 457 591 482
f 540 591 457
f 409 592 408
f 592 409 542
f 593 565 500
f 500 543 593
f 544 594 520
f 566 486 595
f 568 569 523
f 596 464 569
f 525 572 547
f 489 464 596
f 489 596 548
f 574 571 492
f 503 573 575
f 577 575 597
f 597 598 577
f 527 599 550
f 527 578 599
f 579 600 601
f 550 600 579
f 601 551 579
f 602 551 601
f 552 551 602
f 552 602 580
f 603 549 555
f 603 555 604
f 604 555 533
f 556 605 582
f 554 606 556
f 556 606 605
f 533 583 604
f 532 607 557
f 582 607 532
f 536 583 535
f 583 536 585
f 585 558 608
f 557 584 513
f 558 559 609
f 538 537 610
f 561 403 516
f 562 587 515
f 588 518 611
f 588 436 518
f 563 517 589
f 481 563 590
f 482 591 612
f 424 374 541
f 458 541 613
f 564 408 592
f 519 614 410
f 544 565 615
f 593 616 565
f 593 543 566
f 520 617 545
f 545 618 487
f 567 487 618
f 521 522 619
f 524 490 620
f 570 620 490
f 621 547 572
f 572 571 622
f 548 596 623
f 548 623 573
f 573 623 624
f 575 573 625
f 573 624 625
f 578 577 598
f 626 599 578
f 549 576 504
f 627 576 549
f 600 550 599
f 627 549 603
f 580 581 553
f 581 580 628
f 581 606 554
f 583 629 604
f 607 582 630
f 631 607 630
f 605 630 582
f 584 557 632
f 557 607 632
f 584 632 610
f 558 609 608
f 584 610 537
f 609 559 633
f 586 633 559
f 538 610 560
f 456 634 518
f 612 456 482
f 541 374 635
f 636 615 565
f 616 636 565
f 637 593 566
f 520 638 617
f 594 638 520
f 595 637 566
f 595 486 502
f 502 546 639
f 619 640 521
f 640 546 521
f 524 619 522
f 620 570 641
f 547 641 570
f 621 641 547
f 642 596 569
f 571 574 622
f 596 642 643
f 623 596 643
f 597 575 625
f 597 625 644
f 598 597 644
f 598 645 626
f 626 578 598
f 600 599 601
f 646 601 599
f 601 646 647
f 648 601 647
f 649 627 603
f 648 602 601
f 650 602 648
f 580 602 650
f 580 650 628
f 604 629 603
f 606 651 652
f 581 651 606
f 628 653 581
f 653 651 581
f 583 654 629
f 654 583 585
f 605 655 630
f 606 655 605
f 606 652 655
f 607 631 632
f 632 656 610
f 560 610 657
f 658 560 657
f 560 658 562
f 516 659 561
f 612 634 456
f 590 660 498
f 635 374 407
f 410 661 483
f 483 662 426
f 542 459 663
f 664 636 616
f 593 637 616
f 595 502 639
f 639 546 640
f 524 620 665
f 619 524 665
f 572 666 621
f 569 568 667
f 569 667 642
f 574 668 622
f 574 669 668
f 669 574 576
f 576 670 669
f 623 671 624
f 671 672 624
f 624 672 625
f 672 673 625
f 625 673 644
f 598 644 674
f 645 675 626
f 576 627 670
f 676 644 673
f 626 677 599
f 626 675 677
f 599 677 646
f 678 670 627
f 649 678 627
f 650 648 679
f 649 603 629
f 650 680 628
f 628 680 653
f 681 682 631
f 630 681 631
f 681 630 683
f 630 655 683
f 654 585 684
f 631 682 632
f 585 608 684
f 609 684 608
f 682 656 632
f 610 656 685
f 657 610 685
f 562 686 587
f 588 687 516
f 587 688 539
f 611 518 634
f 589 689 563
f 563 690 590
f 590 690 660
f 498 691 407
f 613 519 458
f 663 692 542
f 692 592 542
f 459 426 663
f 426 662 663
f 664 616 693
f 694 544 615
f 694 594 544
f 616 637 693
f 618 545 617
f 640 619 695
f 567 618 696
f 620 641 665
f 665 641 697
f 567 698 568
f 696 698 567
f 641 621 699
f 700 667 568
f 643 701 702
f 643 642 701
f 623 643 703
f 623 703 671
f 645 598 704
f 598 674 704
f 645 704 705
f 675 645 705
f 706 707 672
f 672 707 673
f 676 673 707
f 674 644 676
f 708 674 676
f 709 671 703
f 672 671 709
f 706 672 709
f 710 646 677
f 710 647 646
f 711 678 712
f 706 709 713
f 707 706 714
f 714 706 713
f 712 678 649
f 648 647 710
f 715 648 710
f 716 712 649
f 714 713 717
f 715 679 648
f 649 629 716
f 718 713 719
f 717 713 718
f 716 629 720
f 721 650 679
f 718 719 682
f 722 717 718
f 650 721 680
f 629 654 720
f 682 719 723
f 681 718 682
f 681 683 718
f 722 718 683
f 722 683 724
f 654 684 725
f 652 726 655
f 652 727 726
f 651 727 652
f 653 728 651
f 651 728 727
f 682 723 656
f 729 684 609
f 656 723 685
f 609 633 730
f 633 586 731
f 586 561 731
f 562 658 732
f 659 516 733
f 516 687 733
f 686 688 587
f 688 734 539
f 407 691 635
f 499 735 540
f 410 614 661
f 636 736 615
f 636 664 736
f 694 638 594
f 695 737 640
f 696 618 738
f 619 665 695
f 697 641 699
f 621 666 699
f 698 700 568
f 572 622 666
f 667 700 701
f 642 667 701
f 668 739 622
f 668 669 739
f 643 702 703
f 669 670 740
f 670 711 740
f 702 741 703
f 708 704 674
f 670 678 711
f 741 709 703
f 742 711 712
f 714 743 707
f 707 743 676
f 741 744 709
f 743 714 745
f 719 709 744
f 709 719 713
f 745 714 717
f 719 744 746
f 722 745 717
f 747 745 722
f 721 679 748
f 715 748 679
f 719 746 723
f 721 749 680
f 654 725 720
f 750 723 746
f 747 722 724
f 724 655 751
f 680 749 653
f 685 723 750
f 655 724 683
f 749 728 653
f 684 729 752
f 685 750 753
f 730 729 609
f 657 685 753
f 753 658 657
f 732 658 754
f 731 561 659
f 562 732 686
f 588 755 687
f 588 611 755
f 539 734 589
f 612 756 634
f 690 563 689
f 612 591 756
f 660 691 498
f 591 540 757
f 735 499 564
f 692 564 592
f 483 661 662
f 694 615 758
f 615 736 758
f 664 759 736
f 595 639 760
f 640 737 639
f 665 761 695
f 666 622 762
f 622 739 763
f 739 669 764
f 669 740 764
f 702 701 741
f 740 711 765
f 711 742 765
f 705 704 766
f 675 705 766
f 675 766 767
f 677 675 768
f 676 769 708
f 677 770 710
f 742 712 771
f 743 769 676
f 710 770 772
f 712 716 773
f 745 774 743
f 769 743 774
f 772 715 710
f 715 772 775
f 773 716 776
f 774 745 777
f 744 778 746
f 745 747 777
f 716 720 776
f 746 778 750
f 751 777 747
f 751 747 724
f 751 726 779
f 684 752 725
f 726 751 655
f 728 780 727
f 749 781 728
f 781 780 728
f 753 782 658
f 783 730 633
f 754 658 782
f 633 731 783
f 611 634 755
f 784 589 734
f 540 735 757
f 541 635 613
f 519 613 785
f 614 519 785
f 663 786 692
f 662 661 787
f 662 788 663
f 758 736 789
f 790 693 637
f 638 791 617
f 618 617 792
f 639 737 793
f 738 618 792
f 761 665 794
f 697 794 665
f 696 738 795
f 696 796 698
f 795 796 696
f 666 762 797
f 700 698 796
f 622 763 762
f 764 763 739
f 798 799 700
f 700 799 701
f 764 740 765
f 701 799 741
f 742 800 765
f 704 708 801
f 768 675 767
f 677 768 802
f 677 802 770
f 742 771 800
f 799 803 741
f 769 804 708
f 708 804 801
f 805 804 769
f 773 771 712
f 741 803 744
f 806 771 773
f 803 778 744
f 805 769 807
f 807 769 774
f 773 808 806
f 809 807 774
f 773 776 808
f 809 774 777
f 748 715 775
f 753 778 803
f 751 809 777
f 809 751 810
f 748 811 721
f 752 776 720
f 750 778 753
f 721 811 749
f 725 752 720
f 751 779 810
f 749 812 781
f 749 811 812
f 727 813 726
f 780 814 727
f 727 814 813
f 729 815 752
f 729 730 815
f 816 783 731
f 817 732 754
f 816 731 659
f 733 818 659
f 819 733 687
f 687 755 819
f 589 820 689
f 690 821 660
f 591 757 756
f 691 660 821
f 692 822 564
f 663 788 786
f 736 823 789
f 736 759 823
f 759 664 790
f 790 664 693
f 638 694 791
f 639 793 760
f 695 761 737
f 697 824 794
f 699 825 826
f 699 826 827
f 699 666 825
f 666 797 825
f 797 762 828
f 762 763 828
f 796 829 700
f 830 763 764
f 764 831 830
f 764 765 831
f 765 800 831
f 766 832 767
f 766 704 801
f 832 766 801
f 802 833 770
f 771 806 800
f 833 772 770
f 833 834 772
f 775 772 834
f 808 835 806
f 836 835 808
f 837 836 808
f 838 803 798
f 809 839 807
f 834 748 775
f 808 776 837
f 753 803 838
f 748 840 811
f 840 748 834
f 776 752 837
f 811 840 812
f 752 841 837
f 753 838 782
f 813 779 726
f 781 842 780
f 815 841 752
f 815 783 843
f 815 730 783
f 844 732 817
f 659 818 816
f 733 819 818
f 686 845 688
f 845 734 688
f 634 756 755
f 820 589 784
f 690 846 821
f 735 564 822
f 635 847 613
f 613 847 785
f 786 848 692
f 662 787 788
f 849 694 758
f 790 637 595
f 617 850 792
f 850 617 791
f 851 793 737
f 737 852 851
f 737 761 852
f 792 853 738
f 697 827 824
f 795 738 853
f 699 827 697
f 854 828 763
f 854 763 830
f 798 700 829
f 831 800 855
f 767 832 856
f 768 767 857
f 768 857 858
f 802 859 833
f 859 860 833
f 855 861 860
f 800 861 855
f 800 806 861
f 862 832 801
f 768 858 802
f 801 804 862
f 804 863 862
f 806 835 861
f 799 798 803
f 805 863 804
f 861 833 860
f 863 805 864
f 834 833 861
f 835 834 861
f 805 807 864
f 839 864 807
f 836 834 835
f 810 839 809
f 836 840 834
f 865 840 836
f 836 837 865
f 837 841 865
f 781 812 842
f 840 866 812
f 842 867 780
f 843 841 815
f 782 868 754
f 817 754 868
f 732 844 686
f 819 869 818
f 870 819 755
f 756 871 755
f 820 846 689
f 689 846 690
f 756 872 873
f 756 757 872
f 757 735 874
f 822 692 848
f 785 875 614
f 787 876 788
f 789 823 877
f 758 878 849
f 759 790 823
f 694 879 791
f 790 595 880
f 880 595 760
f 760 793 880
f 761 794 852
f 853 881 795
f 796 795 881
f 796 881 829
f 882 829 881
f 854 830 883
f 855 830 831
f 855 883 830
f 858 884 859
f 883 855 859
f 855 860 859
f 882 885 829
f 886 856 832
f 857 767 887
f 767 856 887
f 859 802 858
f 798 829 885
f 832 862 886
f 813 810 779
f 888 810 813
f 813 814 888
f 842 812 889
f 889 812 866
f 840 865 866
f 866 865 890
f 891 838 892
f 780 867 814
f 842 893 867
f 889 893 842
f 841 894 865
f 894 890 865
f 891 782 838
f 891 868 782
f 841 843 894
f 843 895 894
f 843 783 895
f 783 816 896
f 895 783 896
f 816 818 897
f 896 816 897
f 818 869 897
f 756 873 871
f 757 874 872
f 614 875 898
f 788 899 786
f 614 898 661
f 787 661 876
f 661 898 876
f 878 789 877
f 878 758 789
f 900 823 790
f 694 849 879
f 791 879 850
f 850 901 792
f 792 901 853
f 794 824 902
f 853 901 903
f 881 853 903
f 904 854 883
f 905 904 883
f 859 884 905
f 883 859 905
f 858 857 884
f 863 906 862
f 906 907 862
f 886 862 907
f 906 863 864
f 892 798 885
f 798 892 838
f 908 864 839
f 888 908 839
f 839 810 888
f 909 908 888
f 814 909 888
f 909 814 867
f 910 889 866
f 910 866 890
f 911 910 890
f 894 911 890
f 912 817 868
f 894 895 911
f 912 913 817
f 895 914 911
f 895 896 914
f 896 897 914
f 817 913 844
f 914 897 915
f 897 869 915
f 844 916 686
f 916 845 686
f 869 819 917
f 917 819 870
f 755 871 870
f 734 918 784
f 784 918 820
f 919 821 846
f 821 919 691
f 874 735 822
f 635 691 847
f 875 920 898
f 921 876 898
f 788 876 899
f 790 880 900
f 922 850 879
f 850 922 901
f 851 923 793
f 827 924 824
f 901 925 903
f 825 797 926
f 797 828 926
f 903 927 881
f 881 927 882
f 928 854 904
f 904 905 929
f 905 884 929
f 884 857 930
f 882 931 885
f 886 887 856
f 887 930 857
f 932 906 864
f 908 932 864
f 908 933 932
f 885 934 892
f 933 908 935
f 936 892 934
f 935 908 909
f 867 937 909
f 936 891 892
f 867 938 937
f 867 893 938
f 939 893 889
f 910 939 889
f 891 912 868
f 911 940 910
f 911 914 940
f 914 941 940
f 915 941 914
f 917 941 915
f 915 869 917
f 870 942 917
f 870 943 942
f 845 944 734
f 945 691 919
f 875 785 847
f 899 946 786
f 946 848 786
f 898 920 947
f 876 921 899
f 823 900 877
f 880 793 923
f 948 901 922
f 902 852 794
f 827 949 924
f 948 925 901
f 827 826 949
f 825 950 826
f 926 950 825
f 951 926 828
f 854 951 828
f 928 951 854
f 929 884 930
f 906 952 907
f 906 932 952
f 931 934 885
f 893 939 938
f 910 953 939
f 953 910 940
f 891 954 912
f 955 953 940
f 940 941 955
f 913 916 844
f 941 917 955
f 955 917 942
f 870 871 943
f 944 918 734
f 872 956 873
f 872 874 956
f 848 957 822
f 847 958 875
f 959 877 960
f 849 878 961
f 877 900 960
f 900 880 962
f 923 963 880
f 851 964 923
f 965 948 922
f 851 852 964
f 902 966 852
f 902 824 967
f 824 924 967
f 925 968 903
f 903 968 927
f 928 904 969
f 904 929 969
f 970 882 927
f 882 970 931
f 971 972 929
f 971 929 930
f 887 886 907
f 952 973 907
f 952 932 974
f 974 932 933
f 975 933 935
f 937 935 909
f 976 938 939
f 891 936 954
f 939 953 976
f 977 976 953
f 912 978 913
f 979 980 955
f 916 944 845
f 942 979 955
f 871 873 981
f 982 919 846
f 956 874 983
f 874 822 984
f 984 822 957
f 691 945 847
f 848 946 957
f 898 985 921
f 947 985 898
f 877 961 878
f 877 959 961
f 879 986 922
f 962 880 963
f 852 966 964
f 902 967 966
f 948 987 925
f 965 987 948
f 949 826 988
f 987 968 925
f 951 928 989
f 968 990 927
f 970 927 990
f 969 929 972
f 930 973 971
f 887 907 973
f 887 973 930
f 970 991 931
f 952 992 973
f 974 992 952
f 931 991 934
f 993 974 933
f 975 993 933
f 935 937 975
f 994 975 937
f 934 991 936
f 991 995 936
f 937 938 994
f 996 994 938
f 936 995 954
f 938 976 996
f 980 977 953
f 953 955 980
f 979 942 997
f 943 997 942
f 944 998 918
f 982 846 820
f 982 999 919
f 983 874 984
f 999 945 919
f 875 958 1000
f 920 875 1000
f 946 899 1001
f 900 962 960
f 879 849 1002
f 879 1002 986
f 922 986 965
f 963 923 1003
f 949 1004 924
f 949 988 1004
f 826 1005 988
f 1005 826 950
f 1006 1005 950
f 950 926 1006
f 951 1006 926
f 989 1006 951
f 928 969 989
f 971 973 992
f 992 1007 971
f 993 992 974
f 975 1008 993
f 975 994 1008
f 912 954 1009
f 912 1009 978
f 980 1010 977
f 979 1010 980
f 913 978 916
f 1011 820 918
f 1001 1012 946
f 1001 899 921
f 959 960 1013
f 849 1014 1002
f 849 1015 1014
f 1015 849 961
f 960 962 1016
f 986 1002 1017
f 986 1018 965
f 1019 923 964
f 964 966 1019
f 1020 966 967
f 965 1021 987
f 988 1005 1004
f 968 1022 990
f 990 1023 970
f 972 971 1007
f 1024 969 972
f 1007 1024 972
f 992 993 1007
f 970 1023 991
f 1008 994 996
f 1008 996 1025
f 1026 995 991
f 996 976 1027
f 1027 976 977
f 1009 954 995
f 997 943 871
f 873 956 1028
f 873 1028 981
f 918 998 1011
f 983 984 1029
f 984 957 1029
f 847 945 958
f 946 1012 957
f 920 1000 1030
f 920 1030 947
f 959 1013 1031
f 1031 961 959
f 1015 961 1031
f 960 1032 1013
f 1016 1032 960
f 1002 1014 1033
f 1002 1033 1017
f 963 1016 962
f 1016 963 1003
f 1019 1003 923
f 986 1017 1018
f 1019 966 1034
f 1034 966 1020
f 965 1018 1021
f 1020 967 924
f 987 1022 968
f 1022 1023 990
f 1023 1022 1035
f 1024 1007 1025
f 1025 1007 993
f 1023 1036 991
f 993 1008 1025
f 1036 1026 991
f 1025 996 1027
f 1009 1037 978
f 1010 979 1038
f 916 1039 944
f 944 1039 998
f 1040 956 983
f 1041 999 982
f 957 1042 1029
f 999 1043 945
f 1042 957 1012
f 958 1044 1000
f 1015 1045 1014
f 1046 1032 1016
f 1045 1033 1014
f 1033 1047 1017
f 1020 1048 1034
f 1020 1049 1048
f 924 1049 1020
f 924 1004 1050
f 1004 1005 1050
f 1005 1006 1051
f 1052 989 1053
f 1022 987 1054
f 1053 989 969
f 1053 969 1055
f 969 1024 1055
f 1027 1024 1025
f 1027 977 1056
f 1026 1057 995
f 1056 977 1058
f 995 1057 1009
f 977 1010 1058
f 1009 1057 1037
f 978 1059 916
f 1038 979 1060
f 979 997 1060
f 916 1059 1039
f 871 981 1061
f 820 1011 982
f 1062 956 1040
f 999 1041 1043
f 945 1063 958
f 1064 1001 921
f 1000 1065 1030
f 1066 1015 1031
f 1067 1013 1032
f 1066 1045 1015
f 1032 1046 1067
f 1016 1003 1046
f 1033 1068 1047
f 1003 1019 1069
f 1034 1070 1019
f 1017 1047 1018
f 1048 1049 1071
f 1018 1072 1021
f 1018 1047 1072
f 924 1050 1049
f 1005 1051 1050
f 1006 989 1052
f 1021 1054 987
f 1035 1022 1073
f 1023 1074 1036
f 1056 1075 1027
f 1026 1076 1057
f 1037 1059 978
f 1028 956 1062
f 1043 1063 945
f 958 1063 1044
f 1000 1044 1065
f 921 985 1064
f 1013 1077 1031
f 1031 1077 1066
f 1013 1067 1077
f 1045 1068 1033
f 1046 1003 1078
f 1069 1078 1003
f 1047 1068 1079
f 1019 1080 1069
f 1070 1080 1019
f 1070 1034 1081
f 1081 1034 1048
f 1072 1047 1079
f 1071 1049 1082
f 1049 1050 1082
f 1021 1072 1054
f 1083 1051 1006
f 1006 1052 1083
f 1054 1073 1022
f 1055 1024 1084
f 1023 1035 1074
f 1074 1035 1073
f 1024 1027 1084
f 1084 1027 1075
f 1036 1085 1026
f 1057 1086 1037
f 1058 1010 1038
f 997 871 1060
f 871 1061 1060
f 1087 998 1039
f 998 1087 1011
f 1011 1088 982
f 1029 1089 1090
f 983 1029 1090
f 1041 1091 1043
f 1029 1042 1089
f 985 1092 1064
f 985 947 1030
f 1067 1093 1077
f 1045 1066 1068
f 1046 1078 1067
f 1094 1078 1069
f 1069 1080 1094
f 1070 1095 1080
f 1081 1095 1070
f 1048 1071 1081
f 1050 1096 1082
f 1050 1051 1096
f 1051 1083 1097
f 1098 1083 1052
f 1052 1053 1098
f 1053 1055 1099
f 1054 1100 1073
f 1055 1084 1099
f 1074 1085 1036
f 1075 1056 1058
f 1076 1026 1085
f 1076 1086 1057
f 981 1028 1061
f 1088 1041 982
f 1090 1040 983
f 1101 1063 1043
f 1102 1042 1012
f 1063 1103 1044
f 1044 1103 1065
f 1064 1012 1001
f 1030 1065 1104
f 1030 1104 985
f 1105 1066 1077
f 1093 1105 1077
f 1066 1106 1068
f 1067 1107 1093
f 1078 1107 1067
f 1078 1094 1107
f 1095 1108 1080
f 1081 1071 1095
f 1071 1082 1109
f 1110 1072 1079
f 1051 1111 1096
f 1051 1097 1111
f 1112 1097 1083
f 1113 1054 1072
f 1098 1053 1099
f 1113 1100 1054
f 1074 1073 1114
f 1085 1074 1114
f 1075 1058 1115
f 1086 1116 1037
f 1116 1059 1037
f 1059 1116 1039
f 1117 1061 1028
f 1028 1062 1118
f 1088 1011 1119
f 1041 1088 1091
f 1043 1091 1101
f 1089 1042 1102
f 1102 1012 1064
f 1104 1092 985
f 1066 1105 1106
f 1094 1120 1107
f 1068 1106 1079
f 1080 1121 1094
f 1080 1108 1121
f 1095 1122 1108
f 1071 1109 1095
f 1095 1109 1122
f 1079 1123 1110
f 1082 1124 1109
f 1096 1124 1082
f 1096 1111 1124
f 1110 1113 1072
f 1112 1083 1098
f 1125 1098 1099
f 1084 1075 1115
f 1115 1058 1126
f 1058 1038 1126
f 1116 1127 1039
f 1127 1087 1039
f 1062 1040 1128
f 1011 1087 1119
f 1090 1089 1129
f 1063 1101 1103
f 1130 1102 1064
f 1103 1131 1065
f 1104 1065 1131
f 1093 1107 1105
f 1106 1105 1132
f 1107 1133 1105
f 1133 1107 1120
f 1094 1121 1120
f 1106 1134 1079
f 1134 1123 1079
f 1109 1135 1122
f 1111 1097 1124
f 1098 1136 1112
f 1125 1136 1098
f 1137 1099 1084
f 1138 1114 1073
f 1137 1084 1115
f 1085 1139 1076
f 1076 1139 1086
f 1086 1140 1116
f 1038 1060 1126
f 1060 1141 1126
f 1141 1060 1061
f 1061 1117 1141
f 1118 1117 1028
f 1127 1142 1087
f 1062 1128 1118
f 1119 1143 1088
f 1091 1088 1143
f 1144 1145 1092
f 1092 1145 1064
f 1104 1131 1146
f 1146 1144 1104
f 1092 1104 1144
f 1132 1105 1147
f 1133 1147 1105
f 1148 1133 1120
f 1121 1148 1120
f 1121 1108 1148
f 1134 1106 1132
f 1148 1108 1122
f 1135 1109 1124
f 1149 1135 1124
f 1097 1150 1124
f 1097 1151 1150
f 1097 1112 1151
f 1112 1136 1151
f 1138 1073 1100
f 1139 1140 1086
f 1117 1118 1152
f 1142 1119 1087
f 1128 1040 1129
f 1040 1090 1129
f 1089 1153 1129
f 1101 1091 1154
f 1102 1155 1153
f 1089 1102 1153
f 1130 1155 1102
f 1101 1156 1103
f 1103 1157 1131
f 1146 1131 1158
f 1064 1145 1130
f 1147 1159 1132
f 1133 1148 1160
f 1134 1132 1159
f 1148 1122 1161
f 1122 1135 1161
f 1161 1135 1149
f 1124 1150 1149
f 1123 1162 1110
f 1163 1136 1125
f 1137 1125 1099
f 1100 1113 1164
f 1165 1137 1115
f 1085 1114 1166
f 1114 1138 1166
f 1116 1140 1127
f 1140 1167 1127
f 1127 1167 1142
f 1142 1168 1119
f 1143 1169 1091
f 1169 1154 1091
f 1154 1156 1101
f 1156 1157 1103
f 1131 1157 1158
f 1145 1170 1130
f 1147 1133 1171
f 1147 1171 1159
f 1133 1160 1172
f 1173 1134 1159
f 1161 1160 1148
f 1162 1134 1173
f 1162 1123 1134
f 1149 1150 1174
f 1175 1150 1151
f 1136 1163 1151
f 1176 1113 1110
f 1177 1163 1125
f 1137 1177 1125
f 1100 1164 1138
f 1126 1165 1115
f 1141 1178 1126
f 1139 1179 1140
f 1168 1180 1119
f 1119 1180 1143
f 1181 1170 1145
f 1155 1130 1170
f 1145 1144 1181
f 1171 1133 1172
f 1172 1160 1161
f 1161 1149 1174
f 1162 1176 1110
f 1150 1175 1174
f 1151 1163 1175
f 1177 1137 1165
f 1166 1138 1182
f 1166 1139 1085
f 1141 1183 1178
f 1117 1152 1141
f 1140 1179 1167
f 1184 1152 1118
f 1184 1118 1128
f 1167 1168 1142
f 1180 1169 1143
f 1129 1153 1185
f 1156 1154 1157
f 1146 1186 1144
f 1186 1181 1144
f 1171 1172 1187
f 1173 1159 1188
f 1172 1161 1189
f 1190 1174 1175
f 1175 1163 1191
f 1192 1163 1177
f 1176 1164 1113
f 1193 1164 1176
f 1164 1182 1138
f 1165 1126 1194
f 1194 1126 1178
f 1166 1195 1139
f 1139 1195 1179
f 1152 1196 1141
f 1179 1197 1167
f 1167 1197 1168
f 1198 1128 1129
f 1169 1199 1154
f 1200 1153 1155
f 1200 1155 1170
f 1146 1158 1186
f 1171 1201 1159
f 1159 1201 1188
f 1202 1201 1171
f 1171 1187 1202
f 1161 1174 1189
f 1162 1173 1203
f 1176 1162 1203
f 1190 1175 1191
f 1191 1204 1190
f 1192 1191 1163
f 1194 1177 1165
f 1182 1164 1193
f 1205 1195 1166
f 1183 1206 1178
f 1141 1196 1183
f 1152 1184 1196
f 1128 1198 1184
f 1197 1207 1168
f 1168 1207 1180
f 1129 1185 1198
f 1154 1199 1208
f 1153 1200 1185
f 1154 1208 1157
f 1208 1158 1157
f 1170 1209 1200
f 1181 1210 1170
f 1210 1209 1170
f 1172 1211 1187
f 1212 1173 1188
f 1189 1213 1172
f 1203 1173 1212
f 1189 1174 1214
f 1214 1174 1190
f 1176 1203 1215
f 1191 1192 1204
f 1216 1204 1192
f 1193 1176 1215
f 1177 1216 1192
f 1177 1194 1216
f 1182 1193 1217
f 1178 1218 1194
f 1206 1218 1178
f 1205 1166 1182
f 1179 1195 1219
f 1197 1179 1219
f 1220 1197 1219
f 1184 1198 1221
f 1220 1207 1197
f 1207 1222 1180
f 1223 1198 1185
f 1180 1222 1169
f 1169 1222 1199
f 1224 1185 1200
f 1158 1225 1186
f 1181 1226 1210
f 1188 1201 1227
f 1172 1213 1211
f 1212 1188 1227
f 1189 1214 1213
f 1203 1228 1215
f 1190 1204 1214
f 1212 1228 1203
f 1207 1220 1229
f 1223 1185 1224
f 1199 1230 1208
f 1208 1225 1158
f 1181 1186 1226
f 1201 1202 1227
f 1227 1202 1231
f 1231 1202 1232
f 1202 1187 1232
f 1227 1233 1212
f 1211 1232 1187
f 1233 1228 1212
f 1214 1234 1213
f 1234 1214 1235
f 1214 1204 1235
f 1204 1216 1235
f 1215 1217 1193
f 1236 1216 1194
f 1218 1236 1194
f 1195 1205 1219
f 1184 1237 1196
f 1221 1237 1184
f 1198 1223 1221
f 1229 1222 1207
f 1226 1209 1210
f 1226 1186 1225
f 1233 1227 1238
f 1231 1238 1227
f 1234 1235 1239
f 1235 1240 1239
f 1235 1216 1240
f 1240 1216 1236
f 1218 1241 1236
f 1206 1241 1218
f 1206 1183 1242
f 1183 1196 1242
f 1219 1205 1243
f 1244 1219 1243
f 1219 1244 1220
f 1244 1229 1220
f 1222 1229 1245
f 1222 1245 1199
f 1245 1230 1199
f 1246 1224 1247
f 1247 1224 1200
f 1248 1208 1230
f 1208 1248 1225
f 1247 1200 1209
f 1226 1249 1209
f 1238 1250 1233
f 1233 1250 1228
f 1234 1211 1213
f 1239 1240 1251
f 1252 1215 1228
f 1240 1236 1251
f 1251 1236 1253
f 1217 1215 1252
f 1241 1253 1236
f 1182 1254 1205
f 1241 1206 1242
f 1254 1243 1205
f 1242 1196 1237
f 1237 1221 1255
f 1221 1223 1255
f 1223 1224 1246
f 1244 1245 1229
f 1225 1248 1256
f 1247 1209 1249
f 1232 1211 1257
f 1238 1258 1250
f 1231 1259 1238
f 1259 1258 1238
f 1260 1257 1211
f 1260 1211 1234
f 1261 1234 1239
f 1261 1260 1234
f 1262 1261 1239
f 1239 1251 1262
f 1252 1228 1250
f 1251 1253 1262
f 1263 1217 1252
f 1217 1264 1182
f 1182 1264 1254
f 1254 1265 1243
f 1242 1237 1266
f 1244 1243 1265
f 1266 1237 1255
f 1255 1223 1246
f 1244 1267 1245
f 1246 1247 1268
f 1245 1267 1230
f 1268 1247 1249
f 1226 1225 1256
f 1231 1232 1257
f 1257 1259 1231
f 1258 1269 1250
f 1262 1270 1261
f 1269 1252 1250
f 1271 1270 1262
f 1253 1271 1262
f 1253 1241 1271
f 1217 1263 1264
f 1272 1271 1241
f 1241 1242 1272
f 1264 1265 1254
f 1272 1242 1266
f 1265 1273 1244
f 1255 1246 1274
f 1274 1246 1275
f 1267 1244 1273
f 1275 1246 1268
f 1276 1248 1267
f 1248 1230 1267
f 1256 1248 1276
f 1268 1249 1277
f 1278 1226 1256
f 1249 1278 1277
f 1278 1249 1226
f 1258 1259 1279
f 1269 1258 1279
f 1279 1280 1269
f 1260 1259 1257
f 1261 1281 1260
f 1270 1281 1261
f 1270 1271 1281
f 1282 1252 1269
f 1271 1283 1281
f 1263 1252 1282
f 1283 1271 1284
f 1271 1272 1284
f 1264 1263 1285
f 1285 1265 1264
f 1272 1286 1284
f 1272 1266 1286
f 1286 1255 1287
f 1266 1255 1286
f 1255 1274 1287
f 1273 1265 1288
f 1267 1273 1289
f 1276 1267 1289
f 1277 1275 1268
f 1260 1290 1259
f 1260 1281 1291
f 1290 1279 1259
f 1292 1291 1281
f 1291 1290 1260
f 1281 1283 1292
f 1282 1269 1280
f 1283 1293 1292
f 1283 1284 1293
f 1263 1282 1294
f 1284 1295 1293
f 1285 1263 1294
f 1286 1296 1295
f 1284 1286 1295
f 1285 1288 1265
f 1286 1287 1296
f 1296 1287 1297
f 1288 1289 1273
f 1298 1289 1288
f 1274 1297 1287
f 1275 1299 1297
f 1274 1275 1297
f 1276 1289 1298
f 1300 1276 1298
f 1277 1299 1275
f 1301 1276 1300
f 1301 1299 1277
f 1301 1256 1276
f 1277 1278 1301
f 1278 1256 1301
f 1280 1279 1302
f 1290 1303 1279
f 1291 1303 1290
f 1282 1280 1304
f 1302 1279 1303
f 1291 1305 1303
f 1292 1305 1291
f 1304 1280 1302
f 1293 1305 1292
f 1282 1304 1294
f 1293 1295 1305
f 1295 1306 1305
f 1304 1307 1294
f 1295 1296 1306
f 1308 1285 1294
f 1308 1288 1285
f 1296 1309 1306
f 1308 1298 1288
f 1309 1310 1311
f 1296 1297 1309
f 1297 1310 1309
f 1312 1300 1308
f 1300 1298 1308
f 1311 1310 1313
f 1313 1300 1312
f 1297 1299 1310
f 1310 1301 1313
f 1299 1301 1310
f 1313 1301 1300
f 1305 1314 1303
f 1303 1315 1302
f 1314 1315 1303
f 1302 1307 1304
f 1315 1307 1302
f 1305 1306 1314
f 1314 1316 1315
f 1314 1317 1316
f 1306 1317 1314
f 1294 1307 1308
f 1307 1312 1308
f 1315 1318 1307
f 1316 1318 1315
f 1306 1309 1317
f 1318 1312 1307
f 1317 1311 1316
f 1317 1309 1311
f 1311 1318 1316
f 1318 1313 1312
f 1311 1313 1318

