# https://github.com/mikedh/trimesh
v 7819.30000000 5717.59000000 1989.47000000
v 7715.04000000 5732.23000000 1997.04000000
v 7828.52000000 5841.69000000 1985.69000000
v 7896.86000000 5708.64000000 2004.79000000
v 7980.03000000 5821.58000000 2000.98000000
v 7612.87000000 5834.50000000 1990.31000000
v 7564.77000000 5783.83000000 2004.11000000
v 7486.67000000 5861.82000000 2002.69000000
v 7658.65000000 5882.47000000 1987.14000000
v 8000.09000000 5923.48000000 1994.49000000
v 7750.60000000 5918.97000000 1988.52000000
v 7863.33000000 5994.62000000 1992.89000000
v 7513.79000000 5910.48000000 1997.92000000
v 7578.86000000 5972.49000000 2001.30000000
v 7731.83000000 6009.98000000 2002.99000000
v 7956.42000000 5996.21000000 1991.50000000
v 7852.32000000 6080.38000000 2010.76000000
v 7573.85000000 6044.00000000 2016.52000000
v 7930.79000000 6068.31000000 2001.46000000
v 8053.95000000 5995.42000000 2003.67000000
v 8004.85000000 6091.42000000 2013.64000000
v 7658.14000000 5657.36000000 2047.25000000
v 7582.87000000 5725.15000000 2027.42000000
v 7796.96000000 5675.16000000 2017.09000000
v 7907.61000000 5633.68000000 2043.45000000
v 7976.50000000 5664.34000000 2034.42000000
v 8006.66000000 5750.46000000 2019.73000000
v 7444.89000000 5767.05000000 2041.34000000
v 7388.13000000 5838.75000000 2032.28000000
v 8078.94000000 5867.01000000 2020.80000000
v 7351.29000000 5905.79000000 2030.54000000
v 7383.81000000 5971.15000000 2022.47000000
v 8113.59000000 5980.77000000 2024.47000000
v 7415.70000000 6039.72000000 2026.73000000
v 7697.48000000 6103.78000000 2036.83000000
v 8078.92000000 6065.34000000 2030.39000000
v 8157.79000000 6010.04000000 2053.80000000
v 8037.30000000 6142.33000000 2044.78000000
v 7927.37000000 6132.32000000 2025.55000000
v 7990.05000000 6183.03000000 2059.94000000
v 7773.72000000 5618.63000000 2059.57000000
v 7856.70000000 5579.11000000 2102.86000000
v 8034.77000000 5638.10000000 2072.58000000
v 8087.83000000 5747.85000000 2046.34000000
v 7291.91000000 5806.04000000 2067.24000000
v 8198.21000000 5842.75000000 2059.36000000
v 7174.32000000 5868.48000000 2079.44000000
v 7252.69000000 5956.14000000 2051.81000000
v 8193.33000000 5919.31000000 2059.38000000
v 8275.72000000 5858.89000000 2096.06000000
v 7255.53000000 6037.61000000 2054.99000000
v 7325.47000000 6096.68000000 2050.24000000
v 7519.18000000 6125.66000000 2057.07000000
v 8141.51000000 6091.65000000 2108.61000000
v 7840.25000000 6142.94000000 2039.56000000
v 8083.29000000 6134.06000000 2086.38000000
v 7884.01000000 6199.84000000 2076.87000000
v 7983.81000000 5603.21000000 2102.14000000
v 7664.72000000 5615.52000000 2085.27000000
v 8134.75000000 5712.05000000 2075.97000000
v 7469.95000000 5700.07000000 2073.96000000
v 7317.75000000 5751.49000000 2083.52000000
v 8198.09000000 5768.39000000 2079.42000000
v 7187.10000000 5790.22000000 2095.60000000
v 8300.84000000 5891.34000000 2121.32000000
v 7103.38000000 5952.20000000 2092.27000000
v 8235.24000000 5952.24000000 2093.43000000
v 8228.95000000 6041.42000000 2163.10000000
v 7092.67000000 6056.43000000 2101.03000000
v 7239.13000000 6123.02000000 2078.53000000
v 7370.93000000 6166.92000000 2081.10000000
v 7671.32000000 6169.55000000 2080.40000000
v 7769.80000000 6180.30000000 2080.63000000
v 7623.63000000 6208.84000000 2104.01000000
v 8051.25000000 6171.36000000 2092.72000000
v 7665.12000000 5579.02000000 2138.26000000
v 7946.83000000 5578.04000000 2127.95000000
v 8175.59000000 5675.16000000 2129.39000000
v 7518.66000000 5629.91000000 2120.74000000
v 8234.48000000 5735.55000000 2114.74000000
v 7150.29000000 5732.16000000 2120.89000000
v 8275.54000000 5772.28000000 2114.11000000
v 8285.07000000 5804.90000000 2113.80000000
v 7159.11000000 6172.77000000 2115.57000000
v 7505.38000000 6207.35000000 2093.71000000
v 7414.22000000 6227.88000000 2100.19000000
v 7296.49000000 6214.40000000 2106.25000000
v 7816.67000000 6228.48000000 2112.75000000
v 7953.20000000 6236.82000000 2107.62000000
v 8023.53000000 6203.29000000 2112.85000000
v 7876.96000000 6241.41000000 2122.27000000
v 7569.14000000 6364.15000000 2106.33000000
v 7507.45000000 6452.24000000 2092.77000000
v 7566.05000000 6491.87000000 2103.46000000
v 7498.85000000 6558.00000000 2095.49000000
v 7437.58000000 6460.19000000 2094.45000000
v 7421.34000000 6577.22000000 2092.12000000
v 7352.66000000 6514.80000000 2102.72000000
v 7353.93000000 6640.49000000 2104.88000000
v 7437.37000000 6648.97000000 2106.84000000
v 8120.98000000 5637.69000000 2143.58000000
v 7324.55000000 5676.63000000 2124.04000000
v 7053.79000000 5773.60000000 2122.27000000
v 6974.46000000 5848.58000000 2126.21000000
v 8309.47000000 5945.10000000 2169.75000000
v 6991.19000000 5973.09000000 2121.63000000
v 7025.71000000 6136.15000000 2136.90000000
v 7095.39000000 6218.39000000 2149.75000000
v 8087.23000000 6172.11000000 2143.09000000
v 7199.22000000 6255.29000000 2139.39000000
v 7597.53000000 6270.59000000 2114.52000000
v 7733.80000000 6224.41000000 2122.81000000
v 7397.11000000 6267.36000000 2108.48000000
v 7492.03000000 6272.97000000 2104.83000000
v 7459.96000000 6356.45000000 2103.24000000
v 8015.76000000 6226.33000000 2157.53000000
v 7360.38000000 6377.09000000 2110.13000000
v 7307.94000000 6287.17000000 2118.78000000
v 7244.62000000 6331.86000000 2138.48000000
v 7635.94000000 6351.42000000 2129.81000000
v 7273.32000000 6456.65000000 2125.83000000
v 7610.52000000 6434.80000000 2119.01000000
v 7614.12000000 6517.94000000 2128.45000000
v 7158.42000000 6517.06000000 2171.70000000
v 7263.80000000 6602.78000000 2130.09000000
v 7564.68000000 6570.76000000 2117.69000000
v 7525.89000000 6634.29000000 2122.66000000
v 7289.56000000 6693.59000000 2128.43000000
v 7366.13000000 6719.48000000 2128.74000000
v 7472.00000000 6715.47000000 2146.43000000
v 7741.91000000 5541.73000000 2181.94000000
v 7880.41000000 5555.28000000 2180.29000000
v 8022.27000000 5595.41000000 2168.96000000
v 7366.21000000 5608.44000000 2172.06000000
v 8182.06000000 5662.44000000 2157.54000000
v 7219.64000000 5615.50000000 2173.37000000
v 8289.11000000 5724.75000000 2157.72000000
v 7121.17000000 5651.02000000 2153.54000000
v 7026.14000000 5684.46000000 2146.34000000
v 8327.38000000 5773.45000000 2153.96000000
v 8334.90000000 5831.49000000 2146.21000000
v 6971.80000000 6054.59000000 2134.44000000
v 8179.30000000 6137.30000000 2221.19000000
v 7681.07000000 6277.94000000 2152.46000000
v 7836.85000000 6253.21000000 2146.22000000
v 7672.78000000 6367.16000000 2166.55000000
v 7935.26000000 6251.77000000 2162.97000000
v 7186.80000000 6391.46000000 2164.06000000
v 7645.40000000 6445.05000000 2147.77000000
v 7191.61000000 6631.21000000 2157.63000000
v 7602.20000000 6608.94000000 2156.76000000
v 7546.23000000 6680.81000000 2157.91000000
v 7199.09000000 6707.51000000 2164.98000000
v 7526.11000000 6744.11000000 2195.05000000
v 7286.34000000 6739.19000000 2147.33000000
v 7405.36000000 6774.55000000 2165.91000000
v 7303.71000000 6803.23000000 2186.29000000
v 7594.85000000 5530.86000000 2237.75000000
v 6748.14000000 5592.77000000 2166.96000000
v 6655.14000000 5586.37000000 2175.13000000
v 6731.56000000 5730.42000000 2159.47000000
v 6831.43000000 5618.50000000 2166.90000000
v 6939.48000000 5707.73000000 2148.63000000
v 6957.02000000 5589.45000000 2174.21000000
v 6638.85000000 5710.11000000 2172.66000000
v 6846.10000000 5744.93000000 2152.88000000
v 7088.05000000 5556.45000000 2200.10000000
v 8233.55000000 5679.13000000 2193.11000000
v 8287.80000000 5709.90000000 2180.23000000
v 6710.40000000 5825.85000000 2161.26000000
v 6643.71000000 5809.03000000 2175.32000000
v 8388.84000000 5808.71000000 2196.50000000
v 6731.46000000 5945.30000000 2172.75000000
v 6855.88000000 5906.99000000 2149.41000000
v 8363.39000000 5867.47000000 2183.93000000
v 6881.19000000 6080.47000000 2164.45000000
v 6767.69000000 6038.29000000 2182.82000000
v 7001.51000000 6191.90000000 2166.93000000
v 7077.77000000 6259.64000000 2174.14000000
v 7168.25000000 6298.21000000 2161.06000000
v 7772.17000000 6259.52000000 2171.78000000
v 7180.29000000 6337.50000000 2163.97000000
v 7136.62000000 6401.70000000 2186.17000000
v 7666.01000000 6483.16000000 2197.13000000
v 7636.92000000 6530.29000000 2165.73000000
v 7119.63000000 6637.77000000 2193.76000000
v 7579.41000000 6685.98000000 2191.95000000
v 7214.09000000 6795.49000000 2194.75000000
v 7453.73000000 6800.98000000 2218.21000000
v 6801.80000000 5524.45000000 2188.65000000
v 6698.97000000 5516.73000000 2194.27000000
v 7755.62000000 5525.33000000 2236.32000000
v 6625.13000000 5533.92000000 2201.82000000
v 7494.32000000 5571.29000000 2197.63000000
v 7975.61000000 5575.62000000 2221.59000000
v 6553.96000000 5617.06000000 2216.01000000
v 6973.79000000 5505.96000000 2207.08000000
v 7175.40000000 5563.31000000 2206.36000000
v 7275.19000000 5539.62000000 2244.90000000
v 6584.10000000 5746.36000000 2198.72000000
v 8359.73000000 5756.23000000 2206.81000000
v 6538.32000000 5852.23000000 2244.09000000
v 6669.23000000 6003.53000000 2216.12000000
v 8356.73000000 5934.33000000 2222.64000000
v 8316.14000000 6017.28000000 2248.41000000
v 6758.09000000 6113.23000000 2218.58000000
v 6923.09000000 6220.33000000 2209.81000000
v 8092.85000000 6196.59000000 2220.30000000
v 8015.63000000 6230.80000000 2213.90000000
v 7689.09000000 6317.51000000 2199.80000000
v 7718.17000000 6276.29000000 2198.92000000
v 7856.57000000 6258.44000000 2195.37000000
v 7123.05000000 6338.62000000 2183.84000000
v 7640.56000000 6578.27000000 2195.46000000
v 7614.80000000 6656.94000000 2221.47000000
v 7080.03000000 6713.24000000 2219.49000000
v 7129.50000000 6785.04000000 2216.39000000
v 7129.24000000 6846.38000000 2247.83000000
v 7356.77000000 6828.19000000 2217.24000000
v 7186.11000000 6863.97000000 2251.75000000
v 6748.41000000 5442.17000000 2230.56000000
v 6888.14000000 5469.69000000 2221.29000000
v 6833.63000000 5409.46000000 2254.17000000
v 6638.84000000 5467.74000000 2241.97000000
v 6562.02000000 5527.60000000 2241.56000000
v 7010.70000000 5474.57000000 2234.90000000
v 7657.62000000 5504.37000000 2299.46000000
v 7875.51000000 5551.28000000 2273.14000000
v 7401.54000000 5546.89000000 2245.22000000
v 8073.59000000 5612.95000000 2249.38000000
v 8137.21000000 5640.19000000 2203.73000000
v 6464.69000000 5704.74000000 2260.97000000
v 8314.19000000 5720.06000000 2208.66000000
v 8423.74000000 5815.39000000 2264.17000000
v 6496.88000000 5975.73000000 2303.94000000
v 6743.56000000 6198.59000000 2268.91000000
v 7028.65000000 6309.76000000 2214.11000000
v 7941.79000000 6245.32000000 2223.57000000
v 7063.83000000 6421.24000000 2216.57000000
v 7677.32000000 6395.25000000 2208.83000000
v 7042.67000000 6566.41000000 2233.24000000
v 7038.15000000 6777.33000000 2250.89000000
v 7517.81000000 6777.75000000 2232.95000000
v 7265.29000000 6876.66000000 2265.94000000
v 6948.98000000 5414.06000000 2270.13000000
v 7133.55000000 5502.51000000 2244.37000000
v 7508.24000000 5518.01000000 2284.90000000
v 7802.63000000 5531.53000000 2262.01000000
v 6444.93000000 5566.51000000 2282.60000000
v 6435.58000000 5634.91000000 2273.35000000
v 8400.07000000 5908.80000000 2279.31000000
v 8359.33000000 5999.97000000 2292.81000000
v 6571.95000000 6097.20000000 2308.14000000
v 8269.08000000 6095.09000000 2276.97000000
v 6815.89000000 6291.54000000 2306.37000000
v 8067.79000000 6207.85000000 2247.30000000
v 6943.55000000 6314.08000000 2258.10000000
v 7702.69000000 6286.88000000 2233.96000000
v 7779.80000000 6262.63000000 2217.13000000
v 7850.91000000 6249.99000000 2233.51000000
v 7675.61000000 6370.72000000 2241.41000000
v 7000.50000000 6365.97000000 2244.80000000
v 7660.78000000 6500.41000000 2260.38000000
v 7641.57000000 6600.67000000 2252.72000000
v 7560.89000000 6738.03000000 2243.25000000
v 7056.37000000 6833.54000000 2268.62000000
v 7358.64000000 6860.75000000 2270.40000000
v 6772.48000000 5393.16000000 2273.38000000
v 6865.43000000 5384.18000000 2293.82000000
v 6677.57000000 5412.69000000 2287.00000000
v 6597.26000000 5441.51000000 2287.63000000
v 6516.76000000 5501.12000000 2286.24000000
v 7077.53000000 5449.82000000 2275.14000000
v 7324.40000000 5486.44000000 2320.77000000
v 7418.50000000 5500.65000000 2313.93000000
v 7939.59000000 5586.26000000 2340.39000000
v 6362.46000000 5669.11000000 2311.05000000
v 8210.97000000 5679.92000000 2276.19000000
v 8333.85000000 5734.34000000 2253.76000000
v 8396.74000000 5783.27000000 2274.85000000
v 6342.26000000 5746.14000000 2338.45000000
v 8434.28000000 5895.19000000 2333.30000000
v 6665.01000000 6149.08000000 2282.26000000
v 8182.13000000 6163.43000000 2285.25000000
v 7758.51000000 6253.42000000 2259.00000000
v 8036.71000000 6204.24000000 2271.85000000
v 6888.51000000 6353.37000000 2310.53000000
v 6946.81000000 6371.85000000 2279.71000000
v 6980.75000000 6444.20000000 2265.36000000
v 6968.98000000 6700.04000000 2280.71000000
v 7597.16000000 6699.35000000 2279.78000000
v 6986.00000000 6805.48000000 2290.15000000
v 7507.21000000 6794.53000000 2266.60000000
v 7428.06000000 6840.36000000 2293.59000000
v 7152.25000000 6913.06000000 2312.87000000
v 6765.55000000 5383.16000000 2320.15000000
v 6967.40000000 5383.35000000 2315.62000000
v 7210.35000000 5461.61000000 2310.29000000
v 7733.46000000 5511.79000000 2314.41000000
v 7790.49000000 5529.17000000 2327.77000000
v 6363.89000000 5612.50000000 2314.34000000
v 8073.15000000 5644.42000000 2343.35000000
v 8431.04000000 5834.46000000 2342.31000000
v 8439.85000000 5873.94000000 2351.88000000
v 8327.65000000 6057.75000000 2310.51000000
v 8251.23000000 6131.45000000 2319.45000000
v 6620.33000000 6191.89000000 2329.55000000
v 6699.34000000 6248.60000000 2326.41000000
v 8126.69000000 6180.52000000 2286.99000000
v 7896.12000000 6215.43000000 2277.90000000
v 7666.74000000 6330.32000000 2277.15000000
v 7642.30000000 6467.41000000 2304.45000000
v 6891.56000000 6431.87000000 2320.90000000
v 6921.89000000 6563.79000000 2304.43000000
v 7640.02000000 6602.03000000 2301.79000000
v 7546.39000000 6762.76000000 2290.39000000
v 7008.07000000 6864.28000000 2306.84000000
v 7055.00000000 6896.59000000 2322.16000000
v 7280.69000000 6899.99000000 2315.75000000
v 7080.37000000 5413.00000000 2322.41000000
v 6596.26000000 5426.41000000 2319.18000000
v 6506.77000000 5472.63000000 2326.55000000
v 6382.94000000 5544.54000000 2343.48000000
v 7590.74000000 5506.24000000 2299.19000000
v 6373.13000000 5579.20000000 2321.78000000
v 7815.38000000 5548.12000000 2390.10000000
v 8311.21000000 5744.91000000 2334.29000000
v 8382.32000000 5793.93000000 2339.32000000
v 8211.86000000 6147.34000000 2338.08000000
v 8147.25000000 6150.22000000 2351.55000000
v 7671.77000000 6260.62000000 2288.34000000
v 7749.49000000 6201.18000000 2310.04000000
v 7618.59000000 6304.40000000 2307.16000000
v 6684.70000000 6297.42000000 2373.06000000
v 6817.51000000 6556.78000000 2379.88000000
v 6868.16000000 6691.38000000 2344.80000000
v 7615.21000000 6660.39000000 2305.24000000
v 6916.76000000 6771.89000000 2324.95000000
v 7484.69000000 6808.90000000 2321.31000000
v 6932.03000000 6851.59000000 2345.53000000
v 6981.87000000 6884.24000000 2340.34000000
v 7326.78000000 6886.49000000 2337.31000000
v 7175.47000000 6930.69000000 2355.02000000
v 6749.78000000 5377.87000000 2376.22000000
v 6653.78000000 5408.06000000 2354.80000000
v 6886.75000000 5373.50000000 2361.95000000
v 7020.92000000 5386.96000000 2352.16000000
v 7234.51000000 5423.04000000 2384.24000000
v 7545.64000000 5474.91000000 2369.26000000
v 6444.34000000 5491.78000000 2359.24000000
v 6312.14000000 5610.06000000 2355.50000000
v 6307.14000000 5663.51000000 2352.04000000
v 8439.23000000 5932.89000000 2395.62000000
v 6343.63000000 5903.58000000 2382.37000000
v 6434.01000000 6071.45000000 2384.66000000
v 8324.32000000 6082.39000000 2352.37000000
v 7982.80000000 6156.36000000 2337.09000000
v 7839.27000000 6184.92000000 2315.05000000
v 7556.69000000 6311.75000000 2335.99000000
v 7595.80000000 6209.43000000 2338.43000000
v 6824.74000000 6359.28000000 2350.55000000
v 6856.35000000 6391.18000000 2341.26000000
v 7593.55000000 6427.69000000 2346.02000000
v 7626.98000000 6572.64000000 2329.87000000
v 7603.51000000 6652.29000000 2343.47000000
v 7545.44000000 6737.18000000 2345.40000000
v 7121.97000000 5399.54000000 2382.50000000
v 6537.45000000 5451.97000000 2358.29000000
v 6448.98000000 5484.73000000 2387.22000000
v 7372.96000000 5453.76000000 2376.82000000
v 7663.61000000 5486.32000000 2396.73000000
v 6376.95000000 5523.46000000 2389.94000000
v 8188.24000000 5725.19000000 2408.72000000
v 8420.55000000 5953.14000000 2363.79000000
v 8380.53000000 6004.83000000 2351.81000000
v 8136.56000000 6083.13000000 2424.37000000
v 7506.72000000 6237.07000000 2346.09000000
v 7480.91000000 6175.97000000 2369.09000000
v 7839.12000000 6150.09000000 2343.10000000
v 6583.69000000 6245.88000000 2387.13000000
v 6739.62000000 6353.84000000 2392.61000000
v 7494.89000000 6406.52000000 2401.63000000
v 6805.97000000 6420.33000000 2377.88000000
v 7591.73000000 6535.12000000 2366.14000000
v 6829.65000000 6796.33000000 2395.17000000
v 6790.58000000 6683.38000000 2410.87000000
v 7401.43000000 6830.96000000 2400.21000000
v 7380.82000000 6856.33000000 2353.05000000
v 6946.08000000 6906.76000000 2381.54000000
v 7225.39000000 6924.70000000 2377.53000000
v 7068.18000000 6944.08000000 2383.73000000
v 6811.96000000 5375.97000000 2398.46000000
v 7037.65000000 5386.32000000 2395.13000000
v 6682.59000000 5405.61000000 2410.08000000
v 7340.46000000 5421.86000000 2433.35000000
v 6406.33000000 5505.53000000 2411.94000000
v 7743.05000000 5519.23000000 2399.54000000
v 6276.19000000 5608.14000000 2397.38000000
v 7993.20000000 5647.82000000 2434.08000000
v 6254.98000000 5655.56000000 2395.89000000
v 6263.90000000 5705.15000000 2386.46000000
v 6263.73000000 5766.03000000 2399.09000000
v 8339.13000000 5797.23000000 2402.59000000
v 6510.90000000 6172.13000000 2385.85000000
v 7880.71000000 6085.60000000 2384.01000000
v 7720.74000000 6113.26000000 2372.56000000
v 8301.22000000 6097.22000000 2395.32000000
v 7421.99000000 6216.80000000 2371.04000000
v 7467.90000000 6305.83000000 2374.98000000
v 6589.25000000 6304.44000000 2441.46000000
v 7448.21000000 6362.63000000 2410.26000000
v 6749.89000000 6474.88000000 2435.00000000
v 7559.99000000 6690.88000000 2385.67000000
v 6803.08000000 6852.33000000 2437.11000000
v 6858.85000000 6876.79000000 2419.22000000
v 6981.47000000 6937.21000000 2404.23000000
v 7153.50000000 6947.93000000 2403.83000000
v 7078.28000000 6962.46000000 2442.71000000
v 6879.00000000 5377.79000000 2412.55000000
v 6969.68000000 5383.68000000 2412.06000000
v 7150.36000000 5402.78000000 2436.23000000
v 6560.74000000 5452.25000000 2412.41000000
v 7249.28000000 5413.04000000 2438.54000000
v 6465.89000000 5484.43000000 2418.65000000
v 7602.93000000 5449.56000000 2463.80000000
v 6320.52000000 5565.12000000 2408.94000000
v 6215.02000000 5715.52000000 2434.61000000
v 8395.06000000 5852.63000000 2428.73000000
v 8427.22000000 5895.47000000 2411.02000000
v 8415.85000000 5976.95000000 2400.94000000
v 8373.90000000 6025.34000000 2416.55000000
v 8015.78000000 6084.43000000 2398.55000000
v 8232.95000000 6078.98000000 2450.55000000
v 7570.02000000 6032.69000000 2436.33000000
v 7388.82000000 6146.67000000 2411.36000000
v 8238.73000000 6113.52000000 2397.02000000
v 7345.32000000 6213.98000000 2399.01000000
v 7393.58000000 6265.32000000 2390.46000000
v 7370.86000000 6335.85000000 2435.35000000
v 6747.49000000 6411.18000000 2419.99000000
v 7542.23000000 6619.13000000 2414.80000000
v 7517.59000000 6731.60000000 2406.73000000
v 7459.57000000 6768.15000000 2423.15000000
v 7268.31000000 6900.41000000 2410.02000000
v 6796.31000000 5400.12000000 2435.99000000
v 7053.74000000 5394.54000000 2432.69000000
v 7471.95000000 5432.69000000 2457.85000000
v 6497.26000000 5482.56000000 2439.20000000
v 6435.96000000 5507.48000000 2442.76000000
v 6367.20000000 5537.11000000 2429.32000000
v 7734.57000000 5524.54000000 2493.51000000
v 7687.35000000 5486.98000000 2461.85000000
v 6266.75000000 5610.05000000 2436.99000000
v 7848.13000000 5594.88000000 2475.02000000
v 6232.15000000 5659.51000000 2445.10000000
v 6202.59000000 5816.89000000 2468.42000000
v 6183.12000000 5752.19000000 2473.91000000
v 6218.88000000 5940.13000000 2498.21000000
v 6319.16000000 6032.41000000 2457.80000000
v 7786.31000000 5999.68000000 2433.52000000
v 7937.15000000 6005.90000000 2436.10000000
v 6358.26000000 6139.73000000 2486.37000000
v 8059.76000000 6005.67000000 2459.96000000
v 6494.04000000 6225.32000000 2441.64000000
v 7291.64000000 6194.08000000 2423.04000000
v 7319.39000000 6264.24000000 2424.30000000
v 6681.28000000 6398.42000000 2464.40000000
v 7390.70000000 6442.25000000 2485.13000000
v 7521.13000000 6507.79000000 2415.95000000
v 6739.51000000 6606.53000000 2456.51000000
v 7499.49000000 6690.28000000 2445.55000000
v 6757.86000000 6726.45000000 2448.92000000
v 6764.23000000 6807.68000000 2466.30000000
v 6871.82000000 6935.24000000 2474.98000000
v 7145.98000000 6945.38000000 2443.46000000
v 6966.86000000 6963.97000000 2473.74000000
v 6963.76000000 5403.76000000 2450.59000000
v 6662.72000000 5446.86000000 2461.42000000
v 7119.67000000 5425.06000000 2484.35000000
v 7648.37000000 5467.06000000 2463.86000000
v 6307.54000000 5587.79000000 2456.40000000
v 6187.43000000 5721.10000000 2486.92000000
v 8276.28000000 5805.83000000 2467.26000000
v 8411.94000000 5957.14000000 2442.39000000
v 7881.33000000 5913.39000000 2479.78000000
v 8344.02000000 6049.18000000 2449.24000000
v 7322.21000000 6107.43000000 2457.47000000
v 7423.31000000 6037.49000000 2470.29000000
v 8208.00000000 6034.98000000 2483.34000000
v 8294.97000000 6067.26000000 2447.63000000
v 7240.75000000 6234.86000000 2446.53000000
v 7245.52000000 6316.43000000 2482.92000000
v 7442.29000000 6503.49000000 2478.28000000
v 6709.10000000 6499.87000000 2485.33000000
v 7441.68000000 6735.50000000 2473.62000000
v 6796.75000000 6872.72000000 2476.20000000
v 7255.69000000 6879.35000000 2477.64000000
v 6877.35000000 5436.06000000 2491.64000000
v 7235.98000000 5418.33000000 2482.94000000
v 7372.57000000 5416.49000000 2497.21000000
v 7556.40000000 5428.54000000 2517.03000000
v 6505.88000000 5502.57000000 2466.90000000
v 6384.81000000 5558.09000000 2472.09000000
v 6247.45000000 5646.29000000 2478.13000000
v 6210.46000000 5690.80000000 2488.57000000
v 8061.09000000 5704.91000000 2479.45000000
v 6161.67000000 5776.94000000 2507.57000000
v 6122.22000000 5825.15000000 2552.48000000
v 8149.50000000 5754.38000000 2484.39000000
v 6149.50000000 5877.75000000 2539.30000000
v 8394.85000000 5910.23000000 2472.37000000
v 7747.54000000 5878.39000000 2503.11000000
v 7993.54000000 5919.60000000 2490.56000000
v 7481.69000000 5960.03000000 2501.30000000
v 7576.12000000 5890.11000000 2523.91000000
v 8380.75000000 5996.71000000 2469.21000000
v 6218.22000000 6033.85000000 2553.03000000
v 8154.71000000 5969.87000000 2505.25000000
v 7250.05000000 6142.99000000 2472.76000000
v 7165.61000000 6207.12000000 2481.20000000
v 7195.97000000 6262.04000000 2477.06000000
v 6436.41000000 6244.84000000 2512.16000000
v 6567.06000000 6335.25000000 2504.67000000
v 7299.97000000 6402.55000000 2510.93000000
v 6702.85000000 6586.07000000 2503.61000000
v 7449.45000000 6579.15000000 2495.28000000
v 7449.16000000 6642.86000000 2502.26000000
v 7410.65000000 6695.74000000 2525.89000000
v 6715.98000000 6708.04000000 2506.87000000
v 7326.80000000 6809.80000000 2501.53000000
v 6872.92000000 6967.57000000 2538.51000000
v 7041.12000000 6965.39000000 2536.24000000
v 6967.14000000 6977.12000000 2548.02000000
v 6745.51000000 5461.54000000 2500.01000000
v 6971.03000000 5490.33000000 2542.09000000
v 7205.02000000 5452.25000000 2533.82000000
v 6597.60000000 5507.50000000 2503.99000000
v 7630.32000000 5460.68000000 2522.82000000
v 6286.64000000 5645.66000000 2511.11000000
v 7945.19000000 5666.20000000 2503.84000000
v 6136.21000000 5791.15000000 2542.89000000
v 8318.12000000 5864.83000000 2498.94000000
v 6152.16000000 5942.03000000 2567.75000000
v 7917.46000000 5832.59000000 2525.57000000
v 8381.08000000 5953.24000000 2492.66000000
v 8066.24000000 5933.96000000 2498.84000000
v 8332.31000000 6012.76000000 2490.13000000
v 8260.41000000 6006.10000000 2503.02000000
v 8280.39000000 6041.02000000 2472.60000000
v 7335.69000000 6023.53000000 2518.06000000
v 7176.11000000 6129.35000000 2523.00000000
v 7141.07000000 6180.60000000 2507.17000000
v 6330.36000000 6176.01000000 2546.25000000
v 7130.45000000 6286.79000000 2523.23000000
v 6476.67000000 6299.78000000 2550.67000000
v 6632.11000000 6386.28000000 2518.17000000
v 6682.50000000 6440.89000000 2520.18000000
v 6694.47000000 6523.94000000 2523.55000000
v 6740.50000000 6828.22000000 2521.53000000
v 6773.95000000 6894.70000000 2538.08000000
v 7141.31000000 6926.49000000 2513.01000000
v 7338.09000000 5428.15000000 2551.70000000
v 7488.93000000 5419.23000000 2528.69000000
v 6833.85000000 5513.46000000 2554.08000000
v 7086.43000000 5527.63000000 2587.55000000
v 6447.86000000 5605.70000000 2537.69000000
v 6205.54000000 5713.97000000 2522.82000000
v 6156.15000000 5769.98000000 2537.69000000
v 8047.23000000 5731.26000000 2516.54000000
v 7677.75000000 5792.69000000 2567.91000000
v 8054.46000000 5886.98000000 2521.15000000
v 8359.27000000 5979.59000000 2496.70000000
v 6251.34000000 6122.64000000 2586.30000000
v 7096.31000000 6166.07000000 2555.94000000
v 7119.11000000 6208.37000000 2521.63000000
v 6317.82000000 6189.38000000 2586.23000000
v 7085.94000000 6251.47000000 2534.78000000
v 6585.45000000 6356.93000000 2559.43000000
v 6651.31000000 6401.43000000 2545.82000000
v 6695.52000000 6600.85000000 2540.36000000
v 6695.86000000 6699.97000000 2557.67000000
v 7330.37000000 6751.46000000 2561.83000000
v 6710.64000000 6776.25000000 2554.29000000
v 7170.74000000 6875.69000000 2576.20000000
v 6812.81000000 6942.50000000 2567.72000000
v 6904.17000000 6977.19000000 2556.25000000
v 7551.63000000 5432.39000000 2576.87000000
v 7658.25000000 5496.95000000 2583.10000000
v 7736.99000000 5577.74000000 2583.51000000
v 7852.86000000 5638.26000000 2537.71000000
v 8173.76000000 5801.26000000 2516.95000000
v 7462.77000000 5924.26000000 2539.48000000
v 8344.71000000 5914.56000000 2510.77000000
v 6101.37000000 5899.56000000 2607.40000000
v 8318.77000000 5956.36000000 2513.99000000
v 7222.55000000 6037.09000000 2590.79000000
v 7293.19000000 5969.88000000 2624.06000000
v 7062.01000000 6226.26000000 2559.34000000
v 6383.02000000 6240.00000000 2585.95000000
v 7059.60000000 6272.92000000 2563.89000000
v 7166.65000000 6397.30000000 2576.33000000
v 6497.19000000 6313.82000000 2585.05000000
v 6686.85000000 6425.20000000 2571.17000000
v 6699.12000000 6514.54000000 2571.67000000
v 7354.24000000 6562.94000000 2562.77000000
v 7383.93000000 6625.42000000 2556.37000000
v 6733.76000000 6855.07000000 2586.86000000
v 7212.28000000 6811.00000000 2618.45000000
v 7457.56000000 5423.83000000 2572.21000000
v 7266.50000000 5470.31000000 2582.13000000
v 7354.04000000 5452.19000000 2608.79000000
v 7603.71000000 5458.32000000 2580.76000000
v 7194.37000000 5535.61000000 2629.57000000
v 6674.58000000 5541.50000000 2547.32000000
v 6557.67000000 5689.24000000 2620.64000000
v 6261.14000000 5721.31000000 2567.21000000
v 7914.40000000 5691.65000000 2545.11000000
v 8032.89000000 5756.73000000 2537.77000000
v 7898.97000000 5731.81000000 2558.53000000
v 6170.97000000 5778.32000000 2576.94000000
v 8017.90000000 5806.88000000 2542.92000000
v 7906.86000000 5778.98000000 2548.40000000
v 6120.47000000 5816.82000000 2581.08000000
v 7808.33000000 5776.42000000 2556.71000000
v 8146.64000000 5835.41000000 2545.44000000
v 6095.14000000 5858.51000000 2608.69000000
v 8140.57000000 5883.69000000 2539.40000000
v 8251.81000000 5883.79000000 2528.72000000
v 7506.77000000 5864.06000000 2579.42000000
v 7578.54000000 5815.23000000 2596.45000000
v 8198.42000000 5884.87000000 2542.74000000
v 7399.63000000 5916.94000000 2607.12000000
v 8221.08000000 5929.71000000 2521.92000000
v 7120.24000000 6095.01000000 2632.33000000
v 7047.65000000 6183.89000000 2620.38000000
v 6299.10000000 6191.68000000 2637.19000000
v 6429.67000000 6270.40000000 2602.23000000
v 7049.72000000 6325.48000000 2597.89000000
v 6654.81000000 6388.86000000 2580.20000000
v 7265.75000000 6482.04000000 2575.22000000
v 6698.36000000 6657.86000000 2586.62000000
v 7373.30000000 6670.47000000 2564.91000000
v 7330.60000000 6708.82000000 2588.60000000
v 6712.17000000 6767.92000000 2594.32000000
v 6772.92000000 6915.06000000 2598.54000000
v 6855.35000000 6970.33000000 2599.79000000
v 7047.34000000 6929.65000000 2616.21000000
v 6901.44000000 6977.76000000 2607.43000000
v 7432.69000000 5437.94000000 2619.83000000
v 6873.25000000 5574.26000000 2603.16000000
v 6945.33000000 5630.36000000 2655.17000000
v 6741.03000000 5598.97000000 2597.00000000
v 7641.94000000 5523.58000000 2645.86000000
v 7808.53000000 5646.00000000 2576.01000000
v 6354.21000000 5735.52000000 2607.55000000
v 7811.13000000 5683.34000000 2585.33000000
v 7790.30000000 5713.81000000 2588.33000000
v 7729.79000000 5736.38000000 2593.91000000
v 6125.40000000 5995.50000000 2637.15000000
v 6186.93000000 6058.23000000 2609.17000000
v 6230.87000000 6135.96000000 2643.86000000
v 6360.54000000 6225.70000000 2633.97000000
v 7025.66000000 6251.55000000 2605.96000000
v 6549.33000000 6329.40000000 2607.67000000
v 6612.85000000 6348.63000000 2618.37000000
v 6682.77000000 6382.36000000 2620.87000000
v 6711.77000000 6437.80000000 2605.41000000
v 6713.27000000 6612.17000000 2614.96000000
v 7228.57000000 6555.22000000 2638.07000000
v 7508.27000000 5450.32000000 2638.51000000
v 7396.09000000 5466.20000000 2650.47000000
v 7583.38000000 5484.39000000 2639.09000000
v 7316.43000000 5498.73000000 2647.73000000
v 7120.75000000 5627.25000000 2696.16000000
v 7716.21000000 5629.46000000 2640.83000000
v 7709.95000000 5691.16000000 2630.16000000
v 6400.62000000 5787.78000000 2649.36000000
v 7631.48000000 5756.86000000 2626.14000000
v 6123.22000000 5841.03000000 2630.69000000
v 6092.00000000 5862.85000000 2632.77000000
v 6072.09000000 5900.16000000 2660.28000000
v 7464.01000000 5836.29000000 2664.85000000
v 6077.10000000 5936.87000000 2666.97000000
v 6175.19000000 6070.01000000 2644.92000000
v 6416.21000000 6242.72000000 2662.86000000
v 6488.29000000 6293.29000000 2622.72000000
v 6985.60000000 6284.36000000 2634.16000000
v 6994.12000000 6343.56000000 2637.55000000
v 7046.93000000 6415.27000000 2647.60000000
v 7129.76000000 6521.51000000 2669.20000000
v 6735.75000000 6519.00000000 2627.99000000
v 7288.58000000 6663.98000000 2626.67000000
v 6732.43000000 6754.66000000 2642.99000000
v 6738.46000000 6835.41000000 2632.38000000
v 6775.27000000 6902.81000000 2652.65000000
v 6816.16000000 6944.21000000 2631.65000000
v 7082.48000000 6876.77000000 2665.10000000
v 6957.04000000 6964.00000000 2616.73000000
v 6756.47000000 5690.56000000 2663.65000000
v 6581.20000000 5799.59000000 2693.60000000
v 6442.58000000 5823.60000000 2678.18000000
v 6216.34000000 5800.32000000 2621.27000000
v 7323.65000000 5912.15000000 2687.57000000
v 6319.88000000 6194.16000000 2675.65000000
v 6995.02000000 6200.52000000 2679.48000000
v 6947.00000000 6316.52000000 2652.46000000
v 6523.67000000 6290.94000000 2652.38000000
v 6612.25000000 6302.85000000 2675.49000000
v 6705.52000000 6341.19000000 2665.53000000
v 6764.84000000 6401.70000000 2643.15000000
v 6755.79000000 6670.89000000 2661.14000000
v 7237.86000000 6604.81000000 2651.37000000
v 7231.86000000 6742.31000000 2652.07000000
v 6876.67000000 6959.09000000 2655.49000000
v 7393.14000000 5512.62000000 2700.18000000
v 7661.43000000 5569.86000000 2663.84000000
v 7647.02000000 5650.92000000 2690.68000000
v 7561.44000000 5741.23000000 2687.74000000
v 6303.35000000 5837.90000000 2666.63000000
v 6085.68000000 5888.17000000 2670.70000000
v 6165.80000000 5868.27000000 2671.89000000
v 6058.00000000 5932.77000000 2701.13000000
v 7203.54000000 5980.04000000 2698.55000000
v 6121.30000000 6027.55000000 2681.64000000
v 6167.04000000 6080.73000000 2684.53000000
v 7060.60000000 6122.57000000 2683.39000000
v 6235.07000000 6136.77000000 2689.74000000
v 6929.56000000 6261.25000000 2682.27000000
v 6882.71000000 6321.44000000 2667.59000000
v 6945.53000000 6384.67000000 2662.95000000
v 6848.30000000 6369.36000000 2659.96000000
v 6791.99000000 6332.99000000 2675.26000000
v 6885.38000000 6445.25000000 2675.35000000
v 6803.41000000 6485.93000000 2657.51000000
v 6815.10000000 6572.83000000 2673.51000000
v 6780.02000000 6863.89000000 2683.54000000
v 7458.20000000 5479.24000000 2678.37000000
v 7518.83000000 5508.12000000 2705.03000000
v 7598.04000000 5541.18000000 2689.72000000
v 7280.85000000 5562.86000000 2697.82000000
v 7631.79000000 5595.70000000 2696.30000000
v 6851.52000000 5747.70000000 2723.64000000
v 6063.46000000 5920.47000000 2698.11000000
v 6087.93000000 5979.07000000 2697.71000000
v 7098.34000000 6051.39000000 2723.52000000
v 6166.60000000 6074.38000000 2715.03000000
v 6357.34000000 6199.69000000 2697.00000000
v 6434.42000000 6214.51000000 2709.28000000
v 6847.85000000 6256.56000000 2718.72000000
v 6726.17000000 6261.37000000 2724.47000000
v 6876.23000000 6510.25000000 2684.15000000
v 6940.99000000 6535.76000000 2710.81000000
v 7175.12000000 6589.14000000 2683.75000000
v 7180.33000000 6640.92000000 2697.30000000
v 6831.41000000 6690.49000000 2704.86000000
v 7177.22000000 6707.48000000 2702.33000000
v 6810.63000000 6791.78000000 2706.85000000
v 7158.01000000 6755.30000000 2708.86000000
v 7119.78000000 6810.16000000 2699.05000000
v 6822.20000000 6911.91000000 2707.92000000
v 6830.19000000 6932.62000000 2675.29000000
v 6966.13000000 6925.38000000 2680.95000000
v 6990.68000000 5731.83000000 2740.44000000
v 7538.87000000 5698.97000000 2734.76000000
v 6693.88000000 5828.28000000 2737.85000000
v 6511.95000000 5893.97000000 2728.11000000
v 6224.19000000 5932.39000000 2721.08000000
v 6367.84000000 5944.08000000 2725.63000000
v 7347.92000000 5874.25000000 2721.21000000
v 6115.77000000 5921.69000000 2708.66000000
v 6083.95000000 5948.30000000 2722.47000000
v 6083.64000000 5967.31000000 2719.60000000
v 6099.67000000 5992.27000000 2726.64000000
v 6128.34000000 6027.76000000 2710.44000000
v 6304.91000000 6165.07000000 2709.08000000
v 6932.08000000 6175.97000000 2747.84000000
v 7002.46000000 6506.90000000 2696.64000000
v 6892.46000000 6625.35000000 2715.64000000
v 7028.56000000 6869.92000000 2712.02000000
v 6882.27000000 6921.92000000 2705.46000000
v 7451.18000000 5521.69000000 2719.82000000
v 7378.40000000 5578.90000000 2743.83000000
v 7587.15000000 5629.88000000 2727.86000000
v 7378.07000000 5818.89000000 2744.90000000
v 7282.36000000 5903.29000000 2727.38000000
v 6292.26000000 5980.09000000 2741.24000000
v 6249.62000000 5998.84000000 2750.10000000
v 6148.03000000 6044.80000000 2731.51000000
v 7020.32000000 6111.60000000 2740.13000000
v 6219.78000000 6102.67000000 2725.44000000
v 6802.86000000 6184.46000000 2774.68000000
v 6578.31000000 6227.48000000 2730.77000000
v 7070.11000000 6589.50000000 2725.59000000
v 6976.87000000 6659.07000000 2739.80000000
v 7130.01000000 6603.24000000 2707.82000000
v 6889.32000000 6733.13000000 2734.09000000
v 6834.19000000 6866.70000000 2723.44000000
v 7473.62000000 5553.68000000 2741.70000000
v 7544.93000000 5585.59000000 2734.47000000
v 7244.93000000 5629.88000000 2738.65000000
v 7530.45000000 5653.24000000 2751.99000000
v 7140.04000000 5712.97000000 2762.32000000
v 7459.76000000 5728.09000000 2761.04000000
v 6620.02000000 5931.05000000 2773.32000000
v 6169.36000000 5987.88000000 2739.40000000
v 6126.23000000 6004.27000000 2730.26000000
v 6323.31000000 6024.31000000 2753.15000000
v 6482.96000000 6008.77000000 2767.69000000
v 7122.90000000 5986.19000000 2764.17000000
v 7054.68000000 6035.03000000 2777.88000000
v 6194.29000000 6054.33000000 2740.07000000
v 6314.58000000 6125.09000000 2738.07000000
v 6479.31000000 6165.55000000 2752.68000000
v 6624.78000000 6186.52000000 2761.81000000
v 7083.63000000 6686.88000000 2734.84000000
v 7104.54000000 6760.36000000 2728.55000000
v 7033.38000000 6823.85000000 2740.25000000
v 6887.37000000 6816.74000000 2744.45000000
v 6886.17000000 6876.16000000 2734.22000000
v 6961.29000000 6874.84000000 2723.69000000
v 7433.00000000 5623.68000000 2768.63000000
v 7486.21000000 5642.61000000 2765.64000000
v 7281.77000000 5685.47000000 2776.53000000
v 7437.57000000 5707.10000000 2777.55000000
v 7011.26000000 5842.71000000 2801.21000000
v 7361.68000000 5778.63000000 2779.38000000
v 6851.79000000 5847.12000000 2778.10000000
v 6736.27000000 5885.40000000 2776.70000000
v 7211.09000000 5919.62000000 2758.46000000
v 6656.73000000 5985.34000000 2801.91000000
v 6273.63000000 6049.66000000 2747.79000000
v 6389.95000000 6082.12000000 2756.70000000
v 6972.80000000 6093.53000000 2788.83000000
v 6556.80000000 6107.01000000 2781.17000000
v 6943.10000000 6760.55000000 2753.91000000
v 7003.10000000 6740.06000000 2755.30000000
v 7039.32000000 6768.95000000 2746.34000000
v 6964.68000000 6808.24000000 2742.18000000
v 7414.14000000 5687.72000000 2783.73000000
v 7340.67000000 5710.03000000 2792.19000000
v 7255.72000000 5745.62000000 2798.31000000
v 7316.24000000 5766.33000000 2795.18000000
v 7178.33000000 5779.07000000 2797.78000000
v 7211.69000000 5854.12000000 2792.54000000
v 6757.92000000 5938.62000000 2801.50000000
v 7109.04000000 5953.83000000 2791.32000000
v 6653.56000000 6045.98000000 2807.16000000
v 6706.12000000 6095.50000000 2813.56000000
v 6702.11000000 6134.75000000 2793.19000000
v 6887.87000000 6130.02000000 2794.60000000
v 7258.56000000 5764.41000000 2799.40000000
v 7208.88000000 5805.55000000 2800.28000000
v 7105.98000000 5858.11000000 2808.44000000
v 6876.98000000 5952.06000000 2819.84000000
v 6997.76000000 5932.93000000 2821.01000000
v 7086.72000000 5922.65000000 2808.63000000
v 7009.75000000 6006.50000000 2808.10000000
v 6750.51000000 5996.44000000 2814.23000000
v 6806.74000000 6043.51000000 2822.67000000
v 6802.85000000 6112.74000000 2804.73000000
v 6902.67000000 6067.95000000 2809.71000000
v 6918.76000000 6000.21000000 2816.01000000
f 1 2 3
f 4 1 3
f 5 4 3
f 3 2 6
f 2 7 6
f 7 8 6
f 3 6 9
f 5 3 10
f 3 9 11
f 12 3 11
f 6 8 13
f 6 13 9
f 11 9 14
f 13 14 9
f 11 14 15
f 12 11 15
f 3 12 16
f 15 17 12
f 10 3 16
f 15 14 18
f 17 19 12
f 16 12 19
f 10 16 20
f 20 16 21
f 16 19 21
f 22 23 2
f 24 22 2
f 1 24 2
f 25 24 4
f 4 24 1
f 26 25 4
f 27 26 4
f 23 28 7
f 2 23 7
f 27 4 5
f 7 28 29
f 30 27 5
f 7 29 8
f 30 5 10
f 8 29 31
f 13 8 31
f 13 31 32
f 10 20 30
f 20 33 30
f 13 32 14
f 14 32 34
f 18 14 34
f 35 15 18
f 36 33 20
f 37 33 36
f 17 15 35
f 21 36 20
f 38 36 21
f 39 19 17
f 21 19 39
f 21 39 40
f 38 21 40
f 41 25 42
f 25 41 24
f 25 26 43
f 41 22 24
f 43 26 44
f 27 44 26
f 44 27 30
f 28 45 29
f 46 44 30
f 29 45 47
f 29 47 31
f 31 47 48
f 46 30 49
f 49 50 46
f 30 33 49
f 31 48 32
f 32 48 51
f 49 33 37
f 34 32 51
f 34 51 52
f 34 53 18
f 53 35 18
f 54 37 36
f 53 34 52
f 55 17 35
f 36 38 56
f 36 56 54
f 17 55 39
f 55 57 39
f 39 57 40
f 25 43 58
f 41 59 22
f 44 60 43
f 23 22 61
f 28 61 62
f 23 61 28
f 63 60 44
f 45 62 64
f 28 62 45
f 45 64 47
f 46 63 44
f 49 65 50
f 51 48 66
f 37 67 49
f 67 37 68
f 51 66 69
f 69 70 51
f 51 70 52
f 71 52 70
f 53 52 71
f 72 35 53
f 35 72 73
f 73 55 35
f 72 53 74
f 55 73 57
f 38 40 75
f 38 75 56
f 59 41 76
f 41 42 76
f 42 58 77
f 42 25 58
f 60 78 43
f 59 79 22
f 79 61 22
f 80 78 60
f 60 63 80
f 62 81 64
f 63 82 80
f 83 82 63
f 83 46 50
f 63 46 83
f 48 47 66
f 49 67 65
f 68 37 54
f 69 84 70
f 71 85 53
f 86 85 71
f 84 87 70
f 74 53 85
f 71 70 87
f 86 71 87
f 73 88 57
f 57 89 40
f 40 90 75
f 91 57 88
f 89 57 91
f 90 40 89
f 92 93 94
f 95 96 97
f 93 96 95
f 94 93 95
f 96 98 97
f 97 98 99
f 95 97 100
f 100 97 99
f 43 101 58
f 43 78 101
f 61 79 102
f 81 62 102
f 61 102 62
f 103 64 81
f 64 103 47
f 47 103 104
f 47 104 66
f 65 67 105
f 66 104 106
f 68 105 67
f 66 106 69
f 69 107 84
f 107 108 84
f 56 75 109
f 108 110 84
f 87 84 110
f 85 111 74
f 112 72 74
f 73 72 112
f 113 86 87
f 114 86 113
f 85 86 114
f 111 85 114
f 73 112 88
f 114 113 115
f 116 90 89
f 117 113 118
f 115 113 117
f 118 119 117
f 114 115 92
f 92 120 111
f 111 114 92
f 117 119 121
f 115 117 96
f 92 115 93
f 122 120 92
f 93 115 96
f 98 117 121
f 96 117 98
f 92 94 122
f 123 122 94
f 121 124 125
f 98 121 125
f 123 94 126
f 94 95 126
f 95 127 126
f 98 125 99
f 100 127 95
f 99 125 128
f 129 99 128
f 100 99 129
f 127 100 130
f 130 100 129
f 42 131 76
f 77 132 42
f 42 132 131
f 132 77 133
f 79 59 76
f 77 58 133
f 58 101 133
f 134 102 79
f 78 135 101
f 134 136 102
f 78 80 137
f 102 138 81
f 138 139 81
f 81 139 103
f 80 82 140
f 83 140 82
f 141 140 83
f 50 141 83
f 65 141 50
f 69 106 142
f 54 143 68
f 69 142 107
f 54 56 109
f 143 54 109
f 74 144 112
f 111 144 74
f 118 87 110
f 87 118 113
f 88 112 145
f 88 145 91
f 110 119 118
f 120 144 111
f 120 146 144
f 89 91 147
f 148 121 119
f 149 120 122
f 124 121 148
f 122 123 149
f 124 150 125
f 126 151 123
f 127 151 126
f 127 152 151
f 150 153 125
f 125 153 128
f 154 152 130
f 130 152 127
f 153 155 128
f 128 155 129
f 129 156 130
f 129 155 157
f 156 129 157
f 131 158 76
f 159 160 161
f 162 163 164
f 161 160 165
f 162 159 166
f 138 164 139
f 138 136 167
f 135 78 168
f 159 161 166
f 164 163 139
f 102 136 138
f 78 169 168
f 78 137 169
f 163 162 166
f 139 163 103
f 161 165 170
f 170 165 171
f 140 137 80
f 163 166 104
f 163 104 103
f 172 140 141
f 171 173 170
f 174 161 170
f 166 161 174
f 65 175 141
f 104 166 174
f 104 174 106
f 175 65 105
f 174 170 173
f 106 174 142
f 174 173 176
f 176 173 177
f 142 174 176
f 142 176 107
f 176 178 107
f 108 107 178
f 75 90 109
f 108 178 179
f 179 110 108
f 110 179 180
f 145 112 181
f 110 180 119
f 91 145 147
f 89 147 116
f 180 182 119
f 182 148 119
f 146 120 149
f 124 148 183
f 146 149 184
f 149 123 185
f 185 184 149
f 185 123 151
f 186 150 124
f 186 153 150
f 151 152 187
f 152 154 187
f 188 155 153
f 154 130 189
f 157 155 188
f 190 191 159
f 164 190 162
f 131 132 192
f 191 193 160
f 159 191 160
f 162 190 159
f 194 76 158
f 133 195 132
f 196 160 193
f 167 197 164
f 134 79 194
f 76 194 79
f 160 196 165
f 167 164 138
f 136 198 167
f 199 198 136
f 134 199 136
f 135 168 101
f 165 196 200
f 165 200 171
f 137 201 169
f 137 140 201
f 200 202 171
f 172 141 175
f 171 202 173
f 173 202 203
f 175 105 204
f 173 203 177
f 105 68 205
f 203 206 177
f 177 206 176
f 206 207 176
f 176 207 178
f 109 116 208
f 90 116 109
f 112 144 181
f 209 208 116
f 144 146 210
f 144 210 211
f 144 211 181
f 145 181 212
f 147 145 212
f 209 116 147
f 179 213 180
f 182 180 213
f 213 183 148
f 213 148 182
f 185 214 184
f 185 151 214
f 151 215 214
f 153 186 216
f 153 216 217
f 153 217 188
f 130 156 189
f 217 218 188
f 157 219 156
f 156 219 189
f 220 188 218
f 157 188 220
f 221 222 223
f 224 191 221
f 190 221 191
f 222 221 190
f 191 224 193
f 224 225 193
f 164 222 190
f 197 222 164
f 226 197 167
f 131 227 158
f 131 192 227
f 195 228 132
f 193 225 196
f 134 194 229
f 133 230 195
f 134 229 199
f 101 231 133
f 133 231 230
f 168 231 101
f 200 196 232
f 169 233 168
f 169 201 233
f 140 172 201
f 201 172 234
f 232 202 200
f 202 235 203
f 105 205 204
f 206 236 207
f 207 179 178
f 179 207 237
f 238 209 147
f 213 179 237
f 212 238 147
f 237 239 213
f 210 146 240
f 239 183 213
f 146 184 240
f 183 239 124
f 124 239 241
f 186 124 241
f 216 186 241
f 151 187 215
f 216 242 217
f 154 189 243
f 220 244 157
f 244 219 157
f 223 222 245
f 222 197 226
f 246 226 167
f 158 247 194
f 132 248 192
f 248 132 228
f 198 246 167
f 196 225 249
f 250 196 249
f 232 196 250
f 251 234 172
f 172 175 251
f 175 204 251
f 252 204 205
f 235 253 203
f 253 206 203
f 205 68 254
f 68 143 254
f 143 109 208
f 236 255 207
f 208 209 256
f 257 207 255
f 237 207 257
f 211 258 259
f 210 258 211
f 181 211 259
f 212 181 259
f 212 259 260
f 212 260 238
f 258 210 261
f 237 257 262
f 237 262 239
f 210 240 261
f 240 184 263
f 184 264 263
f 184 214 264
f 265 215 187
f 154 265 187
f 243 265 154
f 242 266 217
f 218 217 266
f 189 219 267
f 267 219 244
f 268 223 269
f 269 223 245
f 224 221 270
f 223 268 221
f 224 271 272
f 226 245 222
f 273 245 226
f 226 246 273
f 224 272 225
f 225 272 249
f 274 199 275
f 275 229 247
f 229 194 247
f 275 199 229
f 195 230 276
f 277 232 250
f 168 278 231
f 168 279 278
f 233 279 168
f 201 279 233
f 201 280 279
f 234 280 201
f 281 202 232
f 234 251 282
f 253 283 206
f 206 283 236
f 284 143 208
f 285 260 259
f 238 286 209
f 286 256 209
f 257 255 287
f 257 288 262
f 289 262 288
f 262 289 239
f 261 240 263
f 239 289 241
f 241 290 216
f 214 215 264
f 215 265 291
f 291 264 215
f 290 292 242
f 290 242 216
f 292 266 242
f 265 243 293
f 293 243 189
f 294 189 267
f 293 189 294
f 244 220 295
f 270 268 296
f 245 297 269
f 271 224 270
f 268 270 221
f 273 246 298
f 298 246 199
f 199 274 298
f 192 299 227
f 248 299 192
f 199 246 198
f 248 228 300
f 195 276 228
f 301 250 249
f 230 302 276
f 230 278 302
f 231 278 230
f 250 301 277
f 232 277 281
f 280 234 303
f 303 234 304
f 234 282 304
f 252 205 305
f 254 143 306
f 284 306 143
f 283 307 236
f 236 307 308
f 236 308 255
f 208 256 309
f 258 285 259
f 285 310 260
f 238 310 286
f 238 260 310
f 257 287 288
f 311 261 312
f 289 288 313
f 263 312 261
f 289 314 241
f 263 264 315
f 241 314 290
f 265 293 316
f 292 317 266
f 266 317 318
f 266 318 218
f 318 220 218
f 267 244 319
f 269 296 268
f 245 320 297
f 321 271 270
f 245 273 320
f 273 298 320
f 271 322 272
f 272 322 323
f 158 324 247
f 324 158 227
f 300 299 248
f 249 323 325
f 272 323 249
f 276 326 228
f 249 325 301
f 279 327 278
f 279 328 327
f 328 279 280
f 205 254 305
f 253 307 283
f 309 329 284
f 256 286 309
f 286 330 309
f 208 309 284
f 331 332 285
f 285 332 310
f 331 311 333
f 258 311 285
f 285 311 331
f 308 334 255
f 258 261 311
f 287 313 288
f 313 314 289
f 314 313 335
f 314 336 290
f 264 337 315
f 264 291 337
f 338 290 336
f 265 316 291
f 338 292 290
f 339 316 293
f 292 340 317
f 340 341 317
f 267 342 294
f 318 317 341
f 267 319 342
f 295 220 318
f 244 295 343
f 319 244 343
f 296 344 345
f 269 346 296
f 297 346 269
f 346 297 347
f 321 270 345
f 345 270 296
f 297 320 347
f 271 321 322
f 320 298 348
f 324 227 349
f 322 350 323
f 323 351 325
f 351 301 325
f 277 301 352
f 281 277 352
f 280 303 328
f 304 282 353
f 354 235 202
f 204 252 251
f 235 355 253
f 254 356 305
f 254 306 356
f 286 357 330
f 306 284 329
f 310 332 358
f 357 310 358
f 286 310 357
f 333 359 360
f 331 333 360
f 255 361 287
f 361 362 287
f 287 362 313
f 311 312 363
f 333 311 363
f 364 312 263
f 263 315 364
f 314 335 336
f 315 365 364
f 315 337 365
f 366 291 316
f 292 338 340
f 339 293 294
f 296 346 344
f 320 367 347
f 321 345 368
f 320 348 367
f 321 368 322
f 368 350 322
f 369 350 368
f 298 274 370
f 227 371 349
f 227 299 371
f 323 350 372
f 228 326 300
f 351 352 301
f 278 373 302
f 278 327 373
f 281 354 202
f 282 251 374
f 235 354 355
f 252 375 251
f 252 305 375
f 357 376 330
f 377 378 360
f 331 360 332
f 358 332 379
f 307 380 308
f 360 359 377
f 334 308 380
f 334 381 255
f 255 381 361
f 359 363 382
f 359 333 363
f 361 383 362
f 362 383 313
f 383 335 313
f 363 312 384
f 312 364 384
f 366 337 291
f 385 336 386
f 336 385 338
f 339 387 366
f 366 316 339
f 385 340 338
f 294 388 339
f 340 389 341
f 388 294 342
f 319 343 390
f 319 390 342
f 295 318 391
f 295 391 343
f 346 392 344
f 347 393 346
f 394 345 344
f 347 367 393
f 395 348 370
f 348 298 370
f 274 275 370
f 370 275 349
f 349 275 247
f 247 324 349
f 350 369 372
f 372 369 396
f 299 397 371
f 300 397 299
f 326 397 300
f 351 323 398
f 302 399 276
f 351 400 352
f 398 400 351
f 352 400 401
f 352 401 281
f 402 281 401
f 327 403 373
f 328 403 327
f 402 354 281
f 282 374 353
f 251 375 374
f 253 404 307
f 379 405 357
f 406 405 379
f 357 358 379
f 330 329 309
f 356 306 407
f 306 329 407
f 406 332 360
f 379 332 406
f 378 377 408
f 307 404 380
f 408 377 409
f 377 359 409
f 334 380 410
f 359 382 409
f 334 410 381
f 411 409 382
f 383 412 335
f 365 366 413
f 365 337 366
f 385 414 415
f 385 415 340
f 339 388 387
f 389 340 415
f 389 318 341
f 318 389 416
f 343 417 390
f 343 391 418
f 417 343 418
f 346 419 392
f 346 420 419
f 393 420 346
f 367 421 393
f 422 345 394
f 348 423 367
f 348 395 423
f 345 422 368
f 368 422 369
f 369 422 424
f 371 425 349
f 369 424 396
f 426 323 372
f 426 398 323
f 427 401 400
f 401 427 402
f 428 328 303
f 303 429 428
f 304 429 303
f 304 353 429
f 353 374 430
f 374 375 430
f 375 356 431
f 305 356 375
f 253 355 404
f 405 432 357
f 376 357 432
f 376 433 330
f 434 378 435
f 360 378 434
f 406 360 434
f 329 330 436
f 378 408 435
f 408 437 435
f 437 408 438
f 408 409 438
f 438 409 439
f 409 411 439
f 440 383 381
f 381 383 361
f 412 383 440
f 441 384 364
f 364 365 441
f 335 386 336
f 365 413 441
f 366 442 413
f 366 443 442
f 366 387 443
f 342 444 388
f 444 342 390
f 416 391 318
f 392 445 344
f 344 445 394
f 419 445 392
f 393 446 420
f 393 421 446
f 423 421 367
f 370 349 447
f 425 447 349
f 424 448 449
f 424 449 396
f 372 396 450
f 397 451 452
f 397 326 451
f 450 426 372
f 398 426 453
f 326 276 454
f 399 454 276
f 398 453 455
f 400 398 455
f 373 399 302
f 400 455 427
f 456 427 457
f 427 456 402
f 402 456 354
f 328 428 403
f 456 458 354
f 458 459 354
f 354 459 355
f 375 431 430
f 405 406 460
f 461 405 460
f 405 461 432
f 460 406 434
f 356 407 431
f 355 459 462
f 463 376 432
f 404 355 462
f 436 330 433
f 407 329 436
f 462 464 404
f 435 437 465
f 437 466 465
f 404 464 380
f 437 438 466
f 410 380 464
f 439 466 438
f 381 410 467
f 467 440 381
f 411 382 468
f 382 363 469
f 335 412 470
f 363 384 469
f 335 470 386
f 471 441 413
f 413 442 471
f 386 472 385
f 385 472 473
f 385 473 414
f 387 388 444
f 415 474 389
f 390 417 475
f 390 475 444
f 391 416 476
f 391 476 418
f 417 418 475
f 420 477 419
f 446 477 420
f 394 478 422
f 445 478 394
f 421 479 446
f 448 424 422
f 480 425 371
f 371 452 480
f 452 371 397
f 449 450 396
f 481 426 450
f 426 481 453
f 427 455 482
f 427 482 457
f 428 483 403
f 353 484 429
f 353 430 484
f 460 485 461
f 461 463 432
f 486 431 407
f 487 488 435
f 488 434 435
f 376 489 433
f 490 486 407
f 407 436 490
f 435 465 487
f 466 491 465
f 492 466 439
f 439 411 468
f 440 467 412
f 493 468 382
f 470 412 494
f 493 382 469
f 384 441 469
f 470 472 386
f 442 495 471
f 495 442 443
f 414 473 496
f 414 496 415
f 387 444 497
f 474 415 496
f 389 474 416
f 416 474 476
f 445 419 477
f 477 498 445
f 423 499 421
f 421 499 479
f 395 500 423
f 447 395 370
f 447 425 501
f 502 448 422
f 478 502 422
f 502 449 448
f 503 450 449
f 503 481 450
f 504 453 481
f 455 453 504
f 504 505 455
f 373 506 399
f 507 456 457
f 508 456 507
f 373 483 509
f 403 483 373
f 456 510 458
f 511 428 429
f 429 484 511
f 512 460 434
f 513 461 485
f 514 515 434
f 431 516 484
f 431 484 430
f 459 458 517
f 514 434 488
f 516 431 486
f 376 518 489
f 376 463 518
f 490 436 433
f 487 465 519
f 520 491 521
f 519 491 520
f 519 465 491
f 491 466 492
f 464 522 410
f 491 492 521
f 410 522 523
f 439 468 524
f 439 524 492
f 467 410 523
f 467 494 412
f 525 470 494
f 441 526 469
f 527 526 441
f 471 527 441
f 495 528 471
f 473 472 529
f 443 387 530
f 474 531 476
f 418 532 475
f 418 476 533
f 478 445 534
f 534 445 498
f 477 446 479
f 500 499 423
f 395 447 500
f 477 535 498
f 479 535 477
f 499 536 479
f 537 502 478
f 425 480 538
f 538 480 452
f 502 503 449
f 326 454 451
f 503 539 481
f 481 539 504
f 399 540 454
f 399 506 540
f 455 505 482
f 482 507 457
f 373 509 506
f 508 507 541
f 456 508 510
f 428 542 483
f 428 511 542
f 458 510 543
f 485 460 512
f 513 485 544
f 484 545 511
f 434 515 512
f 463 461 513
f 546 463 513
f 484 516 545
f 463 546 518
f 516 486 547
f 433 548 549
f 489 548 433
f 490 549 547
f 490 433 549
f 486 490 547
f 488 487 550
f 550 519 551
f 487 519 550
f 551 520 552
f 551 519 520
f 462 553 522
f 462 522 464
f 520 521 554
f 492 554 521
f 523 522 555
f 467 523 556
f 557 467 556
f 557 494 467
f 557 558 494
f 493 469 526
f 494 558 525
f 529 470 525
f 470 529 472
f 527 471 528
f 473 529 559
f 495 443 530
f 530 387 497
f 473 559 496
f 496 560 474
f 497 444 561
f 444 475 561
f 475 532 561
f 533 532 418
f 562 499 500
f 447 563 500
f 501 563 447
f 534 498 564
f 564 498 535
f 562 536 499
f 425 538 501
f 534 537 478
f 479 565 535
f 536 565 479
f 452 451 538
f 503 502 566
f 566 539 503
f 504 567 505
f 505 567 482
f 567 568 482
f 507 568 541
f 507 482 568
f 509 569 506
f 515 570 512
f 546 513 571
f 458 543 517
f 514 488 550
f 572 545 516
f 572 516 547
f 459 517 462
f 462 573 553
f 574 551 575
f 551 552 575
f 522 553 576
f 552 520 575
f 520 554 575
f 554 577 575
f 556 578 579
f 556 579 557
f 525 558 580
f 525 580 529
f 580 581 529
f 495 582 528
f 583 529 581
f 582 495 530
f 583 559 529
f 560 496 559
f 497 561 584
f 585 474 560
f 474 585 531
f 476 531 586
f 476 586 533
f 563 501 587
f 451 588 538
f 566 502 537
f 454 589 451
f 454 590 589
f 540 590 454
f 539 567 504
f 506 569 540
f 509 591 569
f 483 591 509
f 544 485 512
f 542 591 483
f 592 515 514
f 571 513 544
f 542 511 593
f 543 510 594
f 518 546 571
f 511 545 593
f 545 595 593
f 514 550 592
f 572 595 545
f 595 572 547
f 550 596 597
f 489 518 548
f 595 547 548
f 547 549 548
f 596 550 551
f 462 517 573
f 598 574 575
f 599 522 576
f 600 598 577
f 598 575 577
f 555 522 599
f 554 600 577
f 554 492 601
f 555 602 578
f 523 555 578
f 601 492 524
f 523 578 556
f 557 579 603
f 557 604 558
f 558 604 580
f 468 493 605
f 493 526 605
f 526 606 605
f 527 606 526
f 607 559 583
f 497 584 530
f 584 608 530
f 560 559 607
f 500 609 562
f 563 609 500
f 563 587 609
f 562 610 536
f 611 610 562
f 587 501 538
f 612 587 538
f 588 612 538
f 536 613 565
f 610 613 536
f 537 534 614
f 564 614 534
f 566 537 614
f 614 615 566
f 616 539 566
f 590 540 617
f 540 569 617
f 618 619 617
f 569 618 617
f 568 567 620
f 618 621 619
f 621 622 619
f 568 620 623
f 541 568 623
f 618 569 591
f 622 544 624
f 621 544 622
f 625 621 618
f 591 625 618
f 626 508 623
f 508 541 623
f 512 570 624
f 544 512 624
f 571 544 621
f 627 571 621
f 628 625 591
f 508 594 510
f 626 594 508
f 515 629 630
f 570 515 630
f 625 627 621
f 627 625 631
f 628 631 625
f 628 591 542
f 629 515 592
f 542 593 628
f 629 592 632
f 627 518 571
f 593 595 628
f 627 633 518
f 592 550 632
f 548 518 633
f 595 548 633
f 551 634 596
f 634 551 574
f 553 573 576
f 574 598 635
f 599 576 636
f 637 555 599
f 600 554 638
f 601 638 554
f 639 579 578
f 639 603 579
f 557 603 604
f 524 468 640
f 468 605 640
f 604 641 580
f 641 581 580
f 527 642 606
f 528 642 527
f 528 643 642
f 582 643 528
f 581 644 583
f 582 530 608
f 645 560 607
f 531 585 646
f 647 561 532
f 531 646 586
f 533 586 648
f 649 562 609
f 649 611 562
f 650 564 535
f 535 565 651
f 614 564 652
f 588 589 653
f 451 589 588
f 651 650 535
f 590 654 589
f 566 615 655
f 590 617 654
f 616 566 655
f 654 617 656
f 617 619 656
f 539 616 567
f 619 657 656
f 616 620 567
f 658 624 570
f 619 624 657
f 622 624 619
f 631 633 627
f 628 633 631
f 595 633 628
f 632 550 597
f 659 517 543
f 517 660 573
f 574 635 634
f 576 573 661
f 599 636 662
f 662 637 599
f 663 598 600
f 555 637 602
f 602 664 578
f 578 664 665
f 639 578 665
f 639 666 603
f 666 667 603
f 603 667 604
f 604 668 641
f 669 640 605
f 641 644 581
f 583 644 607
f 560 645 585
f 647 584 561
f 586 646 648
f 587 670 609
f 609 670 649
f 649 671 611
f 612 672 587
f 611 673 610
f 671 673 611
f 673 613 610
f 565 613 674
f 652 564 650
f 674 651 565
f 652 615 614
f 654 675 589
f 656 675 654
f 676 675 656
f 677 655 615
f 657 676 656
f 657 624 658
f 678 570 630
f 658 570 678
f 620 679 623
f 680 626 623
f 626 681 594
f 682 629 632
f 659 594 683
f 594 659 543
f 517 659 660
f 573 660 684
f 576 661 636
f 598 663 635
f 637 662 685
f 637 685 686
f 663 600 638
f 663 638 687
f 637 686 602
f 687 638 688
f 602 686 664
f 601 689 638
f 639 665 666
f 601 640 690
f 524 640 601
f 667 691 604
f 604 691 668
f 692 605 606
f 641 668 693
f 642 692 606
f 644 641 693
f 644 694 607
f 695 645 607
f 645 695 696
f 585 645 696
f 647 697 584
f 585 696 646
f 698 532 533
f 698 533 648
f 587 672 670
f 612 588 672
f 615 652 699
f 699 652 650
f 615 699 700
f 615 701 677
f 657 658 676
f 616 655 702
f 620 616 702
f 679 620 702
f 678 630 682
f 682 630 629
f 679 680 623
f 626 680 681
f 683 594 681
f 703 632 597
f 703 682 632
f 684 660 659
f 661 573 684
f 704 662 636
f 662 704 685
f 663 705 635
f 687 688 706
f 664 686 707
f 665 664 707
f 665 707 708
f 665 708 666
f 688 638 689
f 666 709 710
f 667 666 710
f 710 691 667
f 601 690 689
f 669 690 640
f 711 668 691
f 669 605 712
f 605 692 712
f 692 642 643
f 643 582 713
f 582 608 713
f 644 693 694
f 694 695 607
f 714 646 696
f 698 647 532
f 648 646 714
f 715 673 671
f 588 653 672
f 589 716 653
f 589 675 716
f 717 675 676
f 701 615 700
f 676 718 717
f 676 678 718
f 676 658 678
f 702 655 719
f 719 655 677
f 680 720 681
f 679 720 680
f 721 720 679
f 681 722 683
f 723 703 597
f 659 724 684
f 723 597 596
f 723 596 634
f 725 661 684
f 634 635 726
f 661 727 636
f 635 705 726
f 687 728 705
f 705 663 687
f 686 685 707
f 706 729 728
f 728 687 706
f 706 730 729
f 730 731 729
f 706 688 730
f 709 732 710
f 710 732 731
f 730 733 731
f 733 710 731
f 730 688 689
f 734 710 733
f 710 734 691
f 734 735 691
f 691 735 711
f 668 711 693
f 643 713 692
f 693 736 694
f 584 697 608
f 648 714 698
f 671 649 737
f 649 670 737
f 671 737 715
f 670 738 737
f 672 738 670
f 672 739 738
f 672 653 739
f 673 740 613
f 613 740 674
f 675 741 716
f 717 741 675
f 651 699 650
f 651 742 699
f 678 682 718
f 679 702 721
f 702 719 721
f 720 743 681
f 681 743 722
f 683 722 744
f 683 744 659
f 744 724 659
f 634 745 723
f 724 725 684
f 725 746 727
f 661 725 727
f 636 727 704
f 685 704 747
f 747 748 685
f 685 748 707
f 728 729 749
f 732 749 729
f 709 750 732
f 708 750 709
f 729 731 732
f 709 666 708
f 734 733 751
f 752 751 733
f 751 735 734
f 690 669 753
f 669 712 753
f 712 754 753
f 755 711 735
f 692 754 712
f 756 754 692
f 711 757 693
f 713 758 756
f 756 692 713
f 759 758 713
f 757 736 693
f 713 608 759
f 608 697 759
f 736 695 694
f 736 760 695
f 760 761 695
f 647 762 697
f 695 761 696
f 696 761 714
f 714 762 698
f 647 698 762
f 715 740 673
f 653 716 739
f 763 651 674
f 742 651 763
f 717 718 764
f 699 765 700
f 765 766 700
f 766 701 700
f 677 701 719
f 721 719 767
f 767 719 768
f 719 701 768
f 682 703 769
f 770 743 720
f 721 770 720
f 743 771 722
f 770 771 743
f 722 772 744
f 744 773 774
f 724 744 774
f 724 774 725
f 634 726 745
f 727 775 704
f 728 776 705
f 750 749 732
f 708 707 748
f 733 730 777
f 752 733 777
f 777 730 689
f 752 778 751
f 689 690 777
f 735 751 778
f 778 755 735
f 757 711 755
f 779 697 762
f 761 760 780
f 761 780 714
f 715 737 781
f 781 737 738
f 715 782 740
f 781 782 715
f 716 741 739
f 741 717 783
f 717 764 783
f 699 742 765
f 718 784 764
f 682 769 784
f 718 682 784
f 767 770 721
f 785 769 703
f 722 771 772
f 767 786 787
f 768 786 767
f 703 723 785
f 744 772 773
f 774 773 788
f 746 774 788
f 774 746 725
f 745 726 789
f 746 790 727
f 727 790 775
f 704 775 747
f 775 748 747
f 789 705 776
f 726 705 789
f 750 791 749
f 708 748 792
f 750 708 792
f 777 690 793
f 777 794 752
f 778 752 794
f 795 793 690
f 795 690 753
f 753 754 795
f 757 755 796
f 759 697 779
f 757 797 736
f 760 736 797
f 762 714 780
f 782 781 798
f 738 798 781
f 738 739 799
f 738 799 798
f 739 741 799
f 740 782 800
f 801 799 783
f 741 783 799
f 674 740 800
f 783 764 801
f 802 674 800
f 803 801 764
f 763 674 802
f 803 764 784
f 804 766 765
f 767 805 770
f 805 771 770
f 767 787 805
f 766 768 701
f 806 772 771
f 806 771 805
f 773 772 806
f 768 807 786
f 808 807 768
f 766 808 768
f 773 806 788
f 723 745 809
f 745 789 810
f 790 746 788
f 790 788 811
f 811 812 790
f 775 790 812
f 748 775 812
f 813 748 812
f 791 776 749
f 792 748 813
f 728 749 776
f 750 792 814
f 793 794 777
f 793 795 815
f 795 754 815
f 796 778 794
f 796 755 778
f 754 756 815
f 816 815 756
f 758 816 756
f 758 759 816
f 759 817 816
f 796 818 757
f 818 797 757
f 759 779 817
f 818 819 797
f 817 779 820
f 819 760 797
f 780 760 819
f 820 780 819
f 779 762 820
f 762 780 820
f 799 821 798
f 822 821 799
f 821 823 782
f 821 782 798
f 782 823 800
f 799 801 822
f 824 822 801
f 802 800 823
f 803 824 801
f 763 802 825
f 803 826 824
f 742 763 827
f 827 763 825
f 765 742 827
f 803 784 826
f 828 765 827
f 804 765 828
f 784 785 829
f 769 785 784
f 785 723 829
f 766 804 808
f 808 804 830
f 829 723 809
f 805 811 806
f 811 788 806
f 831 811 805
f 787 831 805
f 787 786 807
f 809 745 810
f 807 831 787
f 812 811 831
f 832 812 831
f 807 832 831
f 808 832 807
f 789 833 810
f 789 776 833
f 834 813 832
f 812 832 813
f 813 834 814
f 792 813 814
f 750 814 791
f 815 794 793
f 794 835 796
f 836 835 794
f 815 836 794
f 815 837 836
f 816 837 815
f 837 838 836
f 835 818 796
f 836 838 835
f 838 818 835
f 837 817 838
f 816 817 837
f 838 819 818
f 817 820 838
f 838 820 819
f 821 822 839
f 821 840 823
f 839 840 821
f 822 824 839
f 840 841 823
f 839 842 840
f 824 842 839
f 802 823 843
f 843 823 841
f 824 826 842
f 825 802 843
f 826 844 842
f 826 784 844
f 827 845 828
f 784 829 844
f 804 828 845
f 830 804 845
f 844 829 846
f 846 829 809
f 830 847 808
f 809 810 846
f 847 834 808
f 808 834 832
f 848 849 834
f 850 833 776
f 834 849 814
f 776 791 850
f 791 814 849
f 851 841 840
f 840 842 851
f 843 841 851
f 843 851 852
f 842 844 852
f 842 852 851
f 825 843 853
f 852 853 843
f 825 854 827
f 853 855 825
f 856 855 853
f 844 856 853
f 852 844 853
f 854 845 827
f 855 854 825
f 844 846 856
f 846 857 856
f 845 858 830
f 846 810 857
f 858 847 830
f 858 859 847
f 847 848 834
f 859 848 847
f 810 833 857
f 859 860 848
f 857 833 861
f 833 850 861
f 861 850 860
f 860 849 848
f 850 791 860
f 791 849 860
f 845 854 858
f 856 857 855
f 855 862 854
f 857 862 855
f 854 859 858
f 862 859 854
f 861 859 862
f 857 861 862
f 861 860 859

