# https://github.com/mikedh/trimesh
v 3524.33000000 3390.34000000 4750.33000000
v 3561.16000000 3374.35000000 4773.13000000
v 3514.80000000 3358.65000000 4769.68000000
v 3581.03000000 3414.50000000 4770.01000000
v 3494.55000000 3403.83000000 4767.51000000
v 3521.42000000 3426.14000000 4757.58000000
v 3550.90000000 3458.31000000 4766.56000000
v 3482.28000000 3358.64000000 4783.83000000
v 3548.56000000 3351.70000000 4807.22000000
v 3647.74000000 3401.17000000 4824.38000000
v 3670.12000000 3447.33000000 4822.02000000
v 3601.17000000 3472.96000000 4785.94000000
v 3463.79000000 3446.80000000 4816.12000000
v 3519.54000000 3467.95000000 4779.33000000
v 3581.49000000 3512.90000000 4784.90000000
v 3555.39000000 3516.25000000 4785.83000000
v 3485.01000000 3338.23000000 4807.28000000
v 3454.90000000 3374.89000000 4806.68000000
v 3639.30000000 3373.85000000 4862.65000000
v 3529.90000000 3551.34000000 4811.54000000
v 3678.77000000 3555.55000000 4844.05000000
v 3584.88000000 3588.88000000 4816.62000000
v 3449.15000000 3315.68000000 4844.32000000
v 3425.61000000 3331.76000000 4845.99000000
v 3500.62000000 3327.83000000 4877.06000000
v 3725.44000000 3420.35000000 4870.33000000
v 3476.39000000 3589.96000000 4873.96000000
v 3543.59000000 3650.97000000 4841.21000000
v 3559.16000000 3612.51000000 4823.66000000
v 3582.61000000 3676.60000000 4838.57000000
v 3589.65000000 3352.54000000 4894.51000000
v 3402.71000000 3365.75000000 4858.61000000
v 3358.70000000 3320.82000000 4900.90000000
v 3760.07000000 3437.56000000 4881.77000000
v 3766.53000000 3468.39000000 4884.76000000
v 3628.13000000 3707.13000000 4852.53000000
v 3675.87000000 3735.82000000 4875.66000000
v 3574.47000000 3735.14000000 4856.28000000
v 3599.96000000 3763.52000000 4859.99000000
v 3358.86000000 3301.55000000 4925.33000000
v 3415.75000000 3309.67000000 4892.23000000
v 3440.82000000 3311.06000000 4891.93000000
v 3683.85000000 3359.73000000 4983.11000000
v 3389.64000000 3443.10000000 4900.71000000
v 3760.40000000 3396.54000000 4921.44000000
v 3802.69000000 3421.18000000 4919.14000000
v 3809.91000000 3535.26000000 4923.01000000
v 3381.17000000 3585.37000000 4975.94000000
v 3732.33000000 3701.56000000 4904.92000000
v 3543.72000000 3737.71000000 4874.64000000
v 3653.24000000 3861.17000000 4887.23000000
v 3585.01000000 3823.84000000 4877.66000000
v 3618.11000000 3849.89000000 4879.32000000
v 3345.46000000 3353.25000000 4917.44000000
v 3724.21000000 3374.85000000 4948.96000000
v 3496.39000000 3794.48000000 4937.30000000
v 3694.93000000 3850.43000000 4909.89000000
v 3558.43000000 3834.37000000 4896.47000000
v 3582.19000000 3924.68000000 4906.27000000
v 3624.04000000 3969.49000000 4905.12000000
v 3434.19000000 3307.27000000 4981.78000000
v 3328.97000000 3301.52000000 4940.03000000
v 3313.20000000 3313.51000000 4952.70000000
v 3830.30000000 3452.23000000 4931.39000000
v 3746.30000000 3806.48000000 4944.88000000
v 3527.50000000 3989.66000000 4954.47000000
v 3659.77000000 3974.26000000 4919.33000000
v 3705.09000000 3925.13000000 4944.04000000
v 3597.27000000 4041.01000000 4920.81000000
v 3568.48000000 4036.79000000 4932.90000000
v 3613.12000000 4065.25000000 4932.35000000
v 3323.64000000 3281.33000000 5007.12000000
v 3302.49000000 3405.90000000 4991.36000000
v 3568.92000000 3335.48000000 5010.15000000
v 3798.38000000 3666.34000000 4945.68000000
v 3792.66000000 3739.72000000 4968.18000000
v 3449.95000000 3889.28000000 5017.61000000
v 3673.68000000 4013.95000000 4947.85000000
v 3546.81000000 4104.59000000 4955.87000000
v 3636.18000000 4077.42000000 4954.28000000
v 3575.98000000 4107.09000000 4948.10000000
v 3548.19000000 4161.54000000 4967.80000000
v 3595.58000000 4138.39000000 4966.29000000
v 3301.87000000 3292.44000000 4983.99000000
v 3873.74000000 3415.68000000 4977.74000000
v 3867.04000000 3388.10000000 5009.69000000
v 3903.41000000 3479.85000000 4991.19000000
v 3850.07000000 3580.98000000 4967.41000000
v 3838.45000000 3655.90000000 4982.74000000
v 3357.46000000 3743.64000000 5078.48000000
v 3744.63000000 3882.07000000 4989.27000000
v 3705.06000000 3969.45000000 4978.02000000
v 3515.15000000 4146.08000000 4993.23000000
v 3456.42000000 4046.94000000 5045.91000000
v 3669.06000000 4049.43000000 4988.48000000
v 3606.11000000 4161.32000000 5011.71000000
v 3537.14000000 4200.85000000 4987.79000000
v 3560.67000000 4178.72000000 4978.72000000
v 3277.06000000 3318.99000000 5001.12000000
v 3808.31000000 3363.21000000 5050.36000000
v 3824.32000000 3722.82000000 5008.87000000
v 3787.41000000 3784.03000000 5001.12000000
v 3512.89000000 4246.76000000 5024.49000000
v 3570.77000000 4196.49000000 4999.03000000
v 3535.47000000 4238.39000000 5020.71000000
v 3253.09000000 3277.88000000 5051.33000000
v 3250.34000000 3295.75000000 5034.84000000
v 3334.74000000 3281.63000000 5103.62000000
v 3225.22000000 3320.87000000 5057.11000000
v 3934.71000000 3394.73000000 5052.63000000
v 3936.01000000 3430.39000000 5029.43000000
v 3953.96000000 3459.71000000 5040.74000000
v 3889.43000000 3578.04000000 5006.93000000
v 3934.62000000 3521.09000000 5040.85000000
v 3864.70000000 3650.29000000 5021.21000000
v 3707.97000000 3989.64000000 5118.25000000
v 3460.43000000 4177.61000000 5062.78000000
v 3639.19000000 4120.00000000 5088.02000000
v 3204.86000000 3394.38000000 5107.81000000
v 3660.70000000 3341.00000000 5092.43000000
v 3266.15000000 3524.86000000 5092.99000000
v 3902.26000000 3602.32000000 5048.48000000
v 3816.85000000 3752.38000000 5033.81000000
v 3796.76000000 3803.55000000 5120.64000000
v 3380.42000000 3912.02000000 5110.79000000
v 3578.78000000 4225.89000000 5168.07000000
v 3483.61000000 4234.38000000 5049.93000000
v 3551.55000000 4240.90000000 5062.31000000
v 3474.77000000 4300.85000000 5094.73000000
v 3504.88000000 4282.53000000 5064.98000000
v 3513.58000000 4285.79000000 5078.96000000
v 3209.38000000 3288.28000000 5086.32000000
v 3262.55000000 3271.53000000 5115.79000000
v 3509.36000000 3318.60000000 5119.25000000
v 3421.72000000 3300.01000000 5208.20000000
v 3597.04000000 3329.57000000 5145.74000000
v 3736.32000000 3341.26000000 5125.89000000
v 3895.26000000 3368.48000000 5087.73000000
v 3958.94000000 3428.49000000 5066.34000000
v 3960.33000000 3477.03000000 5071.84000000
v 3937.21000000 3547.84000000 5080.87000000
v 3854.81000000 3689.29000000 5061.88000000
v 3395.15000000 4021.53000000 5124.89000000
v 3432.47000000 4235.94000000 5127.98000000
v 3208.09000000 3273.38000000 5119.04000000
v 3175.49000000 3295.71000000 5118.27000000
v 3159.20000000 3321.44000000 5142.66000000
v 3928.10000000 3373.32000000 5111.18000000
v 3946.35000000 3396.10000000 5096.83000000
v 3898.56000000 3621.06000000 5086.45000000
v 3406.49000000 4100.80000000 5132.13000000
v 3479.42000000 4324.54000000 5125.13000000
v 3132.58000000 3355.02000000 5190.28000000
v 3867.55000000 3349.67000000 5147.33000000
v 3165.67000000 3494.28000000 5224.33000000
v 3951.46000000 3431.50000000 5116.58000000
v 3952.73000000 3491.44000000 5106.37000000
v 3906.08000000 3603.71000000 5121.69000000
v 3427.82000000 4330.58000000 5177.44000000
v 3453.55000000 4341.07000000 5157.95000000
v 3508.32000000 4304.76000000 5146.41000000
v 3163.72000000 3279.88000000 5150.31000000
v 3207.59000000 3264.32000000 5188.02000000
v 3810.88000000 3331.89000000 5220.02000000
v 3903.90000000 3361.14000000 5143.38000000
v 3919.66000000 3382.96000000 5158.57000000
v 3922.59000000 3547.02000000 5138.37000000
v 3860.08000000 3681.09000000 5142.57000000
v 3655.02000000 4100.52000000 5196.51000000
v 3380.08000000 4256.15000000 5235.60000000
v 3163.17000000 3266.21000000 5195.87000000
v 3137.04000000 3289.72000000 5179.08000000
v 3106.85000000 3313.35000000 5227.43000000
v 3657.23000000 3331.20000000 5196.70000000
v 3913.44000000 3402.82000000 5207.46000000
v 3921.56000000 3476.23000000 5170.87000000
v 3241.12000000 3668.85000000 5203.73000000
v 3881.24000000 3584.37000000 5200.29000000
v 3310.56000000 3835.84000000 5181.10000000
v 3338.16000000 3981.76000000 5199.65000000
v 3357.94000000 4123.03000000 5225.11000000
v 3448.00000000 4360.52000000 5185.79000000
v 3117.78000000 3272.03000000 5236.17000000
v 3263.89000000 3274.07000000 5302.57000000
v 3728.77000000 3325.91000000 5243.58000000
v 3899.23000000 3369.85000000 5221.01000000
v 3891.23000000 3452.52000000 5252.08000000
v 3894.26000000 3504.32000000 5223.70000000
v 3847.17000000 3632.77000000 5270.35000000
v 3817.12000000 3761.32000000 5295.14000000
v 3690.88000000 4042.23000000 5371.74000000
v 3487.33000000 4345.00000000 5251.68000000
v 3464.92000000 4346.36000000 5187.07000000
v 3121.61000000 3262.09000000 5268.21000000
v 3155.04000000 3262.20000000 5350.72000000
v 3568.53000000 3317.51000000 5245.72000000
v 3874.38000000 3352.64000000 5207.06000000
v 3556.10000000 4272.00000000 5381.47000000
v 3429.55000000 4360.86000000 5211.26000000
v 3428.09000000 4375.07000000 5258.01000000
v 3096.40000000 3287.01000000 5254.46000000
v 3840.41000000 3330.92000000 5293.36000000
v 3174.22000000 3669.98000000 5313.44000000
v 3754.24000000 3904.22000000 5342.21000000
v 3266.61000000 4004.88000000 5343.99000000
v 3628.46000000 4154.25000000 5379.30000000
v 3387.82000000 4352.41000000 5299.97000000
v 3081.35000000 3407.05000000 5329.81000000
v 3863.50000000 3487.22000000 5317.20000000
v 3826.60000000 3727.15000000 5395.04000000
v 3251.39000000 3826.03000000 5268.78000000
v 3331.88000000 4181.68000000 5302.43000000
v 3341.94000000 4266.30000000 5343.84000000
v 3435.02000000 4395.64000000 5318.03000000
v 3082.47000000 3266.47000000 5328.78000000
v 3070.10000000 3279.98000000 5323.91000000
v 3069.58000000 3316.64000000 5316.47000000
v 3364.51000000 3293.83000000 5433.83000000
v 3727.12000000 3313.20000000 5364.12000000
v 3867.10000000 3359.31000000 5293.91000000
v 3877.53000000 3414.85000000 5291.89000000
v 3111.52000000 3532.05000000 5351.41000000
v 3831.35000000 3644.90000000 5396.38000000
v 3392.63000000 4400.27000000 5357.90000000
v 3409.32000000 4409.85000000 5360.96000000
v 3098.49000000 3261.73000000 5387.79000000
v 3166.26000000 3264.14000000 5498.03000000
v 3488.03000000 3304.86000000 5337.30000000
v 3665.67000000 3319.45000000 5290.20000000
v 3805.35000000 3317.20000000 5388.39000000
v 3832.15000000 3332.69000000 5404.35000000
v 3035.50000000 3349.51000000 5404.58000000
v 3193.15000000 3798.32000000 5360.37000000
v 3496.43000000 4353.93000000 5416.48000000
v 3456.84000000 4387.53000000 5384.06000000
v 3788.59000000 3828.98000000 5473.83000000
v 3525.12000000 4323.04000000 5477.06000000
v 3420.60000000 4416.40000000 5460.13000000
v 3514.58000000 3303.02000000 5444.19000000
v 3605.29000000 3310.26000000 5357.92000000
v 3844.60000000 3352.67000000 5401.15000000
v 3851.32000000 3393.59000000 5388.46000000
v 3836.25000000 3541.05000000 5417.94000000
v 3813.31000000 3761.98000000 5520.21000000
v 3294.27000000 4184.05000000 5412.95000000
v 3056.22000000 3266.84000000 5453.28000000
v 3050.20000000 3277.00000000 5400.60000000
v 3034.20000000 3298.70000000 5423.91000000
v 3814.94000000 3322.13000000 5465.73000000
v 3024.97000000 3403.25000000 5474.45000000
v 3120.73000000 3680.38000000 5444.41000000
v 3326.71000000 4303.22000000 5435.68000000
v 3386.78000000 4420.16000000 5442.17000000
v 3399.91000000 4421.21000000 5456.92000000
v 3229.51000000 3281.17000000 5552.60000000
v 3073.22000000 3525.85000000 5446.46000000
v 3828.93000000 3594.29000000 5474.45000000
v 3823.19000000 3657.87000000 5496.78000000
v 3183.67000000 3882.94000000 5457.76000000
v 3720.79000000 3975.59000000 5524.19000000
v 3545.14000000 4288.43000000 5551.98000000
v 3360.55000000 4390.89000000 5465.53000000
v 3091.19000000 3263.58000000 5494.04000000
v 3035.82000000 3276.77000000 5464.83000000
v 3633.46000000 3304.01000000 5491.38000000
v 3009.56000000 3329.42000000 5501.70000000
v 3836.60000000 3440.25000000 5471.15000000
v 3235.29000000 4062.42000000 5485.91000000
v 3610.39000000 4185.07000000 5524.17000000
v 3746.73000000 3308.11000000 5497.86000000
v 3829.19000000 3368.96000000 5489.54000000
v 3075.98000000 3601.56000000 5506.24000000
v 3664.20000000 4088.31000000 5484.65000000
v 3500.92000000 4349.19000000 5523.22000000
v 3461.49000000 4385.41000000 5499.94000000
v 3376.04000000 4421.22000000 5509.32000000
v 3038.54000000 3271.68000000 5512.57000000
v 3016.76000000 3290.21000000 5533.39000000
v 3809.64000000 3332.15000000 5528.11000000
v 3277.18000000 4216.07000000 5528.79000000
v 3480.04000000 3301.68000000 5529.04000000
v 3788.88000000 3318.54000000 5523.20000000
v 3827.25000000 3563.01000000 5513.15000000
v 3082.02000000 3663.24000000 5568.70000000
v 3136.18000000 3804.49000000 5530.39000000
v 3228.82000000 4098.35000000 5567.33000000
v 3318.14000000 4329.48000000 5544.95000000
v 3386.15000000 4423.30000000 5521.49000000
v 3351.75000000 3297.88000000 5559.45000000
v 2997.62000000 3312.93000000 5579.05000000
v 3007.43000000 3392.84000000 5574.94000000
v 3047.95000000 3516.48000000 5532.38000000
v 3816.29000000 3653.24000000 5567.15000000
v 3183.07000000 3957.24000000 5555.90000000
v 3365.64000000 4413.61000000 5541.03000000
v 3421.22000000 4406.19000000 5556.94000000
v 3049.15000000 3277.62000000 5586.12000000
v 3603.18000000 3303.65000000 5569.63000000
v 3686.89000000 3305.00000000 5543.87000000
v 3819.15000000 3497.59000000 5566.52000000
v 3796.79000000 3770.30000000 5595.46000000
v 3346.59000000 4388.05000000 5572.52000000
v 3677.17000000 3311.48000000 5578.42000000
v 3804.93000000 3374.27000000 5588.97000000
v 3132.02000000 3824.73000000 5599.95000000
v 3289.54000000 4264.59000000 5597.46000000
v 3478.14000000 4360.67000000 5564.62000000
v 3008.70000000 3301.19000000 5598.54000000
v 3765.71000000 3338.65000000 5608.89000000
v 3035.22000000 3507.13000000 5608.55000000
v 3066.26000000 3612.99000000 5622.91000000
v 3753.21000000 3885.58000000 5595.62000000
v 3175.90000000 3954.70000000 5621.77000000
v 3215.32000000 4062.63000000 5612.76000000
v 3654.78000000 4095.20000000 5580.67000000
v 3254.61000000 4162.88000000 5603.65000000
v 3583.86000000 4211.06000000 5600.39000000
v 3505.56000000 4312.15000000 5611.15000000
v 3316.59000000 4320.90000000 5611.10000000
v 3377.81000000 4403.49000000 5585.06000000
v 3124.75000000 3271.58000000 5557.35000000
v 3315.20000000 3305.23000000 5622.87000000
v 3001.12000000 3340.71000000 5623.30000000
v 3504.91000000 3308.00000000 5595.63000000
v 3011.02000000 3406.80000000 5627.51000000
v 3100.09000000 3710.10000000 5627.37000000
v 3124.39000000 3782.72000000 5637.87000000
v 3151.62000000 3857.99000000 5643.90000000
v 3692.86000000 4002.40000000 5617.18000000
v 3202.14000000 4026.04000000 5635.92000000
v 3345.48000000 4363.44000000 5615.11000000
v 3429.92000000 4372.81000000 5611.11000000
v 3030.87000000 3309.01000000 5633.86000000
v 3218.78000000 3299.78000000 5645.91000000
v 3525.68000000 3320.20000000 5643.81000000
v 3642.28000000 3323.68000000 5620.60000000
v 3789.36000000 3374.64000000 5635.23000000
v 3802.06000000 3474.81000000 5622.52000000
v 3023.15000000 3444.50000000 5647.86000000
v 3803.21000000 3592.07000000 5615.44000000
v 3051.54000000 3537.34000000 5643.20000000
v 3192.04000000 3971.94000000 5651.39000000
v 3730.31000000 3907.92000000 5646.42000000
v 3234.13000000 4075.62000000 5650.06000000
v 3623.14000000 4117.71000000 5636.19000000
v 3286.58000000 4217.57000000 5639.91000000
v 3114.79000000 3292.82000000 5620.61000000
v 3141.42000000 3305.86000000 5662.51000000
v 3588.91000000 3342.22000000 5655.01000000
v 3367.92000000 3322.00000000 5654.75000000
v 3010.09000000 3385.95000000 5641.19000000
v 3786.94000000 3525.44000000 5654.07000000
v 3081.19000000 3617.46000000 5653.64000000
v 3783.49000000 3710.55000000 5647.59000000
v 3120.45000000 3716.36000000 5660.08000000
v 3764.00000000 3818.84000000 5632.83000000
v 3546.10000000 4231.37000000 5642.36000000
v 3325.95000000 4310.14000000 5638.80000000
v 3468.00000000 4316.29000000 5644.27000000
v 3372.64000000 4341.15000000 5641.07000000
v 3423.99000000 4340.84000000 5641.49000000
v 3078.56000000 3319.79000000 5660.13000000
v 3257.89000000 3330.84000000 5670.07000000
v 3032.17000000 3376.14000000 5650.14000000
v 3742.32000000 3394.48000000 5651.48000000
v 3456.74000000 3352.29000000 5672.18000000
v 3757.25000000 3491.95000000 5672.78000000
v 3058.86000000 3498.14000000 5662.32000000
v 3765.18000000 3621.91000000 5671.20000000
v 3088.12000000 3597.53000000 5664.45000000
v 3734.01000000 3819.94000000 5663.86000000
v 3169.61000000 3849.65000000 5667.87000000
v 3663.72000000 3995.98000000 5658.92000000
v 3218.24000000 3972.83000000 5670.84000000
v 3250.51000000 4052.59000000 5673.39000000
v 3571.28000000 4144.24000000 5665.14000000
v 3287.73000000 4146.14000000 5669.91000000
v 3334.80000000 4262.01000000 5659.45000000
v 3502.02000000 4242.27000000 5662.48000000
v 3373.66000000 4295.64000000 5666.35000000
v 3429.08000000 4281.68000000 5662.07000000
v 3085.81000000 3414.51000000 5673.85000000
v 3169.76000000 3361.19000000 5674.62000000
v 3406.02000000 3380.64000000 5682.90000000
v 3630.75000000 3404.57000000 5673.49000000
v 3333.29000000 3623.31000000 5688.25000000
v 3723.25000000 3544.09000000 5680.29000000
v 3593.02000000 3633.82000000 5686.80000000
v 3145.86000000 3609.01000000 5675.17000000
v 3251.26000000 3828.95000000 5688.96000000
v 3699.80000000 3713.74000000 5681.31000000
v 3174.99000000 3771.95000000 5675.51000000
v 3218.11000000 3891.72000000 5678.78000000
v 3377.47000000 3970.28000000 5691.65000000
v 3643.76000000 3887.75000000 5679.02000000
v 3279.24000000 4015.85000000 5680.19000000
v 3583.67000000 4024.98000000 5676.79000000
v 3481.98000000 4118.01000000 5677.02000000
v 3364.69000000 4157.48000000 5671.59000000
f 1 2 3
f 4 2 1
f 1 5 6
f 4 1 7
f 7 1 6
f 1 8 5
f 1 3 8
f 3 2 9
f 2 4 10
f 11 10 4
f 12 11 4
f 5 13 14
f 5 14 6
f 4 7 12
f 7 6 14
f 12 7 15
f 14 16 7
f 15 7 16
f 8 3 17
f 3 9 17
f 8 18 5
f 2 10 19
f 18 13 5
f 20 16 14
f 12 15 21
f 21 15 22
f 15 16 22
f 22 16 20
f 17 23 24
f 23 17 25
f 17 24 8
f 17 9 25
f 24 18 8
f 2 19 9
f 10 11 26
f 11 12 21
f 14 13 20
f 13 27 20
f 20 27 28
f 20 29 22
f 28 29 20
f 22 29 30
f 9 31 25
f 32 24 33
f 24 32 18
f 9 19 31
f 18 32 13
f 26 11 34
f 35 34 11
f 11 21 35
f 22 36 21
f 36 37 21
f 29 28 30
f 30 28 38
f 22 30 36
f 30 38 39
f 36 30 39
f 24 40 33
f 40 24 41
f 24 23 41
f 25 42 23
f 19 43 31
f 44 13 32
f 26 45 10
f 26 34 46
f 44 27 13
f 35 21 47
f 27 44 48
f 49 21 37
f 28 27 50
f 28 50 38
f 37 36 51
f 38 50 52
f 38 52 39
f 36 39 53
f 51 36 53
f 53 39 52
f 41 23 42
f 32 33 54
f 55 43 19
f 10 45 19
f 26 46 45
f 49 47 21
f 56 50 27
f 37 51 57
f 57 49 37
f 52 50 58
f 59 52 58
f 53 52 59
f 51 53 60
f 53 59 60
f 40 41 61
f 41 42 61
f 33 62 63
f 40 62 33
f 54 33 63
f 32 54 44
f 45 55 19
f 64 46 34
f 64 34 35
f 50 56 58
f 65 49 57
f 59 58 56
f 66 59 56
f 51 60 67
f 51 67 57
f 68 57 67
f 60 59 69
f 70 59 66
f 69 59 70
f 60 69 71
f 71 67 60
f 40 61 72
f 42 25 61
f 54 63 73
f 31 43 74
f 64 35 47
f 49 75 47
f 49 65 75
f 65 76 75
f 56 77 66
f 65 57 68
f 68 67 78
f 66 79 70
f 67 71 80
f 80 78 67
f 81 79 82
f 70 79 81
f 69 70 81
f 83 71 81
f 81 71 69
f 80 71 83
f 62 84 63
f 62 40 84
f 84 40 72
f 54 73 44
f 45 46 85
f 45 85 86
f 46 64 85
f 87 64 47
f 73 48 44
f 47 75 88
f 89 88 75
f 56 48 90
f 56 27 48
f 89 75 76
f 91 65 68
f 68 92 91
f 68 78 92
f 93 66 94
f 79 66 93
f 92 78 95
f 79 93 82
f 80 95 78
f 80 96 95
f 80 83 96
f 97 82 93
f 81 82 98
f 98 83 81
f 82 97 98
f 99 63 84
f 99 73 63
f 31 74 25
f 43 55 100
f 55 45 100
f 87 85 64
f 47 88 87
f 89 76 101
f 76 102 101
f 76 65 102
f 65 91 102
f 77 94 66
f 97 93 103
f 83 98 104
f 96 83 104
f 97 103 105
f 105 98 97
f 104 98 105
f 84 106 107
f 106 84 72
f 84 107 99
f 72 61 108
f 99 107 109
f 25 74 61
f 99 109 73
f 45 86 100
f 110 86 85
f 111 85 87
f 112 111 87
f 87 88 113
f 113 114 87
f 88 89 113
f 113 89 115
f 89 101 115
f 91 92 116
f 92 95 116
f 94 117 93
f 118 95 96
f 119 73 109
f 74 43 120
f 85 111 110
f 87 114 112
f 73 121 48
f 113 122 114
f 113 115 122
f 90 48 121
f 77 56 90
f 101 102 123
f 123 102 124
f 124 102 91
f 125 94 77
f 116 95 118
f 118 96 126
f 127 93 117
f 128 96 104
f 103 93 127
f 105 128 104
f 103 127 129
f 103 130 105
f 129 130 103
f 131 105 130
f 131 128 105
f 107 106 132
f 72 133 106
f 72 108 133
f 107 132 109
f 61 134 135
f 61 74 134
f 74 136 134
f 100 137 43
f 138 100 86
f 86 110 138
f 110 111 139
f 112 139 111
f 140 139 112
f 119 121 73
f 112 114 140
f 114 122 141
f 115 142 122
f 115 101 142
f 101 123 142
f 77 90 125
f 124 91 116
f 143 94 125
f 126 96 128
f 144 127 117
f 132 106 145
f 145 106 133
f 61 135 108
f 132 146 109
f 109 147 119
f 146 147 109
f 74 120 136
f 43 137 120
f 138 110 148
f 149 148 110
f 110 139 149
f 141 140 114
f 150 141 122
f 122 142 150
f 123 124 142
f 94 151 117
f 143 151 94
f 144 117 151
f 129 127 144
f 130 129 152
f 131 130 152
f 153 119 147
f 138 154 100
f 155 119 153
f 139 140 156
f 156 140 157
f 157 140 141
f 158 141 150
f 159 129 144
f 160 129 159
f 161 131 152
f 152 129 160
f 132 145 162
f 133 163 145
f 132 162 146
f 164 137 100
f 154 164 100
f 138 165 154
f 138 148 165
f 148 149 166
f 156 149 139
f 119 155 121
f 157 141 167
f 141 158 167
f 150 168 158
f 150 142 168
f 118 169 116
f 128 161 126
f 131 161 128
f 159 144 170
f 162 145 171
f 145 163 171
f 146 162 172
f 146 172 147
f 172 173 147
f 120 174 136
f 120 137 174
f 173 153 147
f 148 166 165
f 149 156 166
f 166 156 175
f 176 175 156
f 156 157 176
f 157 167 176
f 177 121 155
f 178 167 158
f 158 168 178
f 121 177 90
f 177 179 90
f 124 168 142
f 125 90 179
f 125 180 143
f 151 143 180
f 151 181 144
f 169 118 126
f 160 182 152
f 162 171 183
f 133 184 163
f 108 184 133
f 162 183 172
f 108 135 184
f 137 185 174
f 137 164 185
f 175 186 166
f 187 175 176
f 167 188 176
f 168 189 178
f 190 189 168
f 168 124 190
f 116 169 191
f 170 144 181
f 161 192 126
f 152 193 161
f 193 152 182
f 183 171 194
f 163 195 171
f 134 196 135
f 166 197 165
f 187 176 188
f 167 178 188
f 179 180 125
f 180 181 151
f 126 192 198
f 161 193 192
f 160 159 199
f 160 199 182
f 182 199 200
f 200 193 182
f 171 195 194
f 172 183 201
f 201 173 172
f 202 164 197
f 164 154 197
f 165 197 154
f 186 197 166
f 203 177 155
f 124 204 190
f 124 116 204
f 181 180 205
f 206 169 126
f 206 126 198
f 207 159 170
f 199 159 207
f 192 193 200
f 163 184 195
f 136 196 134
f 136 174 196
f 173 208 153
f 155 153 208
f 188 178 209
f 209 178 189
f 189 190 210
f 177 211 179
f 211 180 179
f 205 212 181
f 191 169 206
f 181 212 170
f 207 170 213
f 200 214 192
f 183 215 216
f 201 183 216
f 183 194 215
f 201 216 217
f 135 218 184
f 201 217 173
f 185 164 219
f 217 208 173
f 220 197 186
f 186 175 220
f 220 175 221
f 175 187 221
f 208 222 155
f 189 210 223
f 211 205 180
f 212 213 170
f 200 207 224
f 200 199 207
f 200 224 225
f 200 225 214
f 194 195 226
f 195 184 227
f 135 228 218
f 196 228 135
f 229 185 219
f 202 230 164
f 164 230 219
f 231 230 202
f 217 232 208
f 174 229 196
f 185 229 174
f 202 220 231
f 197 220 202
f 155 222 203
f 187 188 209
f 177 203 211
f 233 211 203
f 205 211 233
f 192 234 198
f 214 235 192
f 235 234 192
f 194 226 215
f 209 221 187
f 236 190 204
f 198 234 237
f 214 225 238
f 218 228 239
f 196 229 240
f 229 219 240
f 241 220 242
f 220 221 242
f 209 189 243
f 243 189 223
f 210 236 244
f 190 236 210
f 116 191 204
f 213 212 245
f 214 238 235
f 215 246 247
f 216 215 247
f 215 226 246
f 216 247 248
f 217 216 248
f 196 240 228
f 231 249 230
f 217 248 232
f 220 241 231
f 208 232 250
f 221 209 242
f 203 222 251
f 203 251 233
f 245 212 205
f 207 213 252
f 225 224 253
f 225 253 254
f 238 225 254
f 184 218 255
f 208 250 256
f 208 256 222
f 256 251 222
f 243 223 257
f 223 210 258
f 210 244 258
f 259 205 233
f 204 191 260
f 252 213 245
f 261 198 237
f 224 262 253
f 226 263 246
f 226 195 263
f 247 264 248
f 228 240 239
f 240 219 265
f 248 266 232
f 242 209 267
f 209 243 267
f 259 233 251
f 259 268 205
f 245 205 268
f 206 198 269
f 262 224 207
f 247 246 264
f 240 265 239
f 270 219 230
f 271 231 241
f 241 242 271
f 272 251 256
f 223 258 257
f 191 206 273
f 237 234 274
f 262 207 252
f 234 235 275
f 253 262 276
f 246 277 264
f 184 255 227
f 248 264 278
f 248 278 266
f 265 219 270
f 231 279 249
f 279 231 271
f 232 266 250
f 206 269 273
f 198 261 269
f 280 252 245
f 239 281 218
f 230 282 270
f 230 249 282
f 267 243 283
f 243 257 283
f 251 272 284
f 284 285 251
f 251 285 259
f 204 260 236
f 280 245 268
f 280 268 286
f 280 287 252
f 237 274 261
f 287 262 252
f 235 238 275
f 253 276 288
f 253 288 254
f 238 254 288
f 246 263 277
f 218 289 255
f 266 278 290
f 239 265 281
f 271 242 267
f 291 250 266
f 250 292 256
f 256 292 272
f 283 257 258
f 258 244 293
f 294 259 285
f 259 294 268
f 260 191 273
f 234 275 274
f 295 276 262
f 238 296 275
f 276 295 288
f 296 238 288
f 277 297 278
f 264 277 278
f 195 227 263
f 218 281 289
f 265 298 281
f 270 299 265
f 265 299 298
f 282 249 279
f 267 283 300
f 284 272 292
f 301 244 236
f 294 286 268
f 287 302 262
f 262 302 295
f 277 263 297
f 270 303 299
f 270 282 303
f 290 291 266
f 279 271 304
f 250 291 292
f 284 305 285
f 293 244 301
f 285 305 294
f 280 306 287
f 307 261 274
f 278 297 308
f 278 308 290
f 309 303 282
f 282 279 309
f 304 271 300
f 271 267 300
f 291 310 292
f 292 310 284
f 310 311 284
f 283 258 293
f 301 236 312
f 305 313 294
f 294 314 286
f 315 260 273
f 273 269 315
f 286 316 280
f 317 269 261
f 318 317 261
f 261 307 318
f 306 319 287
f 287 319 302
f 307 274 275
f 320 295 302
f 295 320 288
f 263 321 297
f 227 321 263
f 227 255 321
f 289 322 255
f 308 323 290
f 289 324 322
f 281 324 289
f 298 324 281
f 298 303 324
f 299 303 298
f 290 323 291
f 279 304 309
f 323 325 291
f 325 310 291
f 300 283 293
f 311 326 284
f 284 326 305
f 326 327 305
f 327 328 305
f 236 260 312
f 312 260 329
f 294 313 314
f 313 330 314
f 329 260 315
f 286 314 316
f 317 315 269
f 316 306 280
f 331 302 319
f 302 331 320
f 307 275 296
f 332 307 296
f 288 320 296
f 297 333 308
f 322 334 255
f 324 335 322
f 303 336 324
f 303 309 336
f 304 337 309
f 304 300 338
f 325 339 310
f 338 300 340
f 300 293 340
f 341 311 310
f 293 301 340
f 328 313 305
f 328 342 313
f 312 329 343
f 313 342 330
f 330 344 314
f 314 344 316
f 315 317 345
f 344 346 316
f 316 346 306
f 346 319 306
f 318 307 332
f 320 332 296
f 297 321 347
f 321 255 347
f 347 333 297
f 334 348 347
f 255 334 347
f 333 323 308
f 324 336 335
f 349 350 335
f 336 349 335
f 309 349 336
f 323 351 325
f 338 337 304
f 352 337 338
f 351 339 325
f 339 341 310
f 340 352 338
f 341 353 311
f 354 352 340
f 353 326 311
f 353 355 326
f 355 327 326
f 328 327 355
f 301 354 340
f 301 356 354
f 312 356 301
f 312 343 356
f 344 330 342
f 315 345 329
f 357 317 318
f 358 319 346
f 318 359 357
f 319 358 331
f 358 360 331
f 332 361 359
f 318 332 359
f 320 331 360
f 332 320 360
f 361 332 360
f 333 347 362
f 362 347 348
f 348 334 363
f 334 322 350
f 363 334 350
f 322 335 350
f 333 364 323
f 362 364 333
f 349 309 365
f 309 337 365
f 323 364 351
f 349 366 350
f 337 352 365
f 351 364 339
f 365 352 367
f 368 339 364
f 339 368 341
f 341 368 353
f 369 367 352
f 353 368 370
f 354 369 352
f 355 353 370
f 369 354 371
f 355 372 328
f 354 356 371
f 371 356 343
f 328 372 342
f 373 371 343
f 342 372 374
f 329 373 343
f 329 345 373
f 342 374 344
f 344 374 375
f 376 373 345
f 377 344 375
f 346 344 377
f 378 346 377
f 376 357 379
f 345 357 376
f 317 357 345
f 358 346 378
f 357 359 379
f 380 360 378
f 360 358 378
f 381 360 380
f 379 359 381
f 361 360 381
f 359 361 381
f 382 362 383
f 362 348 383
f 348 363 383
f 363 350 366
f 362 382 364
f 363 384 383
f 366 384 363
f 366 349 385
f 349 365 385
f 383 386 382
f 385 384 366
f 365 367 385
f 382 368 364
f 387 388 385
f 367 387 385
f 382 389 368
f 386 389 382
f 368 389 370
f 367 369 387
f 387 369 391
f 390 392 389
f 355 370 389
f 355 389 392
f 369 371 391
f 355 392 372
f 372 392 393
f 391 371 395
f 372 393 374
f 396 374 393
f 373 395 371
f 396 375 374
f 395 373 397
f 396 377 375
f 373 376 397
f 399 377 396
f 394 398 399
f 376 398 397
f 399 378 377
f 376 379 398
f 380 378 399
f 398 381 399
f 379 381 398
f 381 380 399

