# https://github.com/mikedh/trimesh
v 10359.40000000 4723.91000000 3452.76000000
v 10455.20000000 4718.07000000 3453.73000000
v 10360.90000000 4674.13000000 3468.71000000
v 10442.20000000 4770.44000000 3455.40000000
v 10290.40000000 4757.33000000 3461.89000000
v 10560.90000000 4815.52000000 3459.17000000
v 10537.10000000 4854.50000000 3462.44000000
v 10583.70000000 4905.13000000 3464.44000000
v 10634.90000000 4933.56000000 3484.28000000
v 10460.10000000 4657.20000000 3474.91000000
v 10530.20000000 4703.05000000 3478.17000000
v 10258.90000000 4707.91000000 3473.09000000
v 10156.30000000 4776.56000000 3482.31000000
v 10368.30000000 4775.37000000 3469.10000000
v 10455.40000000 4802.13000000 3478.13000000
v 10616.90000000 4756.22000000 3499.98000000
v 10258.10000000 4787.20000000 3479.40000000
v 10156.40000000 4824.61000000 3482.83000000
v 10203.60000000 4819.71000000 3495.90000000
v 10528.80000000 4872.16000000 3484.23000000
v 10637.60000000 4855.74000000 3487.08000000
v 10084.30000000 4846.71000000 3492.42000000
v 10591.30000000 4938.77000000 3490.07000000
v 10682.50000000 4888.45000000 3519.57000000
v 10303.60000000 4641.31000000 3491.22000000
v 10363.50000000 4579.72000000 3529.41000000
v 10253.80000000 4574.40000000 3544.83000000
v 10484.10000000 4550.96000000 3572.17000000
v 10181.90000000 4665.76000000 3515.53000000
v 10056.30000000 4736.36000000 3537.77000000
v 10567.10000000 4648.57000000 3537.17000000
v 10347.60000000 4779.63000000 3519.90000000
v 10033.20000000 4841.21000000 3514.23000000
v 10268.10000000 4793.87000000 3504.35000000
v 10432.00000000 4786.03000000 3556.00000000
v 10094.80000000 4870.49000000 3516.53000000
v 10665.80000000 4806.89000000 3522.29000000
v 10004.60000000 4898.28000000 3532.60000000
v 10550.60000000 4904.83000000 3579.59000000
v 10683.00000000 4954.43000000 3532.00000000
v 10647.90000000 4996.92000000 3535.41000000
v 10615.70000000 5006.80000000 3523.87000000
v 10569.70000000 4544.78000000 3621.90000000
v 10109.30000000 4634.94000000 3561.54000000
v 10627.30000000 4636.67000000 3610.40000000
v 10666.50000000 4730.03000000 3580.03000000
v 10253.80000000 4801.68000000 3542.32000000
v 10166.00000000 4843.90000000 3550.46000000
v 10491.10000000 4825.14000000 3566.27000000
v 9968.26000000 4891.08000000 3541.70000000
v 9954.66000000 4921.03000000 3566.33000000
v 10028.90000000 4920.42000000 3579.75000000
v 10595.80000000 4987.87000000 3543.51000000
v 10618.00000000 5030.63000000 3568.96000000
v 10634.50000000 5030.62000000 3571.17000000
v 10697.40000000 4822.12000000 3566.94000000
v 9967.27000000 4814.42000000 3575.71000000
v 10704.30000000 4910.01000000 3572.15000000
v 10132.30000000 4878.26000000 3628.91000000
v 9986.39000000 4932.92000000 3606.00000000
v 10589.60000000 4986.46000000 3629.56000000
v 10263.90000000 4496.12000000 3600.40000000
v 10167.40000000 4544.18000000 3594.02000000
v 10062.90000000 4576.09000000 3625.50000000
v 9972.75000000 4680.63000000 3642.01000000
v 10311.50000000 4782.17000000 3606.96000000
v 10217.70000000 4823.49000000 3604.56000000
v 9931.39000000 4876.73000000 3623.24000000
v 10688.80000000 4978.17000000 3593.97000000
v 10635.30000000 5042.53000000 3627.13000000
v 10616.60000000 4539.02000000 3682.28000000
v 9909.47000000 4737.62000000 3680.22000000
v 10383.40000000 4776.42000000 3605.38000000
v 10439.00000000 4793.14000000 3642.15000000
v 9906.57000000 4798.63000000 3672.29000000
v 10712.80000000 4842.80000000 3611.31000000
v 10504.60000000 4846.04000000 3681.95000000
v 10537.60000000 4886.21000000 3676.47000000
v 9955.73000000 4927.56000000 3630.47000000
v 10616.80000000 5027.63000000 3642.87000000
v 10658.10000000 5020.44000000 3615.47000000
v 10344.70000000 4460.30000000 3628.78000000
v 10530.00000000 4443.77000000 3672.14000000
v 10671.00000000 4676.15000000 3656.23000000
v 10693.20000000 4762.89000000 3632.96000000
v 9871.33000000 4801.25000000 3749.87000000
v 10223.10000000 4834.75000000 3674.93000000
v 9931.78000000 4893.62000000 3676.46000000
v 10125.60000000 4438.62000000 3672.36000000
v 10224.20000000 4408.67000000 3667.60000000
v 10580.40000000 4396.48000000 3737.40000000
v 10280.30000000 4806.07000000 3665.62000000
v 10706.70000000 4811.73000000 3667.08000000
v 10704.40000000 4911.09000000 3644.59000000
v 9898.34000000 4847.70000000 3736.79000000
v 10052.00000000 4923.29000000 3654.00000000
v 10010.40000000 4929.18000000 3678.84000000
v 10681.70000000 4989.15000000 3663.19000000
v 10369.10000000 4325.10000000 3722.19000000
v 10452.00000000 4416.04000000 3670.67000000
v 10072.70000000 4402.77000000 3718.90000000
v 9986.67000000 4457.89000000 3752.27000000
v 10666.80000000 4574.01000000 3730.85000000
v 10355.80000000 4796.90000000 3685.22000000
v 10139.50000000 4887.72000000 3708.15000000
v 10556.90000000 4922.53000000 3702.98000000
v 10628.50000000 5028.15000000 3686.41000000
v 10155.20000000 4318.86000000 3734.61000000
v 9890.66000000 4573.68000000 3797.39000000
v 10687.40000000 4717.17000000 3709.00000000
v 9863.80000000 4718.19000000 3772.50000000
v 10693.20000000 4832.28000000 3712.77000000
v 10199.70000000 4854.74000000 3709.12000000
v 9929.99000000 4878.19000000 3733.05000000
v 9971.25000000 4900.44000000 3710.07000000
v 10680.50000000 4931.08000000 3712.78000000
v 10603.30000000 4996.54000000 3680.97000000
v 10650.80000000 5018.56000000 3673.49000000
v 10246.50000000 4254.98000000 3762.73000000
v 10484.00000000 4347.99000000 3728.92000000
v 10043.20000000 4303.23000000 3789.81000000
v 10642.30000000 4443.22000000 3771.15000000
v 10280.70000000 4820.24000000 3724.78000000
v 10448.90000000 4251.49000000 3781.26000000
v 10353.60000000 4805.33000000 3742.27000000
v 10417.10000000 4809.59000000 3738.60000000
v 9910.57000000 4835.88000000 3811.90000000
v 10063.20000000 4855.77000000 3789.03000000
v 10123.80000000 4874.76000000 3740.09000000
v 10662.50000000 4991.42000000 3704.31000000
v 10600.50000000 4960.26000000 3740.09000000
v 10634.50000000 4987.43000000 3722.39000000
v 10178.70000000 4188.68000000 3805.34000000
v 10368.40000000 4164.58000000 3833.13000000
v 10106.60000000 4242.42000000 3793.56000000
v 10620.70000000 4351.24000000 3811.23000000
v 9821.24000000 4727.31000000 3870.75000000
v 10678.30000000 4740.71000000 3776.29000000
v 10494.70000000 4841.47000000 3765.54000000
v 10658.40000000 4834.33000000 3780.60000000
v 10245.20000000 4108.04000000 3854.12000000
v 10071.10000000 4173.64000000 3846.05000000
v 10530.10000000 4257.76000000 3802.91000000
v 10588.60000000 4269.38000000 3838.79000000
v 10020.70000000 4230.95000000 3850.05000000
v 10688.80000000 4462.36000000 3834.97000000
v 10697.60000000 4542.06000000 3826.13000000
v 10684.90000000 4639.07000000 3789.99000000
v 10334.10000000 4808.44000000 3782.54000000
v 9859.12000000 4787.87000000 3877.53000000
v 10220.40000000 4841.05000000 3750.07000000
v 9971.63000000 4852.09000000 3796.88000000
v 10643.40000000 4926.29000000 3754.92000000
v 10615.30000000 4929.89000000 3767.75000000
v 10478.50000000 4154.45000000 3863.46000000
v 10655.60000000 4380.68000000 3853.40000000
v 9930.75000000 4353.15000000 3875.57000000
v 10704.40000000 4572.59000000 3886.02000000
v 10679.90000000 4649.66000000 3878.59000000
v 10422.70000000 4805.38000000 3794.59000000
v 10654.30000000 4736.11000000 3838.97000000
v 10547.90000000 4885.46000000 3773.52000000
v 10575.30000000 4882.33000000 3797.69000000
v 10151.20000000 4094.53000000 3867.55000000
v 10549.40000000 4155.48000000 3896.52000000
v 9819.24000000 4617.07000000 3897.57000000
v 10214.70000000 4817.78000000 3800.48000000
v 10333.30000000 4779.93000000 3840.06000000
v 9896.06000000 4810.59000000 3875.42000000
v 9968.66000000 4797.42000000 3913.56000000
v 10050.90000000 4805.52000000 3862.09000000
v 10607.90000000 4852.55000000 3809.79000000
v 10318.40000000 4040.14000000 3910.52000000
v 10443.00000000 4038.89000000 3955.55000000
v 10091.20000000 4076.80000000 3899.99000000
v 10624.10000000 4266.88000000 3896.37000000
v 10711.70000000 4490.04000000 3923.88000000
v 9855.88000000 4475.99000000 3914.23000000
v 10622.80000000 4776.80000000 3843.07000000
v 10193.90000000 4763.53000000 3887.99000000
v 10490.40000000 4805.88000000 3834.34000000
v 10560.30000000 4828.43000000 3829.76000000
v 10235.80000000 3970.58000000 3944.58000000
v 10595.40000000 4154.48000000 3943.87000000
v 10648.40000000 4333.32000000 3918.44000000
v 10690.20000000 4415.87000000 3946.12000000
v 10709.50000000 4557.05000000 3975.54000000
v 10616.40000000 4691.10000000 3937.89000000
v 9807.90000000 4719.41000000 3954.01000000
v 10082.80000000 4774.22000000 3911.75000000
v 9896.57000000 4786.69000000 3948.74000000
v 10156.10000000 3976.89000000 3941.45000000
v 10022.60000000 4117.54000000 3934.19000000
v 10509.60000000 4093.89000000 3930.87000000
v 9799.10000000 4674.56000000 3943.40000000
v 10570.40000000 4767.37000000 3873.30000000
v 10361.00000000 4742.42000000 3895.44000000
v 10479.30000000 4723.36000000 3942.46000000
v 10113.40000000 3955.01000000 3974.41000000
v 10343.10000000 3909.97000000 4023.95000000
v 10545.10000000 4048.81000000 4001.89000000
v 9938.29000000 4243.08000000 3945.91000000
v 10630.90000000 4160.64000000 3994.92000000
v 10629.90000000 4240.67000000 3956.27000000
v 9892.23000000 4353.40000000 3940.85000000
v 10672.70000000 4384.77000000 3962.52000000
v 10717.10000000 4507.88000000 3995.99000000
v 10289.00000000 4719.78000000 3929.94000000
v 10551.00000000 4712.43000000 3953.17000000
v 10179.70000000 3877.80000000 4009.66000000
v 10251.20000000 3827.94000000 4057.33000000
v 10067.90000000 3948.70000000 4019.19000000
v 9991.63000000 4093.15000000 4015.25000000
v 10628.10000000 4061.18000000 4070.84000000
v 9905.25000000 4289.40000000 3987.29000000
v 10620.50000000 4265.40000000 3967.46000000
v 10639.50000000 4351.83000000 3947.46000000
v 9851.27000000 4430.41000000 3984.19000000
v 10546.90000000 4418.50000000 3943.15000000
v 10501.10000000 4375.92000000 3942.06000000
v 10573.20000000 4360.47000000 3942.97000000
v 10470.70000000 4433.91000000 3958.61000000
v 10432.40000000 4382.55000000 3975.75000000
v 10529.70000000 4443.25000000 3988.97000000
v 9810.16000000 4553.54000000 3971.59000000
v 9795.41000000 4625.67000000 3970.28000000
v 10365.40000000 4702.70000000 3980.69000000
v 10095.10000000 4741.69000000 4008.96000000
v 9866.77000000 4763.69000000 4002.45000000
v 10608.30000000 4334.30000000 3948.70000000
v 10483.20000000 4323.30000000 3993.33000000
v 10564.50000000 4313.38000000 3967.24000000
v 10621.50000000 4385.63000000 3967.95000000
v 10665.50000000 4390.43000000 3991.83000000
v 10584.10000000 4422.13000000 4010.47000000
v 10421.40000000 4423.44000000 4001.79000000
v 10720.00000000 4432.28000000 4060.26000000
v 10695.80000000 4401.30000000 4042.70000000
v 10480.30000000 4438.80000000 4027.86000000
v 9796.75000000 4609.48000000 4024.56000000
v 10673.70000000 4576.88000000 4038.04000000
v 9807.54000000 4661.80000000 4024.35000000
v 10247.30000000 4704.97000000 4025.66000000
v 9842.61000000 4715.97000000 4035.00000000
v 9926.71000000 4753.18000000 4052.56000000
v 10131.70000000 3847.91000000 4054.79000000
v 9931.30000000 4221.43000000 4027.30000000
v 10645.50000000 4170.37000000 4036.15000000
v 10640.30000000 4177.11000000 4061.06000000
v 10534.10000000 4242.87000000 4053.90000000
v 10402.30000000 4360.09000000 4030.54000000
v 10533.20000000 4431.61000000 4047.16000000
v 10715.00000000 4462.38000000 4112.51000000
v 10607.20000000 4600.46000000 4091.55000000
v 10498.40000000 4658.30000000 4064.68000000
v 10419.60000000 4678.51000000 4040.67000000
v 10003.60000000 4745.97000000 4059.81000000
v 10053.60000000 3919.21000000 4085.05000000
v 9980.41000000 4105.82000000 4072.26000000
v 9881.66000000 4359.18000000 4035.17000000
v 10404.30000000 4277.23000000 4097.78000000
v 10648.00000000 4396.39000000 4059.13000000
v 10421.90000000 4402.60000000 4074.14000000
v 9840.70000000 4509.90000000 4055.65000000
v 10343.70000000 4677.42000000 4061.55000000
v 10294.20000000 4658.97000000 4162.52000000
v 9888.06000000 4721.49000000 4093.40000000
v 10205.00000000 3765.52000000 4117.94000000
v 10095.20000000 3842.43000000 4104.55000000
v 10474.30000000 3909.36000000 4094.06000000
v 10690.10000000 4077.04000000 4135.58000000
v 9942.75000000 4230.25000000 4094.57000000
v 10698.30000000 4379.38000000 4115.95000000
v 10380.00000000 4362.11000000 4079.77000000
v 10580.30000000 4411.22000000 4072.00000000
v 10502.50000000 4390.15000000 4111.94000000
v 10657.20000000 4530.81000000 4150.27000000
v 10175.70000000 4686.08000000 4170.09000000
v 10077.80000000 4704.41000000 4182.05000000
v 10148.80000000 3769.23000000 4155.06000000
v 10275.70000000 3726.74000000 4156.78000000
v 10352.00000000 3782.06000000 4142.67000000
v 10030.70000000 3965.14000000 4136.23000000
v 10592.10000000 3975.85000000 4121.45000000
v 10692.60000000 3984.20000000 4215.70000000
v 10678.80000000 4115.74000000 4124.79000000
v 10570.20000000 4158.37000000 4158.29000000
v 10372.10000000 4329.16000000 4089.42000000
v 10594.80000000 4380.85000000 4115.79000000
v 10652.70000000 4354.61000000 4152.39000000
v 10416.00000000 4367.09000000 4134.49000000
v 9895.66000000 4410.71000000 4113.89000000
v 9828.69000000 4602.29000000 4088.04000000
v 10469.20000000 3783.18000000 4220.89000000
v 10004.00000000 4078.17000000 4158.46000000
v 10663.20000000 4113.82000000 4178.82000000
v 10371.70000000 4348.45000000 4127.09000000
v 9946.09000000 4328.31000000 4156.80000000
v 10719.90000000 4367.04000000 4147.17000000
v 9851.23000000 4641.53000000 4125.16000000
v 10004.30000000 4712.94000000 4171.39000000
v 10069.20000000 3864.75000000 4152.90000000
v 9983.34000000 4195.44000000 4176.42000000
v 10422.80000000 4189.18000000 4199.08000000
v 10349.10000000 4297.63000000 4141.49000000
v 10705.20000000 4335.50000000 4182.84000000
v 9881.49000000 4544.38000000 4162.08000000
v 10383.50000000 4659.72000000 4107.09000000
v 9912.48000000 4666.44000000 4196.97000000
v 10205.50000000 3695.26000000 4238.00000000
v 10284.70000000 3654.13000000 4263.06000000
v 10326.00000000 3679.15000000 4234.14000000
v 10108.40000000 3794.37000000 4206.15000000
v 10718.20000000 4070.48000000 4186.09000000
v 10709.60000000 4082.58000000 4196.51000000
v 10500.00000000 4115.49000000 4287.25000000
v 10321.00000000 4238.01000000 4210.35000000
v 10350.40000000 4316.46000000 4170.30000000
v 10562.20000000 4314.17000000 4211.27000000
v 9934.30000000 4457.76000000 4207.03000000
v 10692.30000000 4456.57000000 4224.24000000
v 10383.40000000 4631.93000000 4189.50000000
v 10495.10000000 4590.09000000 4188.03000000
v 10151.70000000 3735.22000000 4253.88000000
v 10594.50000000 3866.49000000 4250.03000000
v 10041.10000000 3961.61000000 4227.93000000
v 10040.50000000 4049.22000000 4273.82000000
v 9977.53000000 4286.25000000 4192.09000000
v 10329.70000000 4286.09000000 4212.60000000
v 10692.30000000 4270.87000000 4259.54000000
v 10422.10000000 4319.20000000 4198.27000000
v 10742.10000000 4355.92000000 4206.33000000
v 10582.70000000 4519.40000000 4238.08000000
v 9965.38000000 4695.65000000 4196.19000000
v 10404.70000000 3687.76000000 4279.11000000
v 10075.60000000 3861.38000000 4246.14000000
v 10753.50000000 4047.68000000 4225.14000000
v 10623.70000000 4097.60000000 4267.84000000
v 10736.20000000 4302.07000000 4236.45000000
v 9980.29000000 4353.36000000 4214.24000000
v 10740.30000000 4382.06000000 4237.59000000
v 10250.90000000 3635.84000000 4331.75000000
v 10762.00000000 4019.50000000 4249.76000000
v 10803.10000000 3965.40000000 4330.70000000
v 10760.90000000 4051.38000000 4252.11000000
v 10714.50000000 4072.19000000 4268.67000000
v 10024.60000000 4199.03000000 4249.02000000
v 9982.44000000 4427.37000000 4258.79000000
v 9954.49000000 4484.05000000 4278.54000000
v 9922.18000000 4603.36000000 4251.39000000
v 10268.00000000 4633.04000000 4282.63000000
v 10006.20000000 4650.97000000 4310.05000000
v 10355.00000000 3632.34000000 4315.91000000
v 10130.20000000 3757.69000000 4321.45000000
v 10518.50000000 3733.26000000 4326.37000000
v 10825.90000000 4017.19000000 4308.06000000
v 10076.30000000 4054.83000000 4350.36000000
v 10296.10000000 4260.19000000 4266.42000000
v 10353.30000000 4265.82000000 4281.87000000
v 10451.50000000 4269.91000000 4277.96000000
v 10527.00000000 4207.21000000 4351.35000000
v 10796.50000000 4250.49000000 4317.87000000
v 10787.40000000 4300.04000000 4306.17000000
v 10024.60000000 4289.54000000 4250.04000000
v 10020.70000000 4350.02000000 4254.77000000
v 10623.90000000 4449.14000000 4344.52000000
v 10468.90000000 4542.01000000 4301.16000000
v 10390.40000000 4588.73000000 4289.53000000
v 10043.20000000 4678.15000000 4263.66000000
v 10139.60000000 4659.99000000 4282.37000000
v 10655.50000000 3800.12000000 4401.44000000
v 10750.20000000 3894.80000000 4388.27000000
v 10082.00000000 3903.12000000 4351.34000000
v 10841.10000000 3994.71000000 4323.42000000
v 10386.70000000 4122.62000000 4330.82000000
v 10763.40000000 4236.72000000 4305.92000000
v 10072.00000000 4230.17000000 4276.37000000
v 10065.30000000 4299.67000000 4273.57000000
v 9947.32000000 4521.78000000 4283.79000000
v 10399.20000000 4539.54000000 4420.69000000
v 9972.02000000 4620.15000000 4307.16000000
v 10211.10000000 3661.12000000 4400.39000000
v 10116.80000000 3804.16000000 4405.08000000
v 10890.80000000 3991.78000000 4360.68000000
v 10798.00000000 4043.79000000 4356.58000000
v 10687.60000000 4069.12000000 4329.33000000
v 10584.00000000 4076.99000000 4354.04000000
v 10106.00000000 4108.04000000 4352.17000000
v 10282.70000000 4155.08000000 4303.71000000
v 10221.30000000 4227.23000000 4288.83000000
v 10267.60000000 4247.09000000 4328.95000000
v 10804.90000000 4195.75000000 4354.64000000
v 10111.80000000 4270.68000000 4292.87000000
v 10093.20000000 4308.30000000 4299.67000000
v 10828.20000000 4248.67000000 4355.88000000
v 10042.80000000 4372.81000000 4316.16000000
v 10772.00000000 4344.19000000 4355.51000000
v 10704.50000000 4401.11000000 4389.70000000
v 9988.19000000 4458.35000000 4314.08000000
v 10344.30000000 3579.19000000 4411.53000000
v 10297.00000000 3595.25000000 4400.63000000
v 10908.20000000 3993.77000000 4410.47000000
v 10471.00000000 4084.02000000 4388.23000000
v 10132.10000000 4198.82000000 4305.53000000
v 10177.50000000 4136.90000000 4339.59000000
v 10161.30000000 4255.75000000 4310.16000000
v 10192.40000000 4255.04000000 4371.08000000
v 10353.10000000 4222.31000000 4359.74000000
v 10119.60000000 4299.79000000 4350.91000000
v 10032.40000000 4414.93000000 4368.66000000
v 10532.40000000 4481.11000000 4363.81000000
v 10009.20000000 4542.60000000 4368.17000000
v 10431.40000000 3612.55000000 4419.72000000
v 10278.50000000 3591.57000000 4458.17000000
v 10885.10000000 3967.78000000 4381.91000000
v 10728.30000000 4186.93000000 4359.17000000
v 10590.00000000 4122.90000000 4423.18000000
v 10270.00000000 4208.55000000 4411.50000000
v 10837.50000000 4267.12000000 4399.69000000
v 10093.20000000 4341.26000000 4414.93000000
v 10302.20000000 4574.53000000 4418.58000000
v 10114.00000000 4612.09000000 4382.12000000
v 10565.00000000 3688.60000000 4448.03000000
v 10164.10000000 3728.10000000 4462.75000000
v 10869.20000000 3930.66000000 4430.10000000
v 10102.40000000 3943.88000000 4426.46000000
v 10920.50000000 3973.68000000 4405.30000000
v 10929.20000000 3953.92000000 4440.62000000
v 10863.80000000 4029.70000000 4418.55000000
v 10120.30000000 4005.30000000 4431.44000000
v 10207.40000000 4059.57000000 4435.82000000
v 10251.40000000 4105.52000000 4381.10000000
v 10316.40000000 4106.47000000 4383.50000000
v 10831.00000000 4168.00000000 4393.22000000
v 10854.90000000 4220.17000000 4402.89000000
v 10152.60000000 4268.85000000 4442.09000000
v 10776.10000000 4339.88000000 4476.52000000
v 10065.10000000 4407.02000000 4429.96000000
v 10020.60000000 4465.61000000 4371.51000000
v 10459.80000000 4497.47000000 4422.31000000
v 10205.10000000 4613.70000000 4362.50000000
v 10938.40000000 3964.56000000 4449.00000000
v 10168.40000000 3999.87000000 4478.09000000
v 10708.90000000 4071.10000000 4394.56000000
v 10841.80000000 4082.09000000 4431.23000000
v 10532.20000000 4070.82000000 4396.85000000
v 10592.40000000 4085.77000000 4416.73000000
v 10287.10000000 4081.50000000 4434.11000000
v 10391.70000000 4105.08000000 4421.14000000
v 10725.30000000 4127.24000000 4408.15000000
v 10656.50000000 4102.60000000 4413.25000000
v 10459.10000000 4142.51000000 4423.55000000
v 10383.70000000 4160.01000000 4416.81000000
v 10327.10000000 4165.75000000 4436.84000000
v 10225.30000000 4198.65000000 4476.29000000
v 10572.40000000 4433.75000000 4436.30000000
v 10642.80000000 4417.12000000 4460.29000000
v 10053.20000000 4577.82000000 4384.34000000
v 10344.10000000 3542.57000000 4532.38000000
v 10141.90000000 3786.20000000 4499.54000000
v 10117.10000000 3852.17000000 4447.10000000
v 10765.30000000 3836.19000000 4500.36000000
v 10482.40000000 4099.46000000 4427.77000000
v 10533.30000000 4097.00000000 4419.44000000
v 10342.60000000 4104.23000000 4424.38000000
v 10899.30000000 4154.71000000 4467.09000000
v 10291.70000000 4141.52000000 4491.94000000
v 10855.20000000 4279.24000000 4475.63000000
v 10490.40000000 4455.41000000 4477.87000000
v 10352.70000000 4525.16000000 4509.94000000
v 10215.20000000 4575.46000000 4444.12000000
v 10389.10000000 3549.43000000 4500.70000000
v 10284.10000000 3589.74000000 4555.60000000
v 10501.20000000 3603.48000000 4501.42000000
v 10591.30000000 3647.51000000 4561.72000000
v 10692.10000000 3759.24000000 4527.71000000
v 10919.70000000 3926.38000000 4498.09000000
v 10946.80000000 3960.75000000 4498.90000000
v 10924.20000000 3977.23000000 4501.69000000
v 10872.30000000 4021.63000000 4468.47000000
v 10913.60000000 4082.55000000 4523.70000000
v 10326.40000000 4098.49000000 4447.72000000
v 10897.40000000 4219.51000000 4474.69000000
v 10145.10000000 4277.66000000 4502.48000000
v 10074.60000000 4440.75000000 4448.23000000
v 10101.20000000 4499.80000000 4464.21000000
v 10216.00000000 3668.40000000 4520.90000000
v 10864.40000000 3893.40000000 4523.93000000
v 10940.60000000 3946.21000000 4503.44000000
v 10968.70000000 4122.73000000 4579.48000000
v 10948.00000000 4174.68000000 4539.95000000
v 10118.50000000 4348.99000000 4501.17000000
v 10525.70000000 4424.97000000 4515.46000000
v 10581.30000000 4414.65000000 4528.90000000
v 10710.50000000 4377.23000000 4495.01000000
v 10420.50000000 4488.92000000 4500.57000000
v 10126.20000000 4554.29000000 4446.42000000
v 10195.00000000 4540.76000000 4501.16000000
v 10434.20000000 3545.37000000 4539.07000000
v 10160.30000000 3913.59000000 4522.39000000
v 10847.50000000 4000.82000000 4508.85000000
v 10875.50000000 3984.87000000 4510.83000000
v 10882.10000000 4050.85000000 4544.05000000
v 10308.60000000 4058.65000000 4495.04000000
v 10254.10000000 4154.55000000 4546.16000000
v 10195.90000000 4217.91000000 4540.98000000
v 10652.80000000 4379.68000000 4565.29000000
v 10168.90000000 4495.67000000 4533.14000000
v 10488.40000000 3560.42000000 4588.87000000
v 10941.20000000 3927.07000000 4586.28000000
v 10805.80000000 3988.61000000 4532.72000000
v 10825.40000000 3975.33000000 4548.61000000
v 10904.30000000 3971.88000000 4560.00000000
v 10949.30000000 3962.48000000 4587.15000000
v 10251.00000000 3992.40000000 4519.95000000
v 10817.80000000 4030.95000000 4561.56000000
v 10978.40000000 4157.24000000 4605.52000000
v 10920.00000000 4218.35000000 4562.13000000
v 10846.80000000 4278.44000000 4554.06000000
v 10133.00000000 4413.07000000 4531.94000000
v 10571.30000000 4397.55000000 4581.11000000
v 10280.70000000 4518.52000000 4536.47000000
v 10393.90000000 3531.77000000 4548.89000000
v 10183.80000000 3739.28000000 4547.41000000
v 10697.60000000 3730.63000000 4603.28000000
v 10794.60000000 3817.55000000 4594.63000000
v 10146.80000000 3842.77000000 4505.12000000
v 10950.00000000 3948.90000000 4568.67000000
v 10769.00000000 3976.64000000 4559.38000000
v 10370.10000000 3978.67000000 4549.14000000
v 10398.90000000 4048.72000000 4553.94000000
v 10870.30000000 4026.89000000 4595.81000000
v 10919.60000000 4048.60000000 4587.83000000
v 10337.40000000 4101.99000000 4565.05000000
v 10986.10000000 4117.76000000 4636.90000000
v 10170.50000000 4275.34000000 4569.25000000
v 10162.90000000 4341.35000000 4578.50000000
v 10757.70000000 4328.91000000 4554.49000000
v 10453.90000000 4442.97000000 4553.93000000
v 10512.70000000 4406.56000000 4587.50000000
v 10160.90000000 4453.08000000 4557.00000000
v 10418.10000000 3537.12000000 4615.96000000
v 10552.00000000 3603.38000000 4630.36000000
v 10646.60000000 3680.63000000 4640.71000000
v 10203.80000000 3786.38000000 4581.73000000
v 10214.60000000 3939.23000000 4543.42000000
v 10484.50000000 3943.12000000 4570.68000000
v 10583.40000000 3943.66000000 4584.01000000
v 10534.90000000 3994.79000000 4569.19000000
v 10772.50000000 3963.01000000 4572.55000000
v 10795.40000000 3964.27000000 4583.75000000
v 10830.70000000 3971.97000000 4587.12000000
v 10459.00000000 4011.00000000 4563.64000000
v 10502.80000000 4029.41000000 4614.13000000
v 10569.20000000 3997.56000000 4603.50000000
v 10794.50000000 4012.33000000 4592.50000000
v 10452.50000000 4040.80000000 4590.79000000
v 10954.70000000 4056.31000000 4613.48000000
v 10298.40000000 4134.77000000 4607.40000000
v 10242.50000000 4172.38000000 4589.08000000
v 10896.10000000 4230.82000000 4621.42000000
v 10237.10000000 4456.03000000 4603.07000000
v 10190.30000000 4449.77000000 4583.61000000
v 10368.70000000 4468.86000000 4575.94000000
v 10251.30000000 3654.61000000 4598.49000000
v 10227.00000000 3714.02000000 4593.89000000
v 10244.80000000 3847.38000000 4593.98000000
v 10884.10000000 3883.29000000 4622.53000000
v 10410.40000000 3874.49000000 4619.42000000
v 10515.60000000 3889.07000000 4612.38000000
v 10592.20000000 3898.49000000 4623.95000000
v 10303.30000000 3908.82000000 4577.78000000
v 10657.40000000 3980.66000000 4599.36000000
v 10693.10000000 3947.92000000 4601.82000000
v 10916.80000000 4005.09000000 4611.32000000
v 10424.90000000 4061.02000000 4613.59000000
v 10981.10000000 4061.79000000 4655.40000000
v 10216.90000000 4215.76000000 4603.62000000
v 10806.70000000 4273.42000000 4620.55000000
v 10708.90000000 4330.42000000 4607.37000000
v 10199.10000000 4383.86000000 4607.76000000
v 10354.60000000 3554.07000000 4613.80000000
v 10739.50000000 3764.51000000 4670.22000000
v 10964.90000000 3980.12000000 4654.60000000
v 10693.60000000 3944.43000000 4629.76000000
v 10952.80000000 4012.44000000 4629.90000000
v 10574.10000000 3999.91000000 4647.31000000
v 10391.20000000 4088.55000000 4660.18000000
v 10267.00000000 4172.12000000 4621.73000000
v 10946.90000000 4177.08000000 4647.76000000
v 10635.00000000 4347.80000000 4632.52000000
v 10409.20000000 4414.83000000 4621.51000000
v 10461.40000000 4384.85000000 4637.88000000
v 10546.50000000 4372.03000000 4623.98000000
v 10310.70000000 4458.20000000 4607.30000000
v 10497.00000000 3570.81000000 4660.12000000
v 10344.10000000 3593.12000000 4660.15000000
v 10328.20000000 3641.94000000 4678.41000000
v 10578.00000000 3633.84000000 4689.07000000
v 10277.40000000 3703.10000000 4642.15000000
v 10278.60000000 3772.86000000 4634.23000000
v 10306.60000000 3807.90000000 4636.69000000
v 10325.40000000 3844.54000000 4620.88000000
v 10490.10000000 3854.02000000 4651.26000000
v 10540.70000000 3871.44000000 4663.87000000
v 10828.90000000 3843.40000000 4689.44000000
v 10587.20000000 3901.80000000 4679.80000000
v 10907.00000000 3915.28000000 4679.32000000
v 10596.90000000 3936.41000000 4687.67000000
v 10564.60000000 3971.00000000 4694.82000000
v 10486.90000000 4024.12000000 4688.05000000
v 10332.80000000 4140.04000000 4669.84000000
v 10975.30000000 4117.52000000 4663.49000000
v 10204.10000000 4286.60000000 4614.62000000
v 10266.70000000 4212.92000000 4643.95000000
v 10890.50000000 4184.20000000 4685.21000000
v 10687.10000000 4297.32000000 4654.92000000
v 10348.30000000 4437.26000000 4619.70000000
v 10409.50000000 3558.16000000 4677.39000000
v 10449.50000000 3559.23000000 4684.88000000
v 10655.70000000 3700.96000000 4704.41000000
v 10361.60000000 3795.61000000 4666.73000000
v 10439.90000000 3828.30000000 4686.33000000
v 10488.50000000 3850.79000000 4701.35000000
v 10765.80000000 4211.85000000 4702.20000000
v 10396.30000000 4369.49000000 4658.35000000
v 10374.40000000 3707.33000000 4738.09000000
v 10335.40000000 3744.67000000 4681.27000000
v 10515.90000000 3889.41000000 4728.35000000
v 10552.50000000 3933.21000000 4713.07000000
v 10441.20000000 4067.80000000 4727.20000000
v 10390.10000000 4104.73000000 4699.96000000
v 10316.10000000 4199.07000000 4685.96000000
v 10261.00000000 4280.00000000 4652.77000000
v 10320.00000000 4262.04000000 4683.19000000
v 10639.20000000 4241.70000000 4718.04000000
v 10576.00000000 4320.70000000 4668.24000000
v 10279.70000000 4345.72000000 4650.76000000
v 10335.20000000 4397.90000000 4633.40000000
v 10356.60000000 4328.74000000 4665.48000000
v 10453.00000000 4316.46000000 4675.25000000
v 10453.60000000 3580.00000000 4727.56000000
v 10510.30000000 3612.76000000 4731.65000000
v 10397.10000000 3655.45000000 4747.53000000
v 10382.50000000 3762.30000000 4722.32000000
v 10712.50000000 3767.10000000 4747.97000000
v 10411.60000000 3796.81000000 4724.31000000
v 10459.10000000 3836.13000000 4737.32000000
v 10511.00000000 3955.26000000 4742.11000000
v 10900.80000000 3958.25000000 4756.80000000
v 10957.30000000 4049.20000000 4710.45000000
v 10485.40000000 4016.58000000 4751.67000000
v 10397.90000000 4136.72000000 4722.60000000
v 10947.50000000 4123.08000000 4690.73000000
v 10363.00000000 4206.34000000 4706.32000000
v 10381.00000000 4260.25000000 4695.65000000
v 10533.30000000 4231.64000000 4726.89000000
v 10426.60000000 3611.41000000 4735.46000000
v 10608.90000000 3686.03000000 4746.76000000
v 10438.70000000 4210.61000000 4724.05000000
v 10731.10000000 4157.89000000 4761.45000000
v 10486.50000000 3640.96000000 4776.24000000
v 10437.80000000 3712.74000000 4804.52000000
v 10434.00000000 3803.21000000 4773.82000000
v 10799.90000000 3860.33000000 4759.40000000
v 10480.80000000 3887.18000000 4770.43000000
v 10489.90000000 3946.18000000 4793.92000000
v 10925.90000000 4026.14000000 4764.95000000
v 10918.60000000 4091.75000000 4735.15000000
v 10832.50000000 4120.53000000 4760.72000000
v 10631.90000000 4133.47000000 4787.99000000
v 10521.40000000 4163.67000000 4763.92000000
v 10582.30000000 3703.28000000 4795.16000000
v 10652.00000000 3740.50000000 4780.56000000
v 10435.50000000 3761.25000000 4802.90000000
v 10467.80000000 3863.91000000 4795.92000000
v 10475.20000000 4054.38000000 4770.11000000
v 10867.50000000 4049.02000000 4791.10000000
v 10485.30000000 4122.21000000 4764.80000000
v 10762.40000000 4087.99000000 4806.68000000
v 10461.50000000 3672.98000000 4791.67000000
v 10684.40000000 3785.71000000 4798.52000000
v 10481.60000000 3867.05000000 4819.18000000
v 10843.50000000 3980.56000000 4810.68000000
v 10759.40000000 3884.88000000 4817.09000000
v 10503.20000000 3977.72000000 4808.00000000
v 10526.50000000 4038.99000000 4807.31000000
v 10819.60000000 4067.05000000 4802.37000000
v 10555.40000000 4096.27000000 4794.09000000
v 10529.60000000 3704.04000000 4815.13000000
v 10795.50000000 4017.84000000 4827.18000000
v 10604.20000000 4035.00000000 4830.08000000
v 10530.00000000 3759.32000000 4839.72000000
v 10624.90000000 3783.31000000 4823.82000000
v 10489.70000000 3793.74000000 4834.74000000
v 10553.00000000 3877.97000000 4858.72000000
v 10551.00000000 3957.86000000 4833.04000000
v 10759.70000000 3939.64000000 4841.76000000
v 10694.10000000 4028.81000000 4834.48000000
v 10572.50000000 3837.26000000 4859.73000000
v 10657.10000000 3863.81000000 4849.07000000
v 10626.10000000 3956.25000000 4852.94000000
v 10694.20000000 3948.97000000 4848.27000000
v 10618.90000000 3896.71000000 4853.35000000
v 10530.70000000 4092.73000000 4421.33000000
v 10327.80000000 4126.01000000 4463.50000000
v 10846.90000000 4036.43000000 4519.62000000
v 10801.70000000 4025.72000000 4544.15000000
v 10766.60000000 4011.23000000 4578.25000000
v 10826.20000000 4004.05000000 4602.61000000
v 10649.70000000 3953.93000000 4593.87000000
v 10688.80000000 3986.91000000 4615.89000000
v 10689.80000000 3957.35000000 4588.57000000
v 10673.60000000 3936.51000000 4602.67000000
f 1 2 3
f 4 1 5
f 2 1 4
f 2 4 6
f 6 4 7
f 7 8 6
f 8 9 6
f 10 3 2
f 11 10 2
f 3 12 1
f 5 12 13
f 1 12 5
f 5 14 4
f 14 15 4
f 6 11 2
f 16 11 6
f 5 13 17
f 17 13 18
f 14 5 17
f 15 7 4
f 17 18 19
f 7 15 20
f 16 6 21
f 18 13 22
f 6 9 21
f 7 20 23
f 7 23 8
f 9 24 21
f 9 8 23
f 25 26 27
f 10 28 26
f 26 25 3
f 10 26 3
f 28 10 11
f 3 25 12
f 12 25 29
f 29 30 13
f 12 29 13
f 11 16 31
f 17 32 14
f 14 32 15
f 13 30 33
f 34 17 19
f 32 17 34
f 15 32 35
f 13 33 22
f 18 36 19
f 16 21 37
f 22 33 38
f 22 36 18
f 36 22 38
f 24 37 21
f 23 20 39
f 40 24 9
f 41 40 9
f 9 23 41
f 41 23 42
f 27 29 25
f 28 31 43
f 28 11 31
f 29 44 30
f 45 31 16
f 16 46 45
f 37 46 16
f 34 19 47
f 36 48 19
f 47 19 48
f 20 15 49
f 49 39 20
f 38 33 50
f 38 50 51
f 36 38 52
f 39 53 23
f 42 53 54
f 23 53 42
f 41 42 55
f 43 31 45
f 37 56 46
f 57 33 30
f 32 34 47
f 35 49 15
f 33 57 50
f 37 24 56
f 56 24 58
f 36 59 48
f 36 52 59
f 38 51 60
f 52 38 60
f 40 58 24
f 39 61 53
f 53 61 54
f 55 42 54
f 62 27 26
f 27 63 29
f 63 44 29
f 44 64 30
f 30 65 57
f 32 47 66
f 67 47 48
f 50 57 68
f 50 68 51
f 40 41 69
f 55 54 70
f 63 27 62
f 63 64 44
f 43 45 71
f 64 65 30
f 72 57 65
f 35 32 73
f 35 73 74
f 75 57 72
f 35 74 49
f 57 75 68
f 76 56 58
f 49 77 39
f 77 78 39
f 48 59 67
f 60 51 79
f 58 40 69
f 80 54 61
f 55 81 41
f 81 69 41
f 55 70 81
f 26 82 62
f 28 82 26
f 43 83 28
f 45 46 84
f 46 56 85
f 47 67 66
f 32 66 73
f 77 49 74
f 68 75 86
f 67 59 87
f 68 88 79
f 51 68 79
f 54 80 70
f 89 63 90
f 90 63 62
f 83 43 91
f 89 64 63
f 84 46 85
f 66 67 92
f 56 76 85
f 85 76 93
f 93 76 94
f 95 88 68
f 76 58 94
f 52 96 59
f 60 79 97
f 96 52 60
f 58 69 94
f 69 81 98
f 82 90 62
f 99 82 100
f 82 28 100
f 83 100 28
f 89 101 64
f 91 43 71
f 64 101 102
f 64 102 65
f 45 103 71
f 84 103 45
f 73 66 104
f 87 92 67
f 86 95 68
f 105 59 96
f 106 39 78
f 96 60 97
f 39 106 61
f 94 69 98
f 80 107 70
f 90 108 89
f 82 99 90
f 108 101 89
f 65 109 72
f 84 85 110
f 111 75 72
f 104 66 92
f 73 104 74
f 86 75 111
f 94 112 93
f 87 59 113
f 95 114 88
f 79 88 115
f 115 97 79
f 98 116 94
f 117 80 61
f 117 107 80
f 81 118 98
f 81 70 118
f 108 90 119
f 90 99 119
f 100 83 120
f 101 121 102
f 91 71 122
f 102 109 65
f 93 110 85
f 104 92 123
f 92 87 123
f 123 87 113
f 77 106 78
f 113 59 105
f 114 115 88
f 107 118 70
f 124 99 120
f 120 99 100
f 120 83 91
f 122 71 103
f 84 110 103
f 93 112 110
f 125 104 123
f 126 104 125
f 74 104 126
f 112 94 116
f 127 114 95
f 115 128 97
f 128 129 97
f 97 129 96
f 105 96 129
f 61 106 117
f 116 98 130
f 130 98 118
f 117 131 107
f 118 107 132
f 108 119 133
f 134 119 99
f 124 134 99
f 135 101 108
f 122 136 91
f 109 111 72
f 111 137 86
f 112 138 110
f 74 126 77
f 77 126 139
f 139 106 77
f 116 140 112
f 130 118 132
f 132 107 131
f 108 133 135
f 141 133 119
f 134 141 119
f 142 121 135
f 101 135 121
f 91 143 120
f 144 143 91
f 136 144 91
f 121 145 102
f 146 122 103
f 103 147 146
f 147 103 148
f 103 110 148
f 148 110 138
f 125 149 126
f 138 112 140
f 86 150 95
f 125 123 149
f 123 113 151
f 114 127 152
f 105 151 113
f 114 152 115
f 105 129 151
f 128 115 152
f 140 116 153
f 106 131 117
f 153 116 130
f 131 154 132
f 154 153 132
f 153 130 132
f 134 124 155
f 143 124 120
f 136 122 156
f 156 122 146
f 145 157 102
f 157 109 102
f 147 148 158
f 138 159 148
f 126 149 160
f 140 161 138
f 95 150 127
f 126 160 139
f 123 151 149
f 106 139 162
f 162 131 106
f 131 163 154
f 135 164 142
f 164 135 133
f 143 155 124
f 144 165 143
f 142 145 121
f 166 111 109
f 159 138 161
f 137 150 86
f 167 168 149
f 160 149 168
f 127 150 169
f 151 167 149
f 127 170 152
f 129 167 151
f 171 128 152
f 140 153 172
f 172 153 154
f 162 163 131
f 133 141 164
f 173 134 174
f 164 175 142
f 134 173 141
f 134 155 174
f 145 142 175
f 165 155 143
f 144 136 176
f 136 156 176
f 177 146 147
f 166 109 178
f 158 148 159
f 166 137 111
f 161 140 179
f 128 171 180
f 139 160 181
f 140 172 179
f 127 169 170
f 167 128 180
f 129 128 167
f 139 181 162
f 162 181 163
f 181 182 163
f 172 163 182
f 154 163 172
f 164 141 183
f 165 144 184
f 184 144 176
f 176 156 185
f 186 156 146
f 186 185 156
f 146 177 186
f 109 157 178
f 177 147 158
f 158 159 187
f 179 188 161
f 189 150 137
f 171 190 180
f 168 181 160
f 150 191 169
f 152 170 171
f 183 192 164
f 192 175 164
f 141 173 183
f 193 145 175
f 194 155 165
f 157 145 193
f 166 195 137
f 161 188 159
f 179 196 188
f 168 180 197
f 168 167 180
f 181 168 197
f 198 181 197
f 196 181 198
f 179 172 196
f 170 190 171
f 182 181 196
f 172 182 196
f 192 199 175
f 173 174 200
f 194 174 155
f 194 165 201
f 201 165 184
f 202 157 193
f 184 176 203
f 203 176 204
f 176 185 204
f 202 205 157
f 206 185 186
f 157 205 178
f 177 158 207
f 207 158 187
f 195 189 137
f 180 208 197
f 198 209 196
f 188 196 209
f 169 191 170
f 199 192 210
f 210 192 183
f 200 211 183
f 173 200 183
f 199 212 193
f 199 193 175
f 193 212 213
f 202 193 213
f 214 184 203
f 202 215 205
f 185 216 204
f 217 216 185
f 185 206 217
f 205 218 178
f 219 220 221
f 220 222 223
f 219 222 220
f 224 222 219
f 178 218 225
f 166 225 226
f 166 178 225
f 195 166 226
f 197 208 227
f 198 197 227
f 228 180 190
f 190 170 228
f 191 150 229
f 210 183 211
f 214 201 184
f 213 215 202
f 216 217 230
f 205 215 218
f 220 231 232
f 232 221 220
f 230 221 232
f 223 231 220
f 219 221 233
f 233 221 230
f 217 233 230
f 217 234 233
f 217 206 234
f 233 235 219
f 236 223 222
f 224 219 235
f 186 237 238
f 177 237 186
f 224 239 222
f 225 240 226
f 241 187 159
f 188 241 159
f 195 242 189
f 180 228 243
f 243 208 180
f 150 189 244
f 191 245 170
f 191 229 245
f 199 210 246
f 199 246 212
f 174 194 201
f 247 215 213
f 248 216 249
f 204 216 248
f 216 232 250
f 216 230 232
f 231 250 232
f 231 223 251
f 206 238 234
f 186 238 206
f 251 223 236
f 239 236 222
f 252 224 235
f 207 187 253
f 226 242 195
f 254 241 188
f 188 255 254
f 227 208 243
f 198 227 256
f 198 256 255
f 198 255 209
f 255 188 209
f 244 229 150
f 228 170 257
f 212 258 213
f 259 247 213
f 203 204 248
f 249 216 250
f 247 260 215
f 218 215 260
f 231 251 261
f 233 262 235
f 262 233 234
f 262 234 238
f 236 239 263
f 239 224 252
f 218 264 225
f 260 264 218
f 237 177 207
f 225 264 240
f 253 187 241
f 240 242 226
f 227 243 265
f 243 266 265
f 227 265 256
f 189 242 244
f 229 244 267
f 170 245 257
f 210 268 246
f 211 268 210
f 246 269 212
f 212 269 258
f 200 174 270
f 174 201 270
f 214 203 271
f 203 248 271
f 261 250 231
f 247 272 260
f 262 238 273
f 251 263 274
f 263 251 236
f 275 235 262
f 235 275 252
f 239 276 263
f 252 276 239
f 275 276 252
f 277 241 254
f 278 243 228
f 228 257 279
f 268 280 246
f 281 268 211
f 211 200 282
f 200 270 282
f 258 283 213
f 201 214 284
f 214 271 285
f 259 272 247
f 271 248 286
f 248 249 286
f 250 287 249
f 251 274 288
f 261 251 288
f 289 262 290
f 262 273 290
f 262 289 275
f 263 276 291
f 260 292 264
f 237 207 253
f 240 293 242
f 229 267 245
f 211 282 281
f 246 280 269
f 282 270 294
f 213 283 259
f 284 214 285
f 259 295 272
f 296 286 249
f 287 296 249
f 274 297 288
f 272 292 260
f 298 292 272
f 297 274 263
f 273 238 299
f 264 293 240
f 243 278 266
f 300 244 242
f 228 279 278
f 301 279 257
f 245 301 257
f 269 302 258
f 302 283 258
f 259 283 295
f 272 295 303
f 303 298 272
f 304 287 250
f 261 304 250
f 288 305 261
f 297 305 288
f 306 290 273
f 297 263 291
f 276 275 289
f 238 237 299
f 292 307 264
f 293 300 242
f 308 265 266
f 256 265 308
f 244 300 309
f 309 267 244
f 280 268 310
f 310 268 311
f 268 281 311
f 281 282 312
f 280 313 269
f 270 201 284
f 271 286 314
f 314 286 315
f 304 316 287
f 317 304 261
f 317 261 305
f 297 318 305
f 273 299 306
f 289 319 276
f 307 292 320
f 241 277 321
f 293 264 307
f 300 293 307
f 322 323 255
f 308 266 322
f 308 255 256
f 280 324 313
f 324 280 310
f 269 313 302
f 270 284 325
f 283 326 295
f 295 327 303
f 315 286 296
f 303 328 298
f 305 329 317
f 305 318 329
f 289 290 319
f 306 330 290
f 331 318 297
f 291 331 297
f 291 276 331
f 298 320 292
f 299 237 332
f 332 237 253
f 241 321 253
f 333 321 277
f 333 277 254
f 323 254 255
f 308 322 255
f 267 309 334
f 267 334 245
f 311 281 312
f 312 282 335
f 282 294 335
f 294 270 325
f 302 336 283
f 336 326 283
f 325 284 285
f 295 326 327
f 271 314 337
f 287 316 338
f 329 318 331
f 319 290 330
f 330 306 339
f 319 331 276
f 328 340 298
f 298 340 320
f 332 253 341
f 253 321 341
f 245 334 301
f 310 311 342
f 313 336 302
f 285 271 343
f 285 343 344
f 271 337 343
f 337 314 345
f 345 314 315
f 296 346 315
f 346 296 338
f 338 296 287
f 328 303 347
f 339 306 299
f 339 299 332
f 347 340 328
f 340 348 320
f 348 349 320
f 300 307 350
f 333 254 323
f 300 350 309
f 266 278 351
f 352 334 309
f 311 312 353
f 354 313 324
f 313 354 336
f 294 325 355
f 343 337 356
f 356 337 345
f 347 327 357
f 327 347 303
f 317 329 358
f 358 329 359
f 331 359 329
f 359 331 360
f 331 319 360
f 361 319 330
f 339 332 362
f 363 362 332
f 347 364 340
f 365 340 364
f 363 332 341
f 365 348 340
f 333 366 321
f 323 367 333
f 368 367 323
f 368 323 322
f 351 322 266
f 301 334 369
f 278 279 370
f 312 335 353
f 335 294 355
f 355 325 371
f 325 285 372
f 336 373 326
f 285 344 372
f 343 374 344
f 374 343 356
f 346 345 315
f 304 375 316
f 339 376 330
f 347 377 364
f 378 364 377
f 364 378 365
f 320 379 307
f 349 379 320
f 380 367 368
f 350 381 309
f 351 368 322
f 309 381 352
f 279 301 369
f 279 369 370
f 324 310 382
f 382 310 342
f 336 354 383
f 325 372 371
f 373 327 326
f 384 374 356
f 345 346 385
f 356 345 385
f 346 338 386
f 316 387 338
f 388 347 357
f 388 377 347
f 304 389 375
f 390 389 317
f 389 304 317
f 390 317 358
f 358 391 390
f 358 359 391
f 339 362 376
f 362 392 376
f 393 378 377
f 361 360 319
f 394 378 393
f 362 363 395
f 394 396 378
f 378 396 365
f 397 363 341
f 348 365 396
f 397 341 321
f 398 397 321
f 396 399 348
f 348 399 349
f 349 399 379
f 379 350 307
f 370 351 278
f 311 353 400
f 401 311 400
f 401 342 311
f 373 336 383
f 402 356 385
f 316 403 387
f 404 377 388
f 404 405 390
f 405 389 390
f 404 393 377
f 406 393 404
f 406 390 407
f 406 404 390
f 391 407 390
f 408 391 359
f 360 408 359
f 409 393 406
f 393 409 394
f 394 409 396
f 410 399 396
f 411 333 367
f 350 379 412
f 412 381 350
f 334 352 369
f 335 413 353
f 382 342 414
f 335 355 413
f 415 344 374
f 374 384 415
f 386 385 346
f 338 387 386
f 375 403 316
f 361 330 416
f 417 361 416
f 330 376 416
f 376 392 416
f 388 405 404
f 408 360 361
f 418 391 408
f 406 407 409
f 395 363 419
f 409 420 396
f 410 396 420
f 398 321 366
f 421 380 368
f 369 352 422
f 414 342 401
f 413 355 423
f 354 324 382
f 424 354 382
f 354 424 383
f 344 425 372
f 426 327 373
f 425 344 415
f 415 427 428
f 357 327 426
f 384 427 415
f 384 356 402
f 427 384 402
f 385 429 402
f 430 388 357
f 405 388 431
f 432 433 389
f 389 405 432
f 375 389 433
f 434 416 392
f 392 362 434
f 434 362 435
f 435 395 419
f 362 395 435
f 418 407 391
f 436 409 407
f 419 363 397
f 397 398 437
f 438 410 420
f 399 410 439
f 411 366 333
f 399 439 379
f 440 411 367
f 440 367 380
f 351 421 368
f 370 441 351
f 400 353 413
f 371 423 355
f 425 415 428
f 430 357 426
f 402 442 427
f 430 443 388
f 385 386 444
f 385 444 445
f 445 429 385
f 387 403 446
f 387 446 447
f 387 447 444
f 386 387 444
f 432 448 433
f 375 433 449
f 403 375 449
f 417 450 451
f 450 416 434
f 452 361 417
f 416 450 417
f 453 454 408
f 361 453 408
f 408 454 418
f 455 407 418
f 409 436 420
f 411 456 366
f 366 456 457
f 398 366 457
f 439 412 379
f 458 381 412
f 458 352 381
f 352 458 422
f 369 422 370
f 422 441 370
f 401 400 459
f 459 414 401
f 424 460 383
f 373 383 461
f 371 372 462
f 442 428 427
f 443 431 388
f 444 450 445
f 449 463 403
f 403 463 464
f 464 705 403
f 464 447 705
f 447 451 444
f 431 432 405
f 433 448 465
f 433 465 449
f 450 444 451
f 445 450 434
f 466 434 435
f 361 452 453
f 467 418 454
f 397 468 419
f 397 437 468
f 410 438 439
f 469 411 440
f 421 470 380
f 441 421 351
f 422 471 441
f 400 413 472
f 382 414 473
f 413 423 474
f 474 423 475
f 423 371 476
f 460 461 383
f 476 371 462
f 426 373 461
f 428 477 425
f 478 442 402
f 479 478 402
f 429 445 480
f 429 480 402
f 432 431 448
f 464 463 417
f 447 464 417
f 447 417 451
f 481 445 466
f 466 445 434
f 482 453 465
f 465 453 449
f 463 449 452
f 453 706 454
f 452 449 453
f 417 463 452
f 706 467 454
f 407 455 436
f 483 466 435
f 435 419 483
f 484 420 436
f 438 485 439
f 469 456 411
f 485 412 439
f 485 486 412
f 458 412 486
f 421 441 471
f 400 472 459
f 382 487 424
f 476 475 423
f 372 488 462
f 489 477 428
f 442 489 428
f 480 479 402
f 480 445 481
f 482 465 448
f 481 466 490
f 455 418 467
f 491 466 483
f 483 419 468
f 484 492 420
f 420 492 438
f 469 493 456
f 456 493 494
f 456 494 457
f 398 457 495
f 380 496 440
f 497 458 486
f 496 380 470
f 422 458 497
f 498 422 497
f 471 422 498
f 413 499 472
f 413 474 499
f 372 425 488
f 425 477 488
f 426 500 430
f 478 489 442
f 430 500 443
f 480 501 502
f 480 502 479
f 480 503 707
f 503 480 481
f 504 448 431
f 448 504 482
f 504 467 706
f 505 455 467
f 491 490 466
f 455 506 436
f 506 484 436
f 492 485 438
f 457 494 507
f 457 507 495
f 498 497 508
f 414 459 473
f 382 473 487
f 474 475 509
f 510 477 489
f 501 511 512
f 501 512 502
f 513 479 502
f 514 478 479
f 515 504 431
f 516 708 707
f 707 503 516
f 455 505 506
f 517 490 491
f 491 483 518
f 468 518 483
f 468 437 519
f 398 495 437
f 492 520 485
f 486 485 520
f 494 521 507
f 497 486 508
f 469 440 496
f 498 522 471
f 471 522 421
f 499 523 472
f 499 474 509
f 424 524 460
f 476 525 475
f 526 476 462
f 461 527 426
f 527 500 426
f 477 510 488
f 489 478 528
f 514 528 478
f 529 512 511
f 502 512 513
f 479 513 514
f 443 515 431
f 504 530 531
f 503 532 516
f 481 533 503
f 503 533 532
f 504 534 467
f 531 534 504
f 467 534 505
f 535 490 517
f 506 536 484
f 520 492 537
f 437 495 538
f 493 539 540
f 520 541 486
f 493 469 539
f 469 496 539
f 508 486 541
f 522 470 421
f 472 523 459
f 499 542 523
f 499 509 542
f 509 475 543
f 544 475 525
f 487 524 424
f 460 527 461
f 460 524 527
f 462 488 526
f 500 527 545
f 510 489 528
f 443 500 546
f 515 443 546
f 547 548 549
f 550 551 512
f 551 552 512
f 515 530 504
f 547 553 530
f 512 529 550
f 513 512 552
f 553 531 530
f 554 553 549
f 553 547 549
f 555 554 549
f 708 516 709
f 709 516 556
f 553 557 531
f 553 554 557
f 533 481 558
f 481 490 558
f 559 505 534
f 505 560 506
f 518 517 491
f 536 492 484
f 518 519 561
f 468 519 518
f 538 519 437
f 507 538 495
f 493 540 494
f 494 540 521
f 508 562 498
f 508 563 562
f 522 564 470
f 487 473 565
f 544 543 475
f 487 565 524
f 524 545 527
f 566 545 524
f 476 526 525
f 500 545 567
f 488 510 568
f 546 500 567
f 530 569 547
f 570 547 569
f 548 547 570
f 548 570 571
f 515 546 572
f 549 548 555
f 555 548 573
f 550 574 551
f 572 530 515
f 574 550 529
f 556 712 709
f 532 575 710
f 575 513 552
f 575 514 513
f 516 532 556
f 531 576 534
f 557 576 531
f 558 490 577
f 577 490 535
f 560 505 559
f 536 506 578
f 578 506 560
f 519 538 579
f 580 538 507
f 520 537 581
f 581 541 520
f 581 563 541
f 496 564 539
f 541 563 508
f 562 522 498
f 496 470 564
f 459 582 473
f 459 542 582
f 542 459 523
f 565 566 524
f 544 525 583
f 488 568 526
f 569 530 572
f 584 510 528
f 572 546 567
f 585 548 571
f 573 548 585
f 713 711 714
f 528 514 584
f 574 552 551
f 514 575 586
f 514 586 584
f 573 587 555
f 556 710 712
f 587 554 555
f 710 556 532
f 532 533 575
f 557 554 576
f 533 558 575
f 588 559 534
f 576 588 534
f 589 560 559
f 590 517 518
f 492 536 537
f 580 579 538
f 519 579 561
f 507 591 580
f 540 592 593
f 539 592 540
f 540 594 521
f 594 507 521
f 564 592 539
f 562 595 522
f 509 596 542
f 509 543 596
f 473 597 565
f 582 597 473
f 565 597 598
f 599 543 544
f 600 601 545
f 566 600 545
f 601 567 545
f 602 567 601
f 603 567 602
f 604 605 570
f 568 606 526
f 603 572 567
f 570 569 604
f 571 570 605
f 571 605 607
f 608 568 510
f 569 572 603
f 609 585 607
f 585 571 607
f 510 584 608
f 610 585 609
f 587 585 610
f 573 585 587
f 554 611 576
f 554 587 611
f 575 558 586
f 612 589 559
f 588 612 559
f 560 589 578
f 517 613 535
f 578 614 536
f 615 614 578
f 590 518 561
f 579 616 561
f 580 617 579
f 537 536 614
f 580 591 617
f 594 540 593
f 591 507 594
f 592 564 618
f 564 522 595
f 618 564 595
f 619 582 542
f 542 596 620
f 598 600 565
f 565 600 566
f 583 621 544
f 583 525 526
f 602 622 603
f 603 622 569
f 569 623 604
f 622 623 569
f 623 624 604
f 604 624 605
f 558 577 586
f 576 611 588
f 613 577 535
f 589 612 615
f 589 615 578
f 517 590 613
f 616 590 561
f 625 616 579
f 579 617 625
f 614 581 537
f 626 593 592
f 563 581 562
f 542 620 619
f 543 599 596
f 627 600 598
f 628 601 600
f 628 600 627
f 544 621 599
f 602 601 622
f 622 601 628
f 606 583 526
f 629 605 624
f 608 606 568
f 607 629 630
f 607 605 629
f 607 630 609
f 609 630 610
f 610 611 587
f 584 586 577
f 631 588 611
f 588 632 612
f 615 612 633
f 615 633 634
f 634 633 635
f 614 615 634
f 625 617 636
f 637 636 617
f 614 634 581
f 617 591 637
f 638 581 634
f 626 639 640
f 641 637 594
f 592 639 626
f 641 593 626
f 594 593 641
f 591 594 637
f 638 562 581
f 639 562 638
f 592 618 639
f 639 595 562
f 618 595 639
f 619 620 642
f 582 619 597
f 596 643 620
f 599 643 596
f 598 597 644
f 645 628 627
f 628 645 622
f 583 646 621
f 647 622 645
f 583 606 646
f 623 622 647
f 624 648 629
f 624 623 648
f 649 630 629
f 610 630 649
f 608 584 650
f 650 584 651
f 610 649 611
f 611 649 652
f 584 577 651
f 632 588 631
f 577 613 651
f 612 632 653
f 612 653 633
f 654 613 590
f 633 655 635
f 656 635 655
f 590 616 654
f 656 640 635
f 641 640 656
f 635 638 634
f 640 638 635
f 641 626 640
f 640 639 638
f 637 641 657
f 643 642 620
f 619 658 597
f 597 658 644
f 599 659 643
f 598 644 627
f 599 621 659
f 621 646 659
f 623 647 648
f 652 631 611
f 654 651 613
f 655 660 656
f 656 660 641
f 661 625 636
f 660 657 641
f 619 642 658
f 642 662 658
f 643 662 642
f 627 644 663
f 664 645 627
f 645 664 647
f 647 664 648
f 606 665 646
f 629 648 666
f 608 665 606
f 629 666 649
f 650 665 608
f 667 649 666
f 652 649 667
f 651 668 650
f 669 668 651
f 632 631 653
f 651 654 669
f 653 655 633
f 669 616 670
f 669 654 616
f 660 655 653
f 661 670 625
f 671 661 636
f 616 625 670
f 671 636 657
f 657 660 672
f 636 637 657
f 673 662 643
f 659 673 643
f 659 674 673
f 663 675 627
f 646 674 659
f 627 675 664
f 648 664 666
f 664 676 666
f 666 676 667
f 631 652 677
f 652 667 677
f 668 669 678
f 631 677 653
f 653 677 679
f 678 669 670
f 661 680 670
f 653 679 660
f 679 672 660
f 671 657 672
f 658 681 644
f 658 662 681
f 644 681 663
f 646 682 674
f 675 683 664
f 650 684 685
f 665 650 685
f 650 668 684
f 677 667 686
f 668 678 684
f 687 677 686
f 678 670 688
f 687 679 677
f 689 679 687
f 671 680 661
f 680 688 670
f 689 672 679
f 671 672 689
f 681 662 690
f 673 690 662
f 674 682 673
f 646 665 682
f 683 676 664
f 665 685 682
f 676 683 667
f 683 686 667
f 691 678 688
f 684 678 691
f 692 689 687
f 671 689 692
f 681 693 663
f 690 693 681
f 673 694 690
f 694 693 690
f 695 663 693
f 673 682 694
f 663 695 675
f 675 695 683
f 683 695 696
f 682 685 694
f 697 686 683
f 685 684 698
f 684 691 698
f 686 697 687
f 692 687 697
f 691 680 699
f 688 680 691
f 692 699 671
f 680 671 699
f 693 700 695
f 700 696 695
f 694 701 693
f 701 700 693
f 694 685 701
f 696 697 683
f 702 697 696
f 685 698 701
f 698 703 701
f 702 692 697
f 703 699 702
f 698 691 703
f 699 692 702
f 691 699 703
f 701 704 700
f 704 696 700
f 701 703 704
f 702 696 704
f 703 702 704

